WIPSHDC-Missing-JP-Sans.glyphspackage
{
glyphname = uni4E07;
layers = (
{
layerId = m01;
shapes = (
{
closed = 1;
nodes = (
(935,749,l),
(66,749,l),
(66,719,l),
(935,719,l)
);
},
{
closed = 1;
nodes = (
(813,473,l),
(371,473,l),
(371,443,l),
(813,443,l)
);
},
{
closed = 1;
nodes = (
(804,473,l),
(804,466,ls),
(785,127,o),
(767,4,o),
(732,-28,cs),
(722,-38,o),
(710,-40,o),
(685,-39,cs),
(661,-39,o),
(584,-39,o),
(504,-31,c),
(510,-40,o),
(513,-51,o),
(514,-61,c),
(585,-66,o),
(657,-68,o),
(691,-67,cs),
(723,-66,o),
(741,-62,o),
(758,-44,cs),
(796,-6,o),
(814,114,o),
(833,452,cs),
(833,458,o),
(833,473,o),
(833,473,c)
);
},
{
closed = 1;
nodes = (
(373,729,l),
(367,456,o),
(351,96,o),
(48,-57,c),
(55,-62,o),
(66,-69,o),
(71,-75,c),
(378,82,o),
(395,445,o),
(402,729,c)
);
}
);
vertWidth = 1000;
width = 1000;
},
{
layerId = "94DDBC6A-1627-4027-9125-871D02041BCD";
shapes = (
{
closed = 1;
nodes = (
(944,790,l),
(57,790,l),
(57,646,l),
(944,646,l)
);
},
{
closed = 1;
nodes = (
(769,508,l),
(381,508,l),
(381,366,l),
(769,366,l)
);
},
{
closed = 1;
nodes = (
(699,508,l),
(699,482,l),
(689,213,o),
(672,88,o),
(645,63,cs),
(631,50,o),
(620,48,o),
(599,48,cs),
(567,48,o),
(498,49,o),
(431,54,c),
(459,15,o),
(482,-52,o),
(485,-93,c),
(550,-95,o),
(620,-96,o),
(662,-90,cs),
(711,-84,o),
(749,-71,o),
(782,-32,cs),
(822,15,o),
(840,140,o),
(853,446,c),
(854,464,o),
(856,508,o),
(856,508,c)
);
},
{
closed = 1;
nodes = (
(312,670,l),
(304,388,o),
(292,167,o),
(25,26,c),
(65,-3,o),
(111,-56,o),
(133,-97,c),
(425,75,o),
(460,344,o),
(470,670,c)
);
}
);
vertWidth = 1000;
width = 1000;
}
);
note = cid09515;
unicode = 19975;
}
{
glyphname = uni4E4E;
layers = (
{
layerId = m01;
shapes = (
{
closed = 1;
nodes = (
(811,805,l),
(665,763,o),
(365,741,o),
(133,732,c),
(136,725,o),
(139,713,o),
(139,706,c),
(376,713,o),
(681,737,o),
(838,781,c)
);
},
{
closed = 1;
nodes = (
(62,337,l),
(62,308,l),
(940,308,l),
(940,337,l)
);
},
{
closed = 1;
nodes = (
(492,739,l),
(492,-15,ls),
(492,-37,o),
(484,-43,o),
(462,-45,cs),
(440,-46,o),
(365,-47,o),
(272,-44,c),
(278,-54,o),
(282,-66,o),
(285,-74,c),
(395,-74,o),
(453,-75,o),
(480,-69,cs),
(508,-64,o),
(522,-51,o),
(522,-14,cs),
(522,739,l)
);
},
{
closed = 1;
nodes = (
(187,635,l),
(231,559,o),
(277,459,o),
(293,398,c),
(322,408,l),
(305,468,o),
(259,568,o),
(215,643,c)
);
},
{
closed = 1;
nodes = (
(805,657,l),
(775,583,o),
(721,474,o),
(679,410,c),
(703,397,l),
(745,461,o),
(797,564,o),
(834,644,c)
);
}
);
vertWidth = 1000;
width = 1000;
},
{
layerId = "94DDBC6A-1627-4027-9125-871D02041BCD";
shapes = (
{
closed = 1;
nodes = (
(775,855,l),
(608,817,o),
(347,786,o),
(96,776,c),
(111,741,o),
(128,683,o),
(131,644,c),
(389,649,o),
(682,682,o),
(890,729,c)
);
},
{
closed = 1;
nodes = (
(42,387,l),
(42,242,l),
(961,242,l),
(961,387,l)
);
},
{
closed = 1;
nodes = (
(423,726,l),
(423,79,ls),
(423,59,o),
(414,52,o),
(391,52,cs),
(367,52,o),
(282,52,o),
(214,56,c),
(238,16,o),
(266,-52,o),
(275,-95,c),
(375,-95,o),
(452,-91,o),
(507,-68,cs),
(562,-46,o),
(581,-7,o),
(581,77,cs),
(581,726,l)
);
},
{
closed = 1;
nodes = (
(140,590,l),
(172,527,o),
(206,445,o),
(216,392,c),
(349,445,l),
(336,498,o),
(299,577,o),
(264,636,c)
);
},
{
closed = 1;
nodes = (
(730,662,l),
(711,592,o),
(677,510,o),
(642,448,c),
(762,395,l),
(801,454,o),
(849,535,o),
(887,605,c)
);
}
);
vertWidth = 1000;
width = 1000;
}
);
note = cid09586;
unicode = 20046;
}
{
glyphname = uni4E5E;
layers = (
{
layerId = m01;
shapes = (
{
closed = 1;
nodes = (
(187,496,l),
(187,467,l),
(714,467,l),
(714,496,l)
);
},
{
closed = 1;
nodes = (
(712,496,l),
(174,138,o),
(154,73,o),
(154,25,cs),
(154,-26,o),
(198,-55,o),
(296,-55,cs),
(815,-55,ls),
(897,-55,o),
(916,-30,o),
(924,119,c),
(916,121,o),
(902,126,o),
(894,131,c),
(889,-2,o),
(877,-26,o),
(815,-26,cs),
(290,-25,ls),
(228,-25,o),
(184,-10,o),
(184,26,cs),
(184,66,o),
(218,128,o),
(736,477,c),
(740,479,o),
(744,482,o),
(746,485,c),
(724,498,l),
(717,496,l)
);
},
{
closed = 1;
nodes = (
(295,833,l),
(240,697,o),
(148,571,o),
(45,489,c),
(53,484,o),
(66,474,o),
(72,469,c),
(172,555,o),
(265,683,o),
(325,825,c)
);
},
{
closed = 1;
nodes = (
(231,685,l),
(217,656,l),
(920,656,l),
(920,685,l)
);
}
);
vertWidth = 1000;
width = 1000;
},
{
layerId = "94DDBC6A-1627-4027-9125-871D02041BCD";
shapes = (
{
closed = 1;
nodes = (
(221,508,l),
(221,369,l),
(676,369,l),
(676,508,l)
);
},
{
closed = 1;
nodes = (
(660,508,l),
(165,240,o),
(141,167,o),
(141,83,cs),
(141,-20,o),
(223,-85,o),
(394,-85,cs),
(744,-85,ls),
(896,-85,o),
(958,-45,o),
(976,141,c),
(930,150,o),
(878,167,o),
(836,191,c),
(831,76,o),
(807,61,o),
(759,61,cs),
(382,61,ls),
(328,61,o),
(297,71,o),
(297,98,cs),
(297,134,o),
(330,179,o),
(793,415,cs),
(804,421,o),
(814,429,o),
(820,435,c),
(714,513,l),
(683,508,l)
);
},
{
closed = 1;
nodes = (
(268,854,l),
(216,726,o),
(123,600,o),
(25,526,c),
(64,499,o),
(120,452,o),
(152,418,c),
(254,506,o),
(358,655,o),
(422,805,c)
);
},
{
closed = 1;
nodes = (
(282,731,l),
(210,588,l),
(944,588,l),
(944,731,l)
);
}
);
vertWidth = 1000;
width = 1000;
}
);
note = cid09607;
unicode = 20062;
}
{
glyphname = uni4E69;
layers = (
{
layerId = m01;
shapes = (
{
closed = 1;
nodes = (
(635,820,l),
(605,820,l),
(605,34,ls),
(605,-37,o),
(622,-52,o),
(689,-52,cs),
(704,-52,o),
(850,-52,o),
(866,-52,cs),
(939,-52,o),
(947,1,o),
(952,178,c),
(943,180,o),
(933,185,o),
(924,193,c),
(919,17,o),
(914,-26,o),
(867,-26,cs),
(839,-26,o),
(708,-26,o),
(688,-26,cs),
(643,-26,o),
(635,-17,o),
(635,32,cs)
);
},
{
closed = 1;
nodes = (
(298,830,l),
(269,830,l),
(269,345,l),
(298,345,l)
);
},
{
closed = 1;
nodes = (
(554,607,l),
(280,607,l),
(280,577,l),
(554,577,l)
);
},
{
closed = 1;
nodes = (
(479,14,l),
(113,14,l),
(113,-16,l),
(479,-16,l)
);
},
{
closed = 1;
nodes = (
(491,363,l),
(99,363,l),
(99,-70,l),
(129,-70,l),
(129,333,l),
(462,333,l),
(462,-66,l),
(491,-66,l)
);
}
);
vertWidth = 1000;
width = 1000;
},
{
layerId = "94DDBC6A-1627-4027-9125-871D02041BCD";
shapes = (
{
closed = 1;
nodes = (
(725,838,l),
(582,838,l),
(582,111,ls),
(582,-39,o),
(615,-86,o),
(728,-86,cs),
(747,-86,o),
(804,-86,o),
(825,-86,cs),
(935,-86,o),
(966,-4,o),
(977,200,c),
(940,209,o),
(880,237,o),
(846,264,c),
(841,93,o),
(837,49,o),
(809,49,cs),
(799,49,o),
(763,49,o),
(752,49,cs),
(728,49,o),
(725,56,o),
(725,109,cs)
);
},
{
closed = 1;
nodes = (
(350,841,l),
(211,841,l),
(211,285,l),
(350,285,l)
);
},
{
closed = 1;
nodes = (
(541,683,l),
(266,683,l),
(266,556,l),
(541,556,l)
);
},
{
closed = 1;
nodes = (
(463,101,l),
(111,101,l),
(111,-30,l),
(463,-30,l)
);
},
{
closed = 1;
nodes = (
(514,396,l),
(62,396,l),
(62,-95,l),
(190,-95,l),
(190,267,l),
(380,267,l),
(380,-90,l),
(514,-90,l)
);
}
);
vertWidth = 1000;
width = 1000;
}
);
note = cid09646;
unicode = 20073;
}
{
glyphname = uni4E71;
layers = (
{
layerId = m01;
shapes = (
{
closed = 1;
nodes = (
(566,531,l),
(49,531,l),
(49,502,l),
(566,502,l)
);
},
{
closed = 1;
nodes = (
(496,15,l),
(125,15,l),
(125,-15,l),
(496,-15,l)
);
},
{
closed = 1;
nodes = (
(508,817,l),
(415,778,o),
(223,748,o),
(68,730,c),
(72,722,o),
(77,712,o),
(79,705,c),
(236,722,o),
(427,752,o),
(535,794,c)
);
},
{
closed = 1;
nodes = (
(637,822,l),
(607,822,l),
(607,34,ls),
(607,-36,o),
(625,-51,o),
(693,-51,cs),
(707,-51,o),
(852,-51,o),
(867,-51,cs),
(937,-51,o),
(945,-4,o),
(951,153,c),
(942,155,o),
(931,160,o),
(922,168,c),
(917,14,o),
(912,-24,o),
(868,-24,cs),
(839,-24,o),
(712,-24,o),
(691,-24,cs),
(646,-24,o),
(637,-15,o),
(637,33,cs)
);
},
{
closed = 1;
nodes = (
(512,299,l),
(109,299,l),
(109,-70,l),
(138,-70,l),
(138,269,l),
(482,269,l),
(482,-67,l),
(512,-67,l)
);
},
{
closed = 1;
nodes = (
(325,756,l),
(295,756,l),
(295,281,l),
(325,281,l)
);
}
);
vertWidth = 1000;
width = 1000;
},
{
layerId = "94DDBC6A-1627-4027-9125-871D02041BCD";
shapes = (
{
closed = 1;
nodes = (
(560,569,l),
(24,569,l),
(24,440,l),
(560,440,l)
);
},
{
closed = 1;
nodes = (
(474,68,l),
(127,68,l),
(127,-59,l),
(474,-59,l)
);
},
{
closed = 1;
nodes = (
(449,855,l),
(344,822,o),
(184,794,o),
(36,779,c),
(52,748,o),
(70,696,o),
(76,663,c),
(231,676,o),
(411,701,o),
(553,742,c)
);
},
{
closed = 1;
nodes = (
(727,836,l),
(583,836,l),
(583,110,ls),
(583,-43,o),
(616,-89,o),
(729,-89,cs),
(750,-89,o),
(805,-89,o),
(827,-89,cs),
(933,-89,o),
(966,-15,o),
(978,168,c),
(939,177,o),
(881,204,o),
(848,230,c),
(843,86,o),
(838,47,o),
(812,47,cs),
(802,47,o),
(765,47,o),
(754,47,cs),
(730,47,o),
(727,54,o),
(727,108,cs)
);
},
{
closed = 1;
nodes = (
(539,315,l),
(65,315,l),
(65,-95,l),
(200,-95,l),
(200,188,l),
(397,188,l),
(397,-83,l),
(539,-83,l)
);
},
{
closed = 1;
nodes = (
(370,758,l),
(228,758,l),
(228,225,l),
(370,225,l)
);
}
);
vertWidth = 1000;
width = 1000;
}
);
note = cid09655;
unicode = 20081;
}
{
glyphname = uni4E88;
layers = (
{
layerId = m01;
shapes = (
{
closed = 1;
nodes = (
(511,447,l),
(481,447,l),
(481,-19,ls),
(481,-34,o),
(476,-39,o),
(459,-40,cs),
(439,-41,o),
(378,-42,o),
(298,-40,c),
(303,-50,o),
(309,-61,o),
(311,-70,c),
(401,-70,o),
(453,-70,o),
(477,-64,cs),
(502,-59,o),
(511,-47,o),
(511,-18,cs)
);
},
{
closed = 1;
nodes = (
(800,778,l),
(151,778,l),
(151,749,l),
(800,749,l)
);
},
{
closed = 1;
nodes = (
(796,778,l),
(789,778,l),
(789,771,l),
(721,699,o),
(593,610,o),
(494,560,c),
(501,555,o),
(510,546,o),
(515,539,c),
(614,593,o),
(744,681,o),
(825,765,c),
(803,780,l)
);
},
{
closed = 1;
nodes = (
(917,466,l),
(60,466,l),
(60,436,l),
(917,436,l)
);
},
{
closed = 1;
nodes = (
(285,645,l),
(412,596,o),
(562,517,o),
(649,453,c),
(667,478,l),
(580,540,o),
(430,618,o),
(304,666,c)
);
},
{
closed = 1;
nodes = (
(912,466,l),
(905,466,l),
(905,457,l),
(853,381,o),
(780,294,o),
(721,243,c),
(744,228,l),
(809,281,o),
(878,374,o),
(941,456,c),
(919,468,l)
);
}
);
vertWidth = 1000;
width = 1000;
},
{
layerId = "94DDBC6A-1627-4027-9125-871D02041BCD";
shapes = (
{
closed = 1;
nodes = (
(583,357,l),
(431,357,l),
(431,61,ls),
(431,46,o),
(425,43,o),
(405,42,cs),
(385,42,o),
(307,42,o),
(253,45,c),
(274,7,o),
(298,-54,o),
(306,-95,c),
(391,-95,o),
(460,-93,o),
(513,-73,cs),
(567,-53,o),
(583,-16,o),
(583,56,cs)
);
},
{
closed = 1;
nodes = (
(746,798,l),
(142,798,l),
(142,665,l),
(746,665,l)
);
},
{
closed = 1;
nodes = (
(730,798,l),
(691,798,l),
(691,767,l),
(653,714,o),
(554,627,o),
(470,579,c),
(494,556,o),
(537,511,o),
(557,482,c),
(666,543,o),
(781,639,o),
(867,723,c),
(763,806,l)
);
},
{
closed = 1;
nodes = (
(849,468,l),
(43,468,l),
(43,330,l),
(849,330,l)
);
},
{
closed = 1;
nodes = (
(262,545,l),
(383,500,o),
(525,433,o),
(606,383,c),
(718,500,l),
(630,547,o),
(484,608,o),
(364,647,c)
);
},
{
closed = 1;
nodes = (
(828,468,l),
(801,468,l),
(801,445,l),
(779,373,o),
(735,284,o),
(697,227,c),
(822,155,l),
(876,227,o),
(934,330,o),
(973,427,c),
(853,478,l)
);
}
);
vertWidth = 1000;
width = 1000;
}
);
note = cid09689;
unicode = 20104;
}
{
glyphname = uni4E8B;
layers = (
{
layerId = m01;
shapes = (
{
closed = 1;
nodes = (
(512,831,l),
(482,831,l),
(482,-16,ls),
(482,-35,o),
(476,-40,o),
(458,-41,cs),
(440,-42,o),
(378,-43,o),
(306,-41,c),
(311,-51,o),
(317,-65,o),
(319,-73,c),
(402,-73,o),
(452,-73,o),
(476,-67,cs),
(500,-62,o),
(512,-50,o),
(512,-16,cs)
);
},
{
closed = 1;
nodes = (
(930,736,l),
(74,736,l),
(74,707,l),
(930,707,l)
);
},
{
closed = 1;
nodes = (
(210,482,l),
(210,599,l),
(799,599,l),
(799,482,l)
);
},
{
closed = 1;
nodes = (
(828,628,l),
(181,628,l),
(181,452,l),
(828,452,l)
);
},
{
closed = 1;
nodes = (
(842,367,l),
(148,367,l),
(148,338,l),
(813,338,l),
(813,31,l),
(842,31,l)
);
},
{
closed = 1;
nodes = (
(946,241,l),
(59,241,l),
(59,212,l),
(946,212,l)
);
},
{
closed = 1;
nodes = (
(826,108,l),
(137,108,l),
(137,78,l),
(826,78,l)
);
}
);
vertWidth = 1000;
width = 1000;
},
{
layerId = "94DDBC6A-1627-4027-9125-871D02041BCD";
shapes = (
{
closed = 1;
nodes = (
(570,855,l),
(422,855,l),
(422,37,ls),
(422,20,o),
(416,13,o),
(397,13,cs),
(381,13,o),
(322,13,o),
(282,15,c),
(300,-15,o),
(321,-65,o),
(328,-97,c),
(414,-98,o),
(469,-96,o),
(512,-77,cs),
(555,-58,o),
(570,-29,o),
(570,36,cs)
);
},
{
closed = 1;
nodes = (
(944,798,l),
(57,798,l),
(57,685,l),
(944,685,l)
);
},
{
closed = 1;
nodes = (
(297,531,l),
(297,568,l),
(697,568,l),
(697,531,l)
);
},
{
closed = 1;
nodes = (
(846,657,l),
(158,657,l),
(158,442,l),
(846,442,l)
);
},
{
closed = 1;
nodes = (
(864,413,l),
(136,413,l),
(136,317,l),
(716,317,l),
(716,7,l),
(864,7,l)
);
},
{
closed = 1;
nodes = (
(969,290,l),
(32,290,l),
(32,181,l),
(969,181,l)
);
},
{
closed = 1;
nodes = (
(796,151,l),
(129,151,l),
(129,48,l),
(796,48,l)
);
}
);
vertWidth = 1000;
width = 1000;
}
);
note = cid09693;
unicode = 20107;
}
{
glyphname = uni4ED6;
layers = (
{
layerId = m01;
name = ExtraLight;
shapes = (
{
closed = 1;
nodes = (
(664,820,l),
(634,820,l),
(634,154,l),
(664,154,l)
);
},
{
closed = 1;
nodes = (
(889,636,l),
(272,400,l),
(282,374,l),
(899,611,l)
);
},
{
closed = 1;
nodes = (
(435,737,l),
(406,737,l),
(406,41,ls),
(406,-40,o),
(436,-60,o),
(534,-60,cs),
(557,-60,o),
(809,-60,o),
(832,-60,cs),
(930,-60,o),
(943,-18,o),
(952,116,c),
(943,117,o),
(930,122,o),
(921,129,c),
(914,2,o),
(904,-30,o),
(837,-30,cs),
(784,-30,o),
(568,-30,o),
(529,-30,cs),
(452,-30,o),
(435,-14,o),
(435,40,cs)
);
},
{
closed = 1;
nodes = (
(866,620,l),
(877,620,l),
(877,449,o),
(874,287,o),
(863,253,c),
(857,224,o),
(844,219,o),
(823,219,cs),
(811,219,o),
(765,219,o),
(730,221,c),
(735,212,o),
(739,200,o),
(741,191,c),
(765,190,o),
(807,190,o),
(831,190,cs),
(860,191,o),
(883,204,o),
(892,240,cs),
(902,278,o),
(906,445,o),
(907,623,c),
(910,630,l),
(888,641,l),
(881,634,l)
);
},
{
closed = 1;
nodes = (
(291,827,l),
(230,666,o),
(130,508,o),
(23,406,c),
(30,400,o),
(40,387,o),
(44,382,c),
(151,492,o),
(252,650,o),
(319,819,c)
);
},
{
closed = 1;
nodes = (
(180,-70,l),
(209,-70,l),
(209,615,l),
(207,616,l),
(180,588,l)
);
}
);
vertWidth = 1000;
width = 1000;
},
{
layerId = "94DDBC6A-1627-4027-9125-871D02041BCD";
shapes = (
{
closed = 1;
nodes = (
(724,833,l),
(587,833,l),
(587,144,l),
(724,144,l)
);
},
{
closed = 1;
nodes = (
(839,669,l),
(264,466,l),
(311,339,l),
(886,542,l)
);
},
{
closed = 1;
nodes = (
(516,767,l),
(375,767,l),
(375,122,ls),
(375,-39,o),
(419,-81,o),
(577,-81,cs),
(613,-81,o),
(752,-81,o),
(791,-81,cs),
(921,-81,o),
(965,-32,o),
(984,110,c),
(944,118,o),
(886,141,o),
(854,163,c),
(844,70,o),
(832,50,o),
(776,50,cs),
(746,50,o),
(620,50,o),
(589,50,cs),
(523,50,o),
(516,58,o),
(516,122,cs)
);
},
{
closed = 1;
nodes = (
(799,647,l),
(806,647,l),
(806,428,o),
(805,342,o),
(801,322,cs),
(798,303,o),
(791,299,o),
(778,299,cs),
(765,299,o),
(739,300,o),
(718,301,c),
(734,270,o),
(747,207,o),
(749,167,c),
(789,166,o),
(840,168,o),
(874,185,cs),
(910,202,o),
(928,232,o),
(933,287,cs),
(939,332,o),
(941,444,o),
(942,620,c),
(947,642,l),
(847,680,l),
(821,662,l)
);
},
{
closed = 1;
nodes = (
(228,851,l),
(180,714,o),
(97,576,o),
(11,488,c),
(35,453,o),
(73,373,o),
(86,338,c),
(194,453,o),
(299,639,o),
(362,808,c)
);
},
{
closed = 1;
nodes = (
(130,-94,l),
(273,-94,l),
(273,706,l),
(273,707,l),
(130,564,l)
);
}
);
vertWidth = 1000;
width = 1000;
}
);
note = cid09814;
unicode = 20182;
}
{
glyphname = uni4ED7;
layers = (
{
layerId = m01;
shapes = (
{
closed = 1;
nodes = (
(952,612,l),
(316,612,l),
(316,582,l),
(952,582,l)
);
},
{
closed = 1;
nodes = (
(405,471,l),
(480,173,o),
(645,-7,o),
(947,-72,c),
(952,-64,o),
(960,-53,o),
(966,-46,c),
(665,13,o),
(503,190,o),
(432,478,c)
);
},
{
closed = 1;
nodes = (
(694,832,l),
(664,832,l),
(664,550,ls),
(664,338,o),
(631,114,o),
(282,-49,c),
(290,-55,o),
(300,-65,o),
(304,-72,c),
(658,95,o),
(694,328,o),
(694,550,cs)
);
},
{
closed = 1;
nodes = (
(205,-68,l),
(234,-68,l),
(234,609,l),
(234,610,l),
(205,580,l)
);
},
{
closed = 1;
nodes = (
(323,823,l),
(255,657,o),
(145,497,o),
(29,393,c),
(36,387,o),
(47,376,o),
(51,370,c),
(168,480,o),
(278,641,o),
(350,816,c)
);
}
);
vertWidth = 1000;
width = 1000;
},
{
layerId = "94DDBC6A-1627-4027-9125-871D02041BCD";
shapes = (
{
closed = 1;
nodes = (
(975,655,l),
(349,655,l),
(349,516,l),
(975,516,l)
);
},
{
closed = 1;
nodes = (
(412,472,l),
(485,176,o),
(605,-12,o),
(888,-96,c),
(908,-57,o),
(949,4,o),
(980,34,c),
(722,96,o),
(600,259,o),
(545,498,c)
);
},
{
closed = 1;
nodes = (
(792,841,l),
(646,841,l),
(646,556,ls),
(646,385,o),
(627,149,o),
(320,23,c),
(351,-4,o),
(401,-64,o),
(420,-98,c),
(759,50,o),
(792,336,o),
(792,556,cs)
);
},
{
closed = 1;
nodes = (
(156,-94,l),
(300,-94,l),
(300,689,l),
(298,691,l),
(156,549,l)
);
},
{
closed = 1;
nodes = (
(250,850,l),
(196,707,o),
(103,564,o),
(6,475,c),
(32,439,o),
(75,358,o),
(89,322,c),
(207,439,o),
(322,629,o),
(392,804,c)
);
}
);
vertWidth = 1000;
width = 1000;
}
);
note = cid09816;
unicode = 20183;
}
{
glyphname = uni4ED8;
layers = (
{
layerId = m01;
shapes = (
{
closed = 1;
nodes = (
(950,602,l),
(329,602,l),
(329,572,l),
(950,572,l)
);
},
{
closed = 1;
nodes = (
(798,818,l),
(769,818,l),
(769,-11,ls),
(769,-34,o),
(761,-40,o),
(738,-42,cs),
(716,-43,o),
(638,-44,o),
(546,-41,c),
(551,-51,o),
(557,-65,o),
(560,-72,c),
(667,-73,o),
(726,-73,o),
(756,-67,cs),
(784,-62,o),
(798,-49,o),
(798,-10,cs)
);
},
{
closed = 1;
nodes = (
(402,428,l),
(466,353,o),
(533,246,o),
(566,169,c),
(592,187,l),
(559,263,o),
(491,367,o),
(426,440,c)
);
},
{
closed = 1;
nodes = (
(205,-70,l),
(234,-70,l),
(234,609,l),
(234,610,l),
(205,580,l)
);
},
{
closed = 1;
nodes = (
(323,823,l),
(260,658,o),
(159,498,o),
(49,393,c),
(56,387,o),
(67,376,o),
(72,370,c),
(182,481,o),
(283,642,o),
(351,816,c)
);
}
);
vertWidth = 1000;
width = 1000;
},
{
layerId = "94DDBC6A-1627-4027-9125-871D02041BCD";
shapes = (
{
closed = 1;
nodes = (
(976,642,l),
(354,642,l),
(354,495,l),
(976,495,l)
);
},
{
closed = 1;
nodes = (
(874,844,l),
(723,844,l),
(723,75,ls),
(723,53,o),
(713,44,o),
(691,44,cs),
(668,44,o),
(603,44,o),
(537,48,c),
(556,10,o),
(580,-55,o),
(586,-96,c),
(687,-97,o),
(760,-94,o),
(808,-72,cs),
(857,-50,o),
(874,-13,o),
(874,74,cs)
);
},
{
closed = 1;
nodes = (
(389,382,l),
(442,302,o),
(491,205,o),
(509,146,c),
(648,216,l),
(624,276,o),
(571,370,o),
(518,442,c)
);
},
{
closed = 1;
nodes = (
(156,-95,l),
(304,-95,l),
(304,691,l),
(302,693,l),
(156,547,l)
);
},
{
closed = 1;
nodes = (
(245,850,l),
(194,709,o),
(106,567,o),
(14,479,c),
(40,443,o),
(83,361,o),
(98,325,c),
(212,441,o),
(322,630,o),
(389,804,c)
);
}
);
vertWidth = 1000;
width = 1000;
}
);
note = cid09817;
unicode = 20184;
}
{
glyphname = uni4EDE;
layers = (
{
layerId = m01;
shapes = (
{
closed = 1;
nodes = (
(921,720,l),
(343,720,l),
(343,691,l),
(921,691,l)
);
},
{
closed = 1;
nodes = (
(909,720,l),
(909,712,ls),
(891,196,o),
(871,18,o),
(834,-22,c),
(823,-36,o),
(812,-38,o),
(792,-38,cs),
(770,-38,o),
(711,-37,o),
(645,-32,c),
(651,-40,o),
(653,-52,o),
(654,-62,c),
(708,-66,o),
(765,-67,o),
(795,-67,cs),
(825,-66,o),
(844,-60,o),
(862,-39,cs),
(903,10,o),
(919,177,o),
(938,697,cs),
(938,703,o),
(938,720,o),
(938,720,c)
);
},
{
closed = 1;
nodes = (
(612,710,l),
(604,441,o),
(590,74,o),
(281,-55,c),
(287,-60,o),
(297,-70,o),
(301,-75,c),
(614,59,o),
(632,430,o),
(642,710,c)
);
},
{
closed = 1;
nodes = (
(429,551,l),
(408,440,o),
(350,326,o),
(288,274,c),
(313,260,l),
(373,314,o),
(432,431,o),
(455,543,c)
);
},
{
closed = 1;
nodes = (
(299,827,l),
(234,669,o),
(133,513,o),
(27,410,c),
(34,404,o),
(44,391,o),
(49,385,c),
(155,495,o),
(258,654,o),
(327,819,c)
);
},
{
closed = 1;
nodes = (
(187,-70,l),
(217,-70,l),
(217,613,l),
(215,614,l),
(187,586,l)
);
}
);
vertWidth = 1000;
width = 1000;
},
{
layerId = "94DDBC6A-1627-4027-9125-871D02041BCD";
shapes = (
{
closed = 1;
nodes = (
(859,774,l),
(368,774,l),
(368,634,l),
(859,634,l)
);
},
{
closed = 1;
nodes = (
(808,774,l),
(808,740,ls),
(801,297,o),
(793,115,o),
(764,80,cs),
(753,65,o),
(743,60,o),
(725,60,cs),
(699,60,o),
(653,60,o),
(599,64,c),
(626,20,o),
(646,-48,o),
(648,-90,c),
(704,-92,o),
(761,-92,o),
(799,-84,cs),
(842,-75,o),
(870,-60,o),
(901,-14,cs),
(940,43,o),
(948,219,o),
(957,703,cs),
(957,722,o),
(958,774,o),
(958,774,c)
);
},
{
closed = 1;
nodes = (
(563,712,l),
(556,461,o),
(568,177,o),
(305,18,c),
(344,-11,o),
(386,-60,o),
(408,-99,c),
(699,91,o),
(709,416,o),
(715,712,c)
);
},
{
closed = 1;
nodes = (
(400,566,l),
(390,464,o),
(349,359,o),
(299,310,c),
(421,239,l),
(469,290,o),
(513,411,o),
(527,532,c)
);
},
{
closed = 1;
nodes = (
(242,853,l),
(186,720,o),
(92,580,o),
(9,490,c),
(32,454,o),
(72,372,o),
(85,337,c),
(187,454,o),
(303,644,o),
(375,804,c)
);
},
{
closed = 1;
nodes = (
(148,-95,l),
(288,-95,l),
(288,700,l),
(288,701,l),
(148,563,l)
);
}
);
vertWidth = 1000;
width = 1000;
}
);
note = cid09826;
unicode = 20190;
}
{
glyphname = uni4EDF;
layers = (
{
layerId = m01;
shapes = (
{
closed = 1;
nodes = (
(950,423,l),
(305,423,l),
(305,393,l),
(950,393,l)
);
},
{
closed = 1;
nodes = (
(864,789,l),
(751,744,o),
(525,704,o),
(340,678,c),
(344,671,o),
(348,662,o),
(350,655,c),
(539,679,o),
(763,719,o),
(891,767,c)
);
},
{
closed = 1;
nodes = (
(641,715,l),
(612,715,l),
(612,-70,l),
(641,-70,l)
);
},
{
closed = 1;
nodes = (
(323,823,l),
(255,657,o),
(145,497,o),
(29,393,c),
(36,387,o),
(47,376,o),
(51,370,c),
(168,480,o),
(278,641,o),
(350,816,c)
);
},
{
closed = 1;
nodes = (
(205,-68,l),
(234,-68,l),
(234,609,l),
(234,610,l),
(205,580,l)
);
}
);
vertWidth = 1000;
width = 1000;
},
{
layerId = "94DDBC6A-1627-4027-9125-871D02041BCD";
shapes = (
{
closed = 1;
nodes = (
(975,461,l),
(335,461,l),
(335,317,l),
(975,317,l)
);
},
{
closed = 1;
nodes = (
(836,832,l),
(719,789,o),
(534,750,o),
(357,732,c),
(374,699,o),
(394,642,o),
(400,607,c),
(589,625,o),
(801,666,o),
(948,713,c)
);
},
{
closed = 1;
nodes = (
(735,715,l),
(587,715,l),
(587,-95,l),
(735,-95,l)
);
},
{
closed = 1;
nodes = (
(250,850,l),
(196,707,o),
(103,564,o),
(6,475,c),
(33,438,o),
(76,356,o),
(91,319,c),
(209,436,o),
(325,627,o),
(395,803,c)
);
},
{
closed = 1;
nodes = (
(156,-94,l),
(300,-94,l),
(300,689,l),
(298,691,l),
(156,549,l)
);
}
);
vertWidth = 1000;
width = 1000;
}
);
note = cid09828;
unicode = 20191;
}
{
glyphname = uni4EF6;
layers = (
{
layerId = m01;
shapes = (
{
closed = 1;
nodes = (
(640,819,l),
(611,819,l),
(611,-71,l),
(640,-71,l)
);
},
{
closed = 1;
nodes = (
(441,782,l),
(411,646,o),
(362,517,o),
(295,431,c),
(303,428,o),
(315,418,o),
(319,413,c),
(385,502,o),
(436,632,o),
(469,776,c)
);
},
{
closed = 1;
nodes = (
(910,615,l),
(407,615,l),
(399,585,l),
(910,585,l)
);
},
{
closed = 1;
nodes = (
(950,317,l),
(282,317,l),
(282,287,l),
(950,287,l)
);
},
{
closed = 1;
nodes = (
(293,827,l),
(236,667,o),
(144,509,o),
(45,405,c),
(52,399,o),
(63,387,o),
(67,381,c),
(168,492,o),
(260,651,o),
(322,819,c)
);
},
{
closed = 1;
nodes = (
(190,-70,l),
(220,-70,l),
(220,615,l),
(218,616,l),
(190,588,l)
);
}
);
vertWidth = 1000;
width = 1000;
},
{
layerId = "94DDBC6A-1627-4027-9125-871D02041BCD";
shapes = (
{
closed = 1;
nodes = (
(730,841,l),
(583,841,l),
(583,-95,l),
(730,-95,l)
);
},
{
closed = 1;
nodes = (
(409,797,l),
(387,679,o),
(345,552,o),
(293,476,c),
(327,461,o),
(391,428,o),
(419,407,c),
(471,494,o),
(521,634,o),
(549,768,c)
);
},
{
closed = 1;
nodes = (
(944,667,l),
(464,667,l),
(428,525,l),
(944,525,l)
);
},
{
closed = 1;
nodes = (
(984,379,l),
(316,379,l),
(316,237,l),
(984,237,l)
);
},
{
closed = 1;
nodes = (
(228,851,l),
(180,714,o),
(97,576,o),
(11,488,c),
(35,452,o),
(74,371,o),
(87,336,c),
(196,451,o),
(301,638,o),
(365,808,c)
);
},
{
closed = 1;
nodes = (
(140,-94,l),
(278,-94,l),
(278,701,l),
(278,702,l),
(140,564,l)
);
}
);
vertWidth = 1000;
width = 1000;
}
);
note = cid09862;
unicode = 20214;
}
{
glyphname = uni4F0F;
layers = (
{
layerId = m01;
shapes = (
{
closed = 1;
nodes = (
(303,827,l),
(241,666,o),
(141,508,o),
(35,405,c),
(41,400,o),
(52,387,o),
(56,381,c),
(164,491,o),
(265,650,o),
(331,819,c)
);
},
{
closed = 1;
nodes = (
(197,-70,l),
(227,-70,l),
(227,615,l),
(225,616,l),
(197,588,l)
);
},
{
closed = 1;
nodes = (
(945,519,l),
(289,519,l),
(289,489,l),
(945,489,l)
);
},
{
closed = 1;
nodes = (
(598,505,l),
(627,223,o),
(747,17,o),
(932,-71,c),
(938,-63,o),
(947,-52,o),
(954,-46,c),
(774,35,o),
(656,234,o),
(625,509,c)
);
},
{
closed = 1;
nodes = (
(719,783,l),
(780,730,o),
(851,656,o),
(884,607,c),
(908,627,l),
(874,675,o),
(803,749,o),
(741,800,c)
);
},
{
closed = 1;
nodes = (
(620,829,l),
(591,829,l),
(591,618,ls),
(591,410,o),
(570,108,o),
(281,-48,c),
(289,-53,o),
(300,-63,o),
(305,-69,c),
(596,95,o),
(620,397,o),
(620,618,cs)
);
}
);
vertWidth = 1000;
width = 1000;
},
{
layerId = "94DDBC6A-1627-4027-9125-871D02041BCD";
shapes = (
{
closed = 1;
nodes = (
(235,857,l),
(187,717,o),
(104,575,o),
(17,486,c),
(41,449,o),
(81,366,o),
(95,330,c),
(205,448,o),
(311,640,o),
(375,813,c)
);
},
{
closed = 1;
nodes = (
(137,-96,l),
(283,-96,l),
(283,713,l),
(283,713,l),
(137,567,l)
);
},
{
closed = 1;
nodes = (
(955,586,l),
(320,586,l),
(320,442,l),
(955,442,l)
);
},
{
closed = 1;
nodes = (
(567,497,l),
(582,240,o),
(698,13,o),
(868,-92,c),
(892,-52,o),
(942,7,o),
(977,36,c),
(819,121,o),
(711,302,o),
(698,505,c)
);
},
{
closed = 1;
nodes = (
(720,767,l),
(763,717,o),
(815,648,o),
(836,603,c),
(950,677,l),
(926,722,o),
(871,787,o),
(827,833,c)
);
},
{
closed = 1;
nodes = (
(700,839,l),
(552,839,l),
(552,677,ls),
(552,298,o),
(490,134,o),
(302,20,c),
(336,-12,o),
(380,-58,o),
(402,-95,c),
(626,60,o),
(700,252,o),
(700,676,cs)
);
}
);
vertWidth = 1000;
width = 1000;
}
);
note = cid09899;
unicode = 20239;
}
{
glyphname = uni4F10;
layers = (
{
layerId = m01;
shapes = (
{
closed = 1;
nodes = (
(924,585,l),
(273,518,l),
(276,489,l),
(927,556,l)
);
},
{
closed = 1;
nodes = (
(543,820,l),
(551,330,o),
(677,-70,o),
(864,-71,cs),
(921,-70,o),
(938,-22,o),
(947,121,c),
(939,124,o),
(926,129,o),
(919,134,c),
(913,5,o),
(900,-41,o),
(866,-41,cs),
(710,-42,o),
(577,320,o),
(574,820,c)
);
},
{
closed = 1;
nodes = (
(834,465,l),
(729,238,o),
(538,71,o),
(302,-32,c),
(310,-38,o),
(321,-48,o),
(326,-54,c),
(559,55,o),
(751,220,o),
(861,456,c)
);
},
{
closed = 1;
nodes = (
(673,789,l),
(738,749,o),
(814,686,o),
(857,638,c),
(875,659,l),
(831,705,o),
(755,765,o),
(690,805,c)
);
},
{
closed = 1;
nodes = (
(288,822,l),
(228,658,o),
(130,497,o),
(24,392,c),
(31,386,o),
(41,375,o),
(45,369,c),
(152,480,o),
(251,642,o),
(317,815,c)
);
},
{
closed = 1;
nodes = (
(189,-70,l),
(219,-70,l),
(219,621,l),
(217,622,l),
(189,595,l)
);
}
);
vertWidth = 1000;
width = 1000;
},
{
layerId = "94DDBC6A-1627-4027-9125-871D02041BCD";
shapes = (
{
closed = 1;
nodes = (
(944,644,l),
(316,584,l),
(328,447,l),
(955,509,l)
);
},
{
closed = 1;
nodes = (
(502,843,l),
(504,395,o),
(578,-97,o),
(808,-97,cs),
(914,-97,o),
(962,-52,o),
(984,153,c),
(944,167,o),
(891,202,o),
(858,235,c),
(852,106,o),
(840,52,o),
(819,52,cs),
(731,52,o),
(645,460,o),
(655,843,c)
);
},
{
closed = 1;
nodes = (
(796,463,l),
(707,269,o),
(528,120,o),
(313,36,c),
(343,7,o),
(392,-55,o),
(412,-88,c),
(633,17,o),
(828,190,o),
(939,417,c)
);
},
{
closed = 1;
nodes = (
(677,777,l),
(731,737,o),
(792,680,o),
(824,639,c),
(925,728,l),
(890,768,o),
(827,820,o),
(773,856,c)
);
},
{
closed = 1;
nodes = (
(245,856,l),
(193,713,o),
(103,570,o),
(10,481,c),
(35,446,o),
(77,366,o),
(91,331,c),
(206,448,o),
(317,637,o),
(385,812,c)
);
},
{
closed = 1;
nodes = (
(147,-95,l),
(294,-95,l),
(294,690,l),
(292,692,l),
(147,547,l)
);
}
);
vertWidth = 1000;
width = 1000;
}
);
note = cid09900;
unicode = 20240;
}
{
glyphname = uni4F2F;
layers = (
{
layerId = m01;
shapes = (
{
closed = 1;
nodes = (
(901,645,l),
(382,645,l),
(382,-69,l),
(411,-69,l),
(411,616,l),
(871,616,l),
(871,-63,l),
(901,-63,l)
);
},
{
closed = 1;
nodes = (
(631,831,l),
(617,772,o),
(589,682,o),
(565,629,c),
(592,621,l),
(614,673,o),
(642,757,o),
(663,822,c)
);
},
{
closed = 1;
nodes = (
(895,331,l),
(389,331,l),
(389,302,l),
(895,302,l)
);
},
{
closed = 1;
nodes = (
(895,6,l),
(389,6,l),
(389,-23,l),
(895,-23,l)
);
},
{
closed = 1;
nodes = (
(323,823,l),
(255,657,o),
(145,497,o),
(29,393,c),
(36,387,o),
(47,376,o),
(51,370,c),
(168,480,o),
(278,641,o),
(350,816,c)
);
},
{
closed = 1;
nodes = (
(205,-70,l),
(234,-70,l),
(234,607,l),
(234,608,l),
(205,578,l)
);
}
);
vertWidth = 1000;
width = 1000;
},
{
layerId = "94DDBC6A-1627-4027-9125-871D02041BCD";
shapes = (
{
closed = 1;
nodes = (
(930,679,l),
(387,679,l),
(387,-93,l),
(532,-93,l),
(532,542,l),
(778,542,l),
(778,-85,l),
(930,-85,l)
);
},
{
closed = 1;
nodes = (
(585,856,l),
(572,782,o),
(545,687,o),
(517,621,c),
(652,592,l),
(684,651,o),
(724,740,o),
(758,829,c)
);
},
{
closed = 1;
nodes = (
(835,393,l),
(461,393,l),
(461,250,l),
(835,250,l)
);
},
{
closed = 1;
nodes = (
(835,102,l),
(461,102,l),
(461,-44,l),
(835,-44,l)
);
},
{
closed = 1;
nodes = (
(250,853,l),
(196,710,o),
(103,567,o),
(6,478,c),
(33,441,o),
(76,359,o),
(91,322,c),
(209,439,o),
(325,630,o),
(395,806,c)
);
},
{
closed = 1;
nodes = (
(156,-95,l),
(300,-95,l),
(300,688,l),
(298,690,l),
(156,548,l)
);
}
);
vertWidth = 1000;
width = 1000;
}
);
note = cid09940;
unicode = 20271;
}
{
glyphname = uni4F43;
layers = (
{
layerId = m01;
shapes = (
{
closed = 1;
nodes = (
(904,18,l),
(380,18,l),
(380,-12,l),
(904,-12,l)
);
},
{
closed = 1;
nodes = (
(904,398,l),
(380,398,l),
(380,369,l),
(904,369,l)
);
},
{
closed = 1;
nodes = (
(648,753,l),
(619,753,l),
(619,-5,l),
(648,-5,l)
);
},
{
closed = 1;
nodes = (
(916,762,l),
(363,762,l),
(363,-70,l),
(392,-70,l),
(392,733,l),
(885,733,l),
(885,-63,l),
(916,-63,l)
);
},
{
closed = 1;
nodes = (
(291,827,l),
(230,666,o),
(130,508,o),
(23,405,c),
(30,400,o),
(40,387,o),
(44,381,c),
(152,491,o),
(253,650,o),
(320,819,c)
);
},
{
closed = 1;
nodes = (
(180,-70,l),
(209,-70,l),
(209,613,l),
(207,614,l),
(180,586,l)
);
}
);
vertWidth = 1000;
width = 1000;
},
{
layerId = "94DDBC6A-1627-4027-9125-871D02041BCD";
shapes = (
{
closed = 1;
nodes = (
(879,109,l),
(437,109,l),
(437,-32,l),
(879,-32,l)
);
},
{
closed = 1;
nodes = (
(874,452,l),
(441,452,l),
(441,312,l),
(874,312,l)
);
},
{
closed = 1;
nodes = (
(716,714,l),
(575,714,l),
(575,35,l),
(716,35,l)
);
},
{
closed = 1;
nodes = (
(946,786,l),
(356,786,l),
(356,-95,l),
(494,-95,l),
(494,645,l),
(800,645,l),
(800,-86,l),
(946,-86,l)
);
},
{
closed = 1;
nodes = (
(222,851,l),
(174,714,o),
(91,576,o),
(5,488,c),
(29,452,o),
(68,371,o),
(81,336,c),
(190,451,o),
(295,638,o),
(359,808,c)
);
},
{
closed = 1;
nodes = (
(130,-94,l),
(268,-94,l),
(268,701,l),
(268,702,l),
(130,564,l)
);
}
);
vertWidth = 1000;
width = 1000;
}
);
note = cid09966;
unicode = 20291;
}
{
glyphname = uni4F53;
layers = (
{
layerId = m01;
shapes = (
{
closed = 1;
nodes = (
(291,827,l),
(230,666,o),
(130,508,o),
(23,405,c),
(30,400,o),
(40,387,o),
(44,381,c),
(152,491,o),
(253,650,o),
(320,819,c)
);
},
{
closed = 1;
nodes = (
(180,-68,l),
(209,-68,l),
(209,615,l),
(207,616,l),
(180,588,l)
);
},
{
closed = 1;
nodes = (
(624,821,l),
(595,821,l),
(595,-74,l),
(624,-74,l)
);
},
{
closed = 1;
nodes = (
(947,597,l),
(284,597,l),
(284,567,l),
(947,567,l)
);
},
{
closed = 1;
nodes = (
(803,163,l),
(410,163,l),
(410,133,l),
(803,133,l)
);
},
{
closed = 1;
nodes = (
(626,578,l),
(690,385,o),
(810,192,o),
(934,99,c),
(941,107,o),
(951,118,o),
(959,123,c),
(834,209,o),
(715,399,o),
(654,587,c)
);
},
{
closed = 1;
nodes = (
(569,586,l),
(504,399,o),
(380,207,o),
(260,119,c),
(267,114,o),
(277,104,o),
(281,96,c),
(402,193,o),
(527,384,o),
(594,577,c)
);
}
);
vertWidth = 1000;
width = 1000;
},
{
layerId = "94DDBC6A-1627-4027-9125-871D02041BCD";
shapes = (
{
closed = 1;
nodes = (
(222,851,l),
(174,714,o),
(91,576,o),
(5,488,c),
(29,452,o),
(68,371,o),
(81,336,c),
(190,451,o),
(295,638,o),
(359,808,c)
);
},
{
closed = 1;
nodes = (
(130,-94,l),
(268,-94,l),
(268,701,l),
(268,702,l),
(130,564,l)
);
},
{
closed = 1;
nodes = (
(700,842,l),
(558,842,l),
(558,-95,l),
(700,-95,l)
);
},
{
closed = 1;
nodes = (
(964,645,l),
(320,645,l),
(320,507,l),
(964,507,l)
);
},
{
closed = 1;
nodes = (
(819,201,l),
(445,201,l),
(445,72,l),
(819,72,l)
);
},
{
closed = 1;
nodes = (
(647,540,l),
(696,361,o),
(788,173,o),
(890,61,c),
(915,98,o),
(962,148,o),
(996,174,c),
(894,266,o),
(797,424,o),
(746,570,c)
);
},
{
closed = 1;
nodes = (
(514,571,l),
(465,415,o),
(368,259,o),
(261,166,c),
(292,141,o),
(339,91,o),
(362,58,c),
(472,171,o),
(563,352,o),
(616,542,c)
);
}
);
vertWidth = 1000;
width = 1000;
}
);
note = cid09990;
unicode = 20307;
}
{
glyphname = uni4F70;
layers = (
{
layerId = m01;
shapes = (
{
closed = 1;
nodes = (
(284,827,l),
(232,647,o),
(143,485,o),
(30,381,c),
(37,376,o),
(47,363,o),
(52,357,c),
(166,469,o),
(257,632,o),
(313,820,c)
);
},
{
closed = 1;
nodes = (
(187,-73,l),
(217,-73,l),
(217,587,l),
(215,588,l),
(187,560,l)
);
},
{
closed = 1;
nodes = (
(949,779,l),
(335,779,l),
(335,750,l),
(949,750,l)
);
},
{
closed = 1;
nodes = (
(625,772,l),
(610,707,o),
(582,605,o),
(560,546,c),
(585,538,l),
(608,596,o),
(635,692,o),
(656,765,c)
);
},
{
closed = 1;
nodes = (
(889,563,l),
(399,563,l),
(399,-68,l),
(429,-68,l),
(429,533,l),
(859,533,l),
(859,-63,l),
(889,-63,l)
);
},
{
closed = 1;
nodes = (
(872,300,l),
(415,300,l),
(415,271,l),
(872,271,l)
);
},
{
closed = 1;
nodes = (
(872,32,l),
(415,32,l),
(415,2,l),
(872,2,l)
);
}
);
vertWidth = 1000;
width = 1000;
},
{
layerId = "94DDBC6A-1627-4027-9125-871D02041BCD";
shapes = (
{
closed = 1;
nodes = (
(221,853,l),
(179,688,o),
(108,534,o),
(12,439,c),
(35,402,o),
(70,321,o),
(81,284,c),
(205,409,o),
(301,614,o),
(358,816,c)
);
},
{
closed = 1;
nodes = (
(149,-100,l),
(287,-100,l),
(287,703,l),
(287,704,l),
(149,566,l)
);
},
{
closed = 1;
nodes = (
(963,803,l),
(363,803,l),
(363,667,l),
(963,667,l)
);
},
{
closed = 1;
nodes = (
(579,728,l),
(574,659,o),
(558,569,o),
(542,505,c),
(674,485,l),
(696,542,o),
(724,627,o),
(747,713,c)
);
},
{
closed = 1;
nodes = (
(931,558,l),
(397,558,l),
(397,-94,l),
(534,-94,l),
(534,425,l),
(787,425,l),
(787,-88,l),
(931,-88,l)
);
},
{
closed = 1;
nodes = (
(823,320,l),
(483,320,l),
(483,189,l),
(823,189,l)
);
},
{
closed = 1;
nodes = (
(820,88,l),
(471,88,l),
(471,-45,l),
(820,-45,l)
);
}
);
vertWidth = 1000;
width = 1000;
}
);
note = cid10034;
unicode = 20336;
}
{
glyphname = uni4F73;
layers = (
{
layerId = m01;
shapes = (
{
closed = 1;
nodes = (
(299,827,l),
(236,667,o),
(134,511,o),
(27,410,c),
(34,404,o),
(44,391,o),
(49,385,c),
(157,494,o),
(260,651,o),
(328,819,c)
);
},
{
closed = 1;
nodes = (
(187,-68,l),
(217,-68,l),
(217,615,l),
(215,616,l),
(187,588,l)
);
},
{
closed = 1;
nodes = (
(893,679,l),
(356,679,l),
(356,650,l),
(893,650,l)
);
},
{
closed = 1;
nodes = (
(908,247,l),
(335,247,l),
(335,218,l),
(908,218,l)
);
},
{
closed = 1;
nodes = (
(939,456,l),
(305,456,l),
(305,426,l),
(939,426,l)
);
},
{
closed = 1;
nodes = (
(951,2,l),
(278,2,l),
(278,-27,l),
(951,-27,l)
);
},
{
closed = 1;
nodes = (
(635,821,l),
(606,821,l),
(606,440,l),
(635,440,l)
);
},
{
closed = 1;
nodes = (
(635,406,l),
(606,406,l),
(606,-16,l),
(635,-16,l)
);
}
);
vertWidth = 1000;
width = 1000;
},
{
layerId = "94DDBC6A-1627-4027-9125-871D02041BCD";
shapes = (
{
closed = 1;
nodes = (
(228,851,l),
(180,714,o),
(97,576,o),
(11,488,c),
(35,452,o),
(74,371,o),
(86,336,c),
(195,451,o),
(300,638,o),
(364,808,c)
);
},
{
closed = 1;
nodes = (
(130,-94,l),
(274,-94,l),
(274,707,l),
(274,708,l),
(130,564,l)
);
},
{
closed = 1;
nodes = (
(913,755,l),
(377,755,l),
(377,620,l),
(913,620,l)
);
},
{
closed = 1;
nodes = (
(934,304,l),
(357,304,l),
(357,167,l),
(934,167,l)
);
},
{
closed = 1;
nodes = (
(958,537,l),
(332,537,l),
(332,400,l),
(958,400,l)
);
},
{
closed = 1;
nodes = (
(975,74,l),
(304,74,l),
(304,-66,l),
(975,-66,l)
);
},
{
closed = 1;
nodes = (
(716,855,l),
(568,855,l),
(568,454,l),
(716,454,l)
);
},
{
closed = 1;
nodes = (
(716,390,l),
(568,390,l),
(568,-28,l),
(716,-28,l)
);
}
);
vertWidth = 1000;
width = 1000;
}
);
note = cid10038;
unicode = 20339;
}
{
glyphname = uni4F7B;
layers = (
{
layerId = m01;
shapes = (
{
closed = 1;
nodes = (
(700,817,l),
(670,817,l),
(670,15,ls),
(670,-46,o),
(687,-59,o),
(743,-59,cs),
(756,-59,o),
(867,-59,o),
(881,-59,cs),
(939,-59,o),
(947,-18,o),
(951,106,c),
(942,108,o),
(930,113,o),
(921,121,c),
(918,2,o),
(913,-29,o),
(882,-29,cs),
(858,-29,o),
(760,-29,o),
(743,-29,cs),
(707,-29,o),
(700,-21,o),
(700,14,cs)
);
},
{
closed = 1;
nodes = (
(309,653,l),
(354,591,o),
(398,507,o),
(413,453,c),
(441,468,l),
(425,521,o),
(380,603,o),
(336,664,c)
);
},
{
closed = 1;
nodes = (
(697,338,l),
(779,290,o),
(878,219,o),
(929,175,c),
(945,199,l),
(895,243,o),
(795,311,o),
(715,357,c)
);
},
{
closed = 1;
nodes = (
(304,184,l),
(366,221,o),
(442,265,o),
(515,309,c),
(508,333,l),
(426,286,o),
(343,239,o),
(286,211,c)
);
},
{
closed = 1;
nodes = (
(888,671,l),
(856,608,o),
(797,515,o),
(753,461,c),
(775,446,l),
(819,499,o),
(875,586,o),
(916,654,c)
);
},
{
closed = 1;
nodes = (
(523,817,l),
(494,817,l),
(494,381,ls),
(494,202,o),
(468,52,o),
(267,-55,c),
(275,-60,o),
(285,-70,o),
(289,-76,c),
(495,36,o),
(523,190,o),
(523,381,cs)
);
},
{
closed = 1;
nodes = (
(279,830,l),
(222,670,o),
(130,512,o),
(31,408,c),
(38,402,o),
(49,390,o),
(53,384,c),
(154,495,o),
(246,654,o),
(308,822,c)
);
},
{
closed = 1;
nodes = (
(180,-70,l),
(209,-70,l),
(209,615,l),
(207,616,l),
(180,588,l)
);
}
);
vertWidth = 1000;
width = 1000;
},
{
layerId = "94DDBC6A-1627-4027-9125-871D02041BCD";
shapes = (
{
closed = 1;
nodes = (
(791,845,l),
(652,845,l),
(652,95,ls),
(652,-49,o),
(679,-92,o),
(779,-92,cs),
(798,-92,o),
(839,-92,o),
(858,-92,cs),
(944,-92,o),
(977,-36,o),
(990,103,c),
(951,112,o),
(899,137,o),
(868,161,c),
(864,65,o),
(861,37,o),
(845,37,cs),
(839,37,o),
(814,37,o),
(808,37,cs),
(793,37,o),
(791,43,o),
(791,94,cs)
);
},
{
closed = 1;
nodes = (
(285,659,l),
(321,589,o),
(357,498,o),
(368,440,c),
(496,493,l),
(483,552,o),
(442,639,o),
(404,706,c)
);
},
{
closed = 1;
nodes = (
(726,338,l),
(786,287,o),
(863,214,o),
(897,166,c),
(991,267,l),
(954,314,o),
(873,382,o),
(814,428,c)
);
},
{
closed = 1;
nodes = (
(342,157,l),
(399,195,o),
(462,240,o),
(520,284,c),
(480,401,l),
(404,360,o),
(326,319,o),
(274,296,c)
);
},
{
closed = 1;
nodes = (
(835,725,l),
(819,657,o),
(787,566,o),
(759,508,c),
(865,457,l),
(896,509,o),
(934,591,o),
(970,667,c)
);
},
{
closed = 1;
nodes = (
(598,845,l),
(458,845,l),
(458,390,ls),
(458,250,o),
(438,83,o),
(281,-4,c),
(313,-25,o),
(365,-72,o),
(388,-100,c),
(566,3,o),
(598,202,o),
(598,390,cs)
);
},
{
closed = 1;
nodes = (
(218,852,l),
(173,714,o),
(92,574,o),
(8,485,c),
(32,449,o),
(73,369,o),
(87,334,c),
(193,451,o),
(295,640,o),
(356,811,c)
);
},
{
closed = 1;
nodes = (
(130,-94,l),
(268,-94,l),
(268,701,l),
(268,702,l),
(130,564,l)
);
}
);
vertWidth = 1000;
width = 1000;
}
);
note = cid10050;
unicode = 20347;
}
{
glyphname = uni4F8D;
layers = (
{
layerId = m01;
shapes = (
{
closed = 1;
nodes = (
(897,685,l),
(347,685,l),
(347,656,l),
(897,656,l)
);
},
{
closed = 1;
nodes = (
(946,313,l),
(297,313,l),
(297,283,l),
(946,283,l)
);
},
{
closed = 1;
nodes = (
(952,490,l),
(281,490,l),
(281,461,l),
(952,461,l)
);
},
{
closed = 1;
nodes = (
(632,825,l),
(603,825,l),
(603,473,l),
(632,473,l)
);
},
{
closed = 1;
nodes = (
(785,468,l),
(756,468,l),
(756,-20,ls),
(756,-35,o),
(752,-39,o),
(734,-40,cs),
(717,-42,o),
(659,-42,o),
(583,-40,c),
(589,-50,o),
(594,-62,o),
(596,-70,c),
(680,-71,o),
(729,-71,o),
(754,-66,cs),
(777,-60,o),
(785,-48,o),
(785,-19,cs)
);
},
{
closed = 1;
nodes = (
(401,218,l),
(452,164,o),
(506,88,o),
(530,39,c),
(555,57,l),
(531,105,o),
(475,178,o),
(424,232,c)
);
},
{
closed = 1;
nodes = (
(293,827,l),
(231,666,o),
(132,508,o),
(25,405,c),
(32,400,o),
(42,387,o),
(46,381,c),
(154,491,o),
(255,650,o),
(322,819,c)
);
},
{
closed = 1;
nodes = (
(182,-70,l),
(211,-70,l),
(211,615,l),
(209,616,l),
(182,588,l)
);
}
);
vertWidth = 1000;
width = 1000;
},
{
layerId = "94DDBC6A-1627-4027-9125-871D02041BCD";
shapes = (
{
closed = 1;
nodes = (
(932,750,l),
(365,750,l),
(365,619,l),
(932,619,l)
);
},
{
closed = 1;
nodes = (
(968,361,l),
(318,361,l),
(318,230,l),
(968,230,l)
);
},
{
closed = 1;
nodes = (
(978,554,l),
(309,554,l),
(309,422,l),
(978,422,l)
);
},
{
closed = 1;
nodes = (
(717,851,l),
(568,851,l),
(568,486,l),
(717,486,l)
);
},
{
closed = 1;
nodes = (
(856,443,l),
(707,443,l),
(707,54,ls),
(707,41,o),
(702,38,o),
(686,38,cs),
(670,37,o),
(613,37,o),
(570,40,c),
(589,2,o),
(608,-56,o),
(614,-96,c),
(691,-96,o),
(751,-94,o),
(797,-73,cs),
(844,-52,o),
(856,-17,o),
(856,51,cs)
);
},
{
closed = 1;
nodes = (
(363,175,l),
(406,121,o),
(455,46,o),
(473,-2,c),
(607,68,l),
(586,118,o),
(533,187,o),
(488,238,c)
);
},
{
closed = 1;
nodes = (
(228,851,l),
(180,714,o),
(97,576,o),
(11,488,c),
(35,452,o),
(74,371,o),
(87,336,c),
(196,451,o),
(301,638,o),
(365,808,c)
);
},
{
closed = 1;
nodes = (
(130,-94,l),
(268,-94,l),
(268,701,l),
(268,702,l),
(130,564,l)
);
}
);
vertWidth = 1000;
width = 1000;
}
);
note = cid10082;
unicode = 20365;
}
{
glyphname = uni4F91;
layers = (
{
layerId = m01;
shapes = (
{
closed = 1;
nodes = (
(299,827,l),
(238,666,o),
(138,508,o),
(31,405,c),
(38,400,o),
(48,387,o),
(52,381,c),
(160,491,o),
(261,650,o),
(328,819,c)
);
},
{
closed = 1;
nodes = (
(188,-70,l),
(217,-70,l),
(217,615,l),
(215,616,l),
(188,588,l)
);
},
{
closed = 1;
nodes = (
(950,678,l),
(300,678,l),
(300,649,l),
(950,649,l)
);
},
{
closed = 1;
nodes = (
(583,827,l),
(527,620,o),
(407,423,o),
(271,317,c),
(279,312,o),
(292,301,o),
(297,296,c),
(432,406,o),
(554,608,o),
(613,820,c)
);
},
{
closed = 1;
nodes = (
(876,514,l),
(846,514,l),
(846,-20,ls),
(846,-35,o),
(841,-39,o),
(826,-40,cs),
(809,-41,o),
(754,-42,o),
(683,-40,c),
(688,-50,o),
(694,-62,o),
(696,-70,c),
(776,-70,o),
(823,-70,o),
(846,-64,cs),
(869,-59,o),
(876,-47,o),
(876,-19,cs)
);
},
{
closed = 1;
nodes = (
(864,350,l),
(472,350,l),
(472,321,l),
(864,321,l)
);
},
{
closed = 1;
nodes = (
(864,182,l),
(472,182,l),
(472,152,l),
(864,152,l)
);
},
{
closed = 1;
nodes = (
(864,514,l),
(453,514,l),
(453,-71,l),
(482,-71,l),
(482,484,l),
(864,484,l)
);
}
);
vertWidth = 1000;
width = 1000;
},
{
layerId = "94DDBC6A-1627-4027-9125-871D02041BCD";
shapes = (
{
closed = 1;
nodes = (
(232,851,l),
(184,714,o),
(101,576,o),
(15,488,c),
(39,452,o),
(78,371,o),
(91,336,c),
(200,451,o),
(305,638,o),
(369,808,c)
);
},
{
closed = 1;
nodes = (
(150,-95,l),
(288,-95,l),
(288,700,l),
(288,701,l),
(150,563,l)
);
},
{
closed = 1;
nodes = (
(976,728,l),
(339,728,l),
(339,594,l),
(976,594,l)
);
},
{
closed = 1;
nodes = (
(535,856,l),
(496,644,o),
(413,466,o),
(273,365,c),
(303,338,o),
(357,279,o),
(377,250,c),
(530,376,o),
(629,584,o),
(681,831,c)
);
},
{
closed = 1;
nodes = (
(919,534,l),
(777,534,l),
(777,53,ls),
(777,41,o),
(773,37,o),
(760,37,cs),
(747,37,o),
(705,36,o),
(673,38,c),
(690,3,o),
(707,-55,o),
(712,-94,c),
(779,-94,o),
(829,-92,o),
(869,-71,cs),
(908,-49,o),
(919,-13,o),
(919,50,cs)
);
},
{
closed = 1;
nodes = (
(857,369,l),
(546,369,l),
(546,251,l),
(857,251,l)
);
},
{
closed = 1;
nodes = (
(858,206,l),
(551,206,l),
(551,85,l),
(858,85,l)
);
},
{
closed = 1;
nodes = (
(845,534,l),
(444,534,l),
(444,-95,l),
(584,-95,l),
(584,410,l),
(845,410,l)
);
}
);
vertWidth = 1000;
width = 1000;
}
);
note = cid10087;
unicode = 20369;
}
{
glyphname = uni4F9B;
layers = (
{
layerId = m01;
shapes = (
{
closed = 1;
nodes = (
(295,827,l),
(233,666,o),
(133,508,o),
(27,405,c),
(34,400,o),
(44,387,o),
(48,381,c),
(156,491,o),
(257,650,o),
(324,819,c)
);
},
{
closed = 1;
nodes = (
(188,-70,l),
(218,-70,l),
(218,613,l),
(216,614,l),
(188,586,l)
);
},
{
closed = 1;
nodes = (
(938,593,l),
(309,593,l),
(309,564,l),
(938,564,l)
);
},
{
closed = 1;
nodes = (
(952,265,l),
(278,265,l),
(278,235,l),
(952,235,l)
);
},
{
closed = 1;
nodes = (
(486,817,l),
(456,817,l),
(456,246,l),
(486,246,l)
);
},
{
closed = 1;
nodes = (
(773,817,l),
(744,817,l),
(744,246,l),
(773,246,l)
);
},
{
closed = 1;
nodes = (
(491,166,l),
(442,85,o),
(364,2,o),
(288,-50,c),
(295,-55,o),
(305,-64,o),
(310,-71,c),
(388,-16,o),
(469,72,o),
(520,157,c)
);
},
{
closed = 1;
nodes = (
(708,152,l),
(782,85,o),
(864,-10,o),
(903,-70,c),
(927,-50,l),
(889,10,o),
(804,102,o),
(731,168,c)
);
}
);
vertWidth = 1000;
width = 1000;
},
{
layerId = "94DDBC6A-1627-4027-9125-871D02041BCD";
shapes = (
{
closed = 1;
nodes = (
(242,853,l),
(190,715,o),
(100,577,o),
(8,491,c),
(32,455,o),
(70,374,o),
(83,339,c),
(197,453,o),
(309,639,o),
(377,809,c)
);
},
{
closed = 1;
nodes = (
(146,-95,l),
(288,-95,l),
(288,700,l),
(288,701,l),
(146,563,l)
);
},
{
closed = 1;
nodes = (
(955,650,l),
(352,650,l),
(352,516,l),
(955,516,l)
);
},
{
closed = 1;
nodes = (
(975,332,l),
(327,332,l),
(327,195,l),
(975,195,l)
);
},
{
closed = 1;
nodes = (
(588,836,l),
(447,836,l),
(447,255,l),
(588,255,l)
);
},
{
closed = 1;
nodes = (
(854,836,l),
(710,836,l),
(710,255,l),
(854,255,l)
);
},
{
closed = 1;
nodes = (
(477,176,l),
(438,111,o),
(372,43,o),
(306,0,c),
(343,-25,o),
(395,-67,o),
(424,-96,c),
(501,-37,o),
(576,49,o),
(620,129,c)
);
},
{
closed = 1;
nodes = (
(682,119,l),
(745,56,o),
(813,-32,o),
(847,-96,c),
(983,-28,l),
(944,33,o),
(871,119,o),
(807,179,c)
);
}
);
vertWidth = 1000;
width = 1000;
}
);
note = cid10104;
unicode = 20379;
}
{
glyphname = uni4FC3;
layers = (
{
layerId = m01;
shapes = (
{
closed = 1;
nodes = (
(412,494,l),
(412,751,l),
(848,751,l),
(848,494,l)
);
},
{
closed = 1;
nodes = (
(877,780,l),
(382,780,l),
(382,465,l),
(877,465,l)
);
},
{
closed = 1;
nodes = (
(899,277,l),
(624,277,l),
(624,247,l),
(899,247,l)
);
},
{
closed = 1;
nodes = (
(640,474,l),
(611,474,l),
(611,-6,l),
(640,-19,l)
);
},
{
closed = 1;
nodes = (
(400,216,l),
(471,-8,o),
(613,-47,o),
(798,-47,cs),
(909,-47,l),
(944,-47,l),
(946,-39,o),
(952,-25,o),
(958,-17,c),
(932,-17,o),
(817,-17,o),
(799,-17,cs),
(629,-17,o),
(485,17,o),
(423,228,c)
);
},
{
closed = 1;
nodes = (
(416,343,l),
(396,171,o),
(350,33,o),
(256,-55,c),
(264,-59,o),
(277,-68,o),
(281,-73,c),
(375,21,o),
(425,158,o),
(446,340,c)
);
},
{
closed = 1;
nodes = (
(299,827,l),
(236,667,o),
(134,511,o),
(27,410,c),
(34,404,o),
(44,391,o),
(49,385,c),
(157,494,o),
(260,651,o),
(328,819,c)
);
},
{
closed = 1;
nodes = (
(187,-70,l),
(217,-70,l),
(217,618,l),
(215,619,l),
(187,591,l)
);
}
);
vertWidth = 1000;
width = 1000;
},
{
layerId = "94DDBC6A-1627-4027-9125-871D02041BCD";
shapes = (
{
closed = 1;
nodes = (
(526,562,l),
(526,689,l),
(773,689,l),
(773,562,l)
);
},
{
closed = 1;
nodes = (
(919,815,l),
(389,815,l),
(389,436,l),
(919,436,l)
);
},
{
closed = 1;
nodes = (
(932,335,l),
(648,335,l),
(648,200,l),
(932,200,l)
);
},
{
closed = 1;
nodes = (
(733,509,l),
(587,509,l),
(587,57,l),
(733,-5,l)
);
},
{
closed = 1;
nodes = (
(401,209,l),
(472,-23,o),
(599,-76,o),
(786,-76,cs),
(909,-76,l),
(944,-76,l),
(950,-37,o),
(969,28,o),
(987,59,c),
(939,58,o),
(834,57,o),
(798,57,cs),
(668,57,o),
(562,87,o),
(514,245,c)
);
},
{
closed = 1;
nodes = (
(397,373,l),
(388,213,o),
(351,71,o),
(278,-11,c),
(309,-29,o),
(369,-73,o),
(392,-96,c),
(471,6,o),
(518,168,o),
(535,360,c)
);
},
{
closed = 1;
nodes = (
(242,853,l),
(190,715,o),
(100,577,o),
(8,491,c),
(32,455,o),
(70,374,o),
(83,339,c),
(197,453,o),
(309,639,o),
(377,809,c)
);
},
{
closed = 1;
nodes = (
(150,-93,l),
(288,-93,l),
(288,702,l),
(288,703,l),
(150,565,l)
);
}
);
vertWidth = 1000;
width = 1000;
}
);
note = cid10170;
unicode = 20419;
}
{
glyphname = uni4FC4;
layers = (
{
layerId = m01;
shapes = (
{
closed = 1;
nodes = (
(256,822,l),
(203,659,o),
(118,498,o),
(24,392,c),
(31,386,o),
(41,375,o),
(45,369,c),
(141,482,o),
(228,644,o),
(284,816,c)
);
},
{
closed = 1;
nodes = (
(174,-71,l),
(203,-71,l),
(203,632,l),
(202,634,l),
(174,606,l)
);
},
{
closed = 1;
nodes = (
(601,791,l),
(526,754,o),
(385,714,o),
(266,687,c),
(270,679,o),
(276,669,o),
(278,662,c),
(399,690,o),
(540,727,o),
(628,768,c)
);
},
{
closed = 1;
nodes = (
(947,500,l),
(265,500,l),
(265,470,l),
(947,470,l)
);
},
{
closed = 1;
nodes = (
(476,727,l),
(446,727,l),
(446,-20,ls),
(446,-34,o),
(441,-38,o),
(427,-39,cs),
(413,-40,o),
(364,-40,o),
(306,-39,c),
(312,-48,o),
(317,-63,o),
(319,-70,c),
(384,-70,o),
(426,-70,o),
(446,-65,cs),
(467,-59,o),
(476,-48,o),
(476,-19,cs)
);
},
{
closed = 1;
nodes = (
(265,184,l),
(366,214,o),
(509,256,o),
(643,296,c),
(639,324,l),
(495,282,o),
(347,239,o),
(253,214,c)
);
},
{
closed = 1;
nodes = (
(673,812,l),
(679,285,o),
(740,-71,o),
(876,-71,cs),
(930,-71,o),
(944,-19,o),
(951,132,c),
(943,134,o),
(930,140,o),
(923,146,c),
(918,12,o),
(907,-41,o),
(878,-41,cs),
(775,-41,o),
(705,272,o),
(703,812,c)
);
},
{
closed = 1;
nodes = (
(880,407,l),
(807,231,o),
(683,78,o),
(538,-19,c),
(546,-25,o),
(558,-35,o),
(563,-40,c),
(704,63,o),
(830,216,o),
(909,399,c)
);
},
{
closed = 1;
nodes = (
(780,772,l),
(828,712,o),
(881,629,o),
(906,579,c),
(932,596,l),
(908,645,o),
(853,725,o),
(805,785,c)
);
}
);
vertWidth = 1000;
width = 1000;
},
{
layerId = "94DDBC6A-1627-4027-9125-871D02041BCD";
shapes = (
{
closed = 1;
nodes = (
(197,855,l),
(156,713,o),
(85,571,o),
(7,480,c),
(30,441,o),
(65,356,o),
(76,320,c),
(180,442,o),
(274,639,o),
(330,815,c)
);
},
{
closed = 1;
nodes = (
(118,-94,l),
(256,-94,l),
(256,696,l),
(252,698,l),
(118,564,l)
);
},
{
closed = 1;
nodes = (
(566,833,l),
(494,798,o),
(385,764,o),
(283,743,c),
(299,715,o),
(318,668,o),
(323,637,c),
(433,655,o),
(560,685,o),
(663,726,c)
);
},
{
closed = 1;
nodes = (
(975,557,l),
(285,557,l),
(285,433,l),
(975,433,l)
);
},
{
closed = 1;
nodes = (
(554,743,l),
(418,743,l),
(418,54,ls),
(418,39,o),
(413,35,o),
(398,35,cs),
(383,34,o),
(337,34,o),
(296,36,c),
(313,-1,o),
(331,-59,o),
(336,-96,c),
(410,-96,o),
(464,-92,o),
(503,-70,cs),
(543,-49,o),
(554,-14,o),
(554,52,cs)
);
},
{
closed = 1;
nodes = (
(306,144,l),
(409,169,o),
(540,199,o),
(660,230,c),
(646,359,l),
(512,330,o),
(369,300,o),
(274,284,c)
);
},
{
closed = 1;
nodes = (
(654,838,l),
(654,402,o),
(670,-98,o),
(853,-98,cs),
(940,-98,o),
(976,-60,o),
(994,94,c),
(962,110,o),
(919,141,o),
(892,174,c),
(890,82,o),
(882,40,o),
(871,40,cs),
(820,40,o),
(783,467,o),
(795,838,c)
);
},
{
closed = 1;
nodes = (
(844,408,l),
(789,247,o),
(681,112,o),
(543,33,c),
(570,10,o),
(616,-42,o),
(634,-69,c),
(780,28,o),
(901,186,o),
(971,376,c)
);
},
{
closed = 1;
nodes = (
(805,772,l),
(832,713,o),
(861,635,o),
(870,586,c),
(982,635,l),
(971,683,o),
(939,758,o),
(910,814,c)
);
}
);
vertWidth = 1000;
width = 1000;
}
);
note = cid10171;
unicode = 20420;
}
{
glyphname = uni4FCE;
layers = (
{
layerId = m01;
shapes = (
{
closed = 1;
nodes = (
(863,776,l),
(497,776,l),
(497,-25,l),
(526,-25,l),
(526,747,l),
(834,747,l),
(834,-25,l),
(863,-25,l)
);
},
{
closed = 1;
nodes = (
(218,619,l),
(288,566,o),
(372,489,o),
(412,440,c),
(434,462,l),
(393,510,o),
(310,584,o),
(239,637,c)
);
},
{
closed = 1;
nodes = (
(269,811,l),
(234,640,o),
(149,482,o),
(48,401,c),
(56,396,o),
(68,386,o),
(73,381,c),
(173,464,o),
(260,628,o),
(298,806,c)
);
},
{
closed = 1;
nodes = (
(226,227,l),
(295,173,o),
(375,101,o),
(415,53,c),
(436,75,l),
(397,122,o),
(317,192,o),
(247,245,c)
);
},
{
closed = 1;
nodes = (
(265,415,l),
(227,212,o),
(146,52,o),
(38,-31,c),
(45,-36,o),
(57,-46,o),
(62,-51,c),
(171,38,o),
(254,203,o),
(294,410,c)
);
},
{
closed = 1;
nodes = (
(845,518,l),
(509,518,l),
(509,488,l),
(845,488,l)
);
},
{
closed = 1;
nodes = (
(845,255,l),
(509,255,l),
(509,226,l),
(845,226,l)
);
},
{
closed = 1;
nodes = (
(960,-12,l),
(368,-12,l),
(368,-41,l),
(960,-41,l)
);
}
);
vertWidth = 1000;
width = 1000;
},
{
layerId = "94DDBC6A-1627-4027-9125-871D02041BCD";
shapes = (
{
closed = 1;
nodes = (
(916,808,l),
(468,808,l),
(468,-10,l),
(607,-10,l),
(607,674,l),
(770,674,l),
(770,-10,l),
(916,-10,l)
);
},
{
closed = 1;
nodes = (
(188,603,l),
(255,551,o),
(346,476,o),
(386,426,c),
(462,536,l),
(419,584,o),
(325,653,o),
(259,700,c)
);
},
{
closed = 1;
nodes = (
(208,831,l),
(180,680,o),
(118,546,o),
(19,468,c),
(49,449,o),
(104,405,o),
(126,382,c),
(228,477,o),
(301,630,o),
(339,809,c)
);
},
{
closed = 1;
nodes = (
(205,156,l),
(265,105,o),
(328,44,o),
(358,7,c),
(440,115,l),
(408,150,o),
(343,206,o),
(282,251,c)
);
},
{
closed = 1;
nodes = (
(200,422,l),
(170,259,o),
(97,103,o),
(10,17,c),
(41,-5,o),
(97,-53,o),
(120,-79,c),
(217,20,o),
(302,204,o),
(340,397,c)
);
},
{
closed = 1;
nodes = (
(847,564,l),
(540,564,l),
(540,437,l),
(847,437,l)
);
},
{
closed = 1;
nodes = (
(847,324,l),
(540,324,l),
(540,197,l),
(847,197,l)
);
},
{
closed = 1;
nodes = (
(975,76,l),
(385,76,l),
(385,-66,l),
(975,-66,l)
);
}
);
vertWidth = 1000;
width = 1000;
}
);
note = cid10189;
unicode = 20430;
}
{
glyphname = uni4FD0;
layers = (
{
layerId = m01;
shapes = (
{
closed = 1;
nodes = (
(721,726,l),
(692,726,l),
(692,148,l),
(721,148,l)
);
},
{
closed = 1;
nodes = (
(603,791,l),
(529,760,o),
(388,728,o),
(273,708,c),
(278,700,o),
(282,690,o),
(284,683,c),
(402,703,o),
(542,733,o),
(627,768,c)
);
},
{
closed = 1;
nodes = (
(650,511,l),
(261,511,l),
(261,481,l),
(650,481,l)
);
},
{
closed = 1;
nodes = (
(480,744,l),
(451,732,l),
(451,-70,l),
(480,-70,l)
);
},
{
closed = 1;
nodes = (
(447,501,l),
(408,345,o),
(320,174,o),
(235,90,c),
(242,84,o),
(251,74,o),
(257,66,c),
(343,155,o),
(432,335,o),
(474,492,c)
);
},
{
closed = 1;
nodes = (
(455,377,l),
(489,343,o),
(594,221,o),
(627,179,c),
(646,206,l),
(620,238,o),
(506,367,o),
(475,396,c)
);
},
{
closed = 1;
nodes = (
(912,813,l),
(882,813,l),
(882,-17,ls),
(882,-33,o),
(877,-37,o),
(862,-38,cs),
(846,-38,o),
(793,-39,o),
(731,-37,c),
(737,-47,o),
(742,-62,o),
(744,-71,c),
(815,-71,o),
(859,-70,o),
(880,-65,cs),
(902,-58,o),
(912,-47,o),
(912,-16,cs)
);
},
{
closed = 1;
nodes = (
(256,822,l),
(203,661,o),
(118,501,o),
(24,396,c),
(31,390,o),
(41,378,o),
(46,373,c),
(141,485,o),
(228,646,o),
(284,816,c)
);
},
{
closed = 1;
nodes = (
(174,-71,l),
(203,-71,l),
(203,632,l),
(202,634,l),
(174,606,l)
);
}
);
vertWidth = 1000;
width = 1000;
},
{
layerId = "94DDBC6A-1627-4027-9125-871D02041BCD";
shapes = (
{
closed = 1;
nodes = (
(775,729,l),
(653,729,l),
(653,144,l),
(775,144,l)
);
},
{
closed = 1;
nodes = (
(563,837,l),
(489,804,o),
(375,772,o),
(272,752,c),
(286,724,o),
(305,677,o),
(310,648,c),
(423,665,o),
(555,694,o),
(660,733,c)
);
},
{
closed = 1;
nodes = (
(635,565,l),
(283,565,l),
(283,436,l),
(635,436,l)
);
},
{
closed = 1;
nodes = (
(537,790,l),
(405,733,l),
(405,-91,l),
(537,-91,l)
);
},
{
closed = 1;
nodes = (
(417,521,l),
(387,419,o),
(315,274,o),
(246,189,c),
(268,152,o),
(301,93,o),
(314,52,c),
(395,157,o),
(468,342,o),
(510,482,c)
);
},
{
closed = 1;
nodes = (
(459,350,l),
(493,301,o),
(555,203,o),
(586,143,c),
(662,264,l),
(642,289,o),
(553,397,o),
(526,422,c)
);
},
{
closed = 1;
nodes = (
(945,840,l),
(814,840,l),
(814,52,ls),
(814,37,o),
(809,32,o),
(795,32,cs),
(780,32,o),
(736,32,o),
(696,34,c),
(713,-3,o),
(730,-60,o),
(734,-95,c),
(808,-95,o),
(860,-91,o),
(897,-70,cs),
(934,-49,o),
(945,-14,o),
(945,51,cs)
);
},
{
closed = 1;
nodes = (
(197,855,l),
(156,713,o),
(85,571,o),
(7,480,c),
(30,441,o),
(65,356,o),
(76,320,c),
(180,442,o),
(274,639,o),
(330,815,c)
);
},
{
closed = 1;
nodes = (
(118,-95,l),
(251,-95,l),
(251,691,l),
(248,693,l),
(118,563,l)
);
}
);
vertWidth = 1000;
width = 1000;
}
);
note = cid10193;
unicode = 20432;
}
{
glyphname = uni4FD1;
layers = (
{
layerId = m01;
shapes = (
{
closed = 1;
nodes = (
(291,827,l),
(230,666,o),
(130,508,o),
(23,405,c),
(30,400,o),
(40,387,o),
(44,381,c),
(152,491,o),
(253,650,o),
(320,819,c)
);
},
{
closed = 1;
nodes = (
(180,-68,l),
(209,-68,l),
(209,615,l),
(207,616,l),
(180,588,l)
);
},
{
closed = 1;
nodes = (
(858,789,l),
(360,789,l),
(360,760,l),
(858,760,l)
);
},
{
closed = 1;
nodes = (
(468,676,l),
(559,636,o),
(671,573,o),
(727,531,c),
(745,556,l),
(687,598,o),
(575,659,o),
(485,698,c)
);
},
{
closed = 1;
nodes = (
(891,544,l),
(348,544,l),
(348,-70,l),
(377,-70,l),
(377,515,l),
(891,515,l)
);
},
{
closed = 1;
nodes = (
(890,364,l),
(362,364,l),
(362,334,l),
(890,334,l)
);
},
{
closed = 1;
nodes = (
(890,177,l),
(362,177,l),
(362,148,l),
(890,148,l)
);
},
{
closed = 1;
nodes = (
(904,544,l),
(875,544,l),
(875,-20,ls),
(875,-35,o),
(871,-39,o),
(855,-40,cs),
(839,-41,o),
(787,-41,o),
(720,-40,c),
(725,-49,o),
(731,-61,o),
(733,-70,c),
(808,-70,o),
(853,-70,o),
(875,-64,cs),
(897,-59,o),
(904,-47,o),
(904,-19,cs)
);
},
{
closed = 1;
nodes = (
(636,534,l),
(607,534,l),
(607,-65,l),
(636,-65,l)
);
},
{
closed = 1;
nodes = (
(853,789,l),
(846,789,l),
(846,782,l),
(794,724,o),
(697,658,o),
(613,620,c),
(619,616,o),
(627,607,o),
(632,601,c),
(718,641,o),
(819,709,o),
(881,776,c),
(860,791,l)
);
}
);
vertWidth = 1000;
width = 1000;
},
{
layerId = "94DDBC6A-1627-4027-9125-871D02041BCD";
shapes = (
{
closed = 1;
nodes = (
(212,851,l),
(163,707,o),
(83,567,o),
(5,488,c),
(29,452,o),
(68,371,o),
(81,336,c),
(178,441,o),
(281,623,o),
(349,808,c)
);
},
{
closed = 1;
nodes = (
(130,-94,l),
(268,-94,l),
(268,701,l),
(268,702,l),
(130,564,l)
);
},
{
closed = 1;
nodes = (
(812,821,l),
(357,821,l),
(357,701,l),
(812,701,l)
);
},
{
closed = 1;
nodes = (
(438,598,l),
(542,569,o),
(682,514,o),
(750,474,c),
(820,583,l),
(746,623,o),
(603,672,o),
(503,695,c)
);
},
{
closed = 1;
nodes = (
(846,552,l),
(339,552,l),
(339,-94,l),
(476,-94,l),
(476,426,l),
(846,426,l)
);
},
{
closed = 1;
nodes = (
(851,381,l),
(424,381,l),
(424,259,l),
(851,259,l)
);
},
{
closed = 1;
nodes = (
(851,211,l),
(424,211,l),
(424,87,l),
(851,87,l)
);
},
{
closed = 1;
nodes = (
(944,552,l),
(802,552,l),
(802,48,ls),
(802,38,o),
(798,34,o),
(788,34,cs),
(778,34,o),
(747,34,o),
(722,35,c),
(740,1,o),
(758,-57,o),
(762,-94,c),
(819,-94,o),
(863,-92,o),
(899,-70,cs),
(935,-48,o),
(944,-13,o),
(944,46,cs)
);
},
{
closed = 1;
nodes = (
(705,486,l),
(567,486,l),
(567,-90,l),
(705,-90,l)
);
},
{
closed = 1;
nodes = (
(807,821,l),
(772,821,l),
(772,795,l),
(742,747,o),
(664,678,o),
(590,640,c),
(613,618,o),
(652,576,o),
(669,549,c),
(768,599,o),
(863,682,o),
(928,762,c),
(835,828,l)
);
}
);
vertWidth = 1000;
width = 1000;
}
);
note = cid10194;
unicode = 20433;
}
{
glyphname = uni4FDD;
layers = (
{
layerId = m01;
shapes = (
{
closed = 1;
nodes = (
(643,471,l),
(613,471,l),
(613,-71,l),
(643,-71,l)
);
},
{
closed = 1;
nodes = (
(946,329,l),
(292,329,l),
(292,300,l),
(946,300,l)
);
},
{
closed = 1;
nodes = (
(637,311,l),
(706,179,o),
(835,44,o),
(949,-21,c),
(954,-15,o),
(963,-5,o),
(970,1,c),
(856,61,o),
(728,191,o),
(663,322,c)
);
},
{
closed = 1;
nodes = (
(595,324,l),
(526,193,o),
(392,60,o),
(271,3,c),
(278,-3,o),
(286,-14,o),
(292,-21,c),
(413,42,o),
(548,178,o),
(619,313,c)
);
},
{
closed = 1;
nodes = (
(404,491,l),
(404,751,l),
(855,751,l),
(855,491,l)
);
},
{
closed = 1;
nodes = (
(884,780,l),
(375,780,l),
(375,461,l),
(884,461,l)
);
},
{
closed = 1;
nodes = (
(299,827,l),
(236,667,o),
(134,511,o),
(27,410,c),
(34,404,o),
(44,391,o),
(49,385,c),
(157,494,o),
(260,651,o),
(328,819,c)
);
},
{
closed = 1;
nodes = (
(187,-70,l),
(217,-70,l),
(217,613,l),
(215,614,l),
(187,586,l)
);
}
);
vertWidth = 1000;
width = 1000;
},
{
layerId = "94DDBC6A-1627-4027-9125-871D02041BCD";
shapes = (
{
closed = 1;
nodes = (
(720,495,l),
(574,495,l),
(574,-95,l),
(720,-95,l)
);
},
{
closed = 1;
nodes = (
(967,382,l),
(327,382,l),
(327,251,l),
(967,251,l)
);
},
{
closed = 1;
nodes = (
(636,284,l),
(696,150,o),
(792,16,o),
(895,-62,c),
(918,-26,o),
(965,27,o),
(998,54,c),
(897,114,o),
(796,220,o),
(744,322,c)
);
},
{
closed = 1;
nodes = (
(558,334,l),
(504,225,o),
(399,116,o),
(287,57,c),
(319,29,o),
(365,-24,o),
(387,-59,c),
(505,19,o),
(608,152,o),
(672,295,c)
);
},
{
closed = 1;
nodes = (
(526,580,l),
(526,686,l),
(776,686,l),
(776,580,l)
);
},
{
closed = 1;
nodes = (
(922,813,l),
(389,813,l),
(389,453,l),
(922,453,l)
);
},
{
closed = 1;
nodes = (
(237,853,l),
(187,715,o),
(100,577,o),
(12,491,c),
(35,454,o),
(74,374,o),
(86,339,c),
(198,454,o),
(306,640,o),
(372,809,c)
);
},
{
closed = 1;
nodes = (
(145,-95,l),
(283,-95,l),
(283,700,l),
(283,701,l),
(145,563,l)
);
}
);
vertWidth = 1000;
width = 1000;
}
);
note = cid10210;
unicode = 20445;
}
{
glyphname = uni4FF1;
layers = (
{
layerId = m01;
shapes = (
{
closed = 1;
nodes = (
(953,202,l),
(286,202,l),
(286,173,l),
(953,173,l)
);
},
{
closed = 1;
nodes = (
(701,111,l),
(780,57,o),
(875,-20,o),
(923,-70,c),
(944,-49,l),
(897,0,o),
(801,77,o),
(721,130,c)
);
},
{
closed = 1;
nodes = (
(506,132,l),
(460,69,o),
(368,-5,o),
(279,-53,c),
(285,-58,o),
(294,-65,o),
(300,-71,c),
(390,-20,o),
(480,49,o),
(532,118,c)
);
},
{
closed = 1;
nodes = (
(842,792,l),
(395,792,l),
(395,194,l),
(425,194,l),
(425,763,l),
(813,763,l),
(813,194,l),
(842,194,l)
);
},
{
closed = 1;
nodes = (
(828,648,l),
(409,648,l),
(409,619,l),
(828,619,l)
);
},
{
closed = 1;
nodes = (
(828,502,l),
(409,502,l),
(409,473,l),
(828,473,l)
);
},
{
closed = 1;
nodes = (
(828,353,l),
(409,353,l),
(409,324,l),
(828,324,l)
);
},
{
closed = 1;
nodes = (
(294,830,l),
(232,669,o),
(133,511,o),
(26,408,c),
(33,403,o),
(43,390,o),
(47,384,c),
(155,494,o),
(256,653,o),
(323,822,c)
);
},
{
closed = 1;
nodes = (
(182,-68,l),
(212,-68,l),
(212,615,l),
(210,616,l),
(182,588,l)
);
}
);
vertWidth = 1000;
width = 1000;
},
{
layerId = "94DDBC6A-1627-4027-9125-871D02041BCD";
shapes = (
{
closed = 1;
nodes = (
(970,250,l),
(305,250,l),
(305,123,l),
(970,123,l)
);
},
{
closed = 1;
nodes = (
(682,63,l),
(749,17,o),
(840,-52,o),
(880,-97,c),
(978,3,l),
(933,48,o),
(839,111,o),
(773,152,c)
);
},
{
closed = 1;
nodes = (
(496,150,l),
(446,97,o),
(367,41,o),
(293,8,c),
(323,-19,o),
(363,-65,o),
(382,-97,c),
(460,-60,o),
(546,-1,o),
(607,69,c)
);
},
{
closed = 1;
nodes = (
(889,818,l),
(392,818,l),
(392,191,l),
(530,191,l),
(530,704,l),
(744,704,l),
(744,191,l),
(889,191,l)
);
},
{
closed = 1;
nodes = (
(799,663,l),
(460,663,l),
(460,568,l),
(799,568,l)
);
},
{
closed = 1;
nodes = (
(799,526,l),
(460,526,l),
(460,431,l),
(799,431,l)
);
},
{
closed = 1;
nodes = (
(799,388,l),
(460,388,l),
(460,293,l),
(799,293,l)
);
},
{
closed = 1;
nodes = (
(215,851,l),
(169,716,o),
(90,579,o),
(7,493,c),
(31,457,o),
(70,375,o),
(83,340,c),
(189,454,o),
(291,640,o),
(352,808,c)
);
},
{
closed = 1;
nodes = (
(134,-94,l),
(272,-94,l),
(272,701,l),
(272,702,l),
(134,564,l)
);
}
);
vertWidth = 1000;
width = 1000;
}
);
note = cid10240;
unicode = 20465;
}
{
glyphname = uni501A;
layers = (
{
layerId = m01;
shapes = (
{
closed = 1;
nodes = (
(922,719,l),
(322,719,l),
(322,690,l),
(922,690,l)
);
},
{
closed = 1;
nodes = (
(951,421,l),
(280,421,l),
(280,391,l),
(951,391,l)
);
},
{
closed = 1;
nodes = (
(575,626,l),
(684,578,o),
(820,504,o),
(890,457,c),
(912,482,l),
(840,530,o),
(705,600,o),
(597,646,c)
);
},
{
closed = 1;
nodes = (
(408,294,l),
(378,294,l),
(378,12,l),
(408,12,l)
);
},
{
closed = 1;
nodes = (
(667,294,l),
(392,294,l),
(392,265,l),
(637,265,l),
(637,99,l),
(392,99,l),
(392,70,l),
(667,70,l)
);
},
{
closed = 1;
nodes = (
(848,414,l),
(819,414,l),
(819,-21,ls),
(819,-37,o),
(814,-42,o),
(795,-43,cs),
(776,-44,o),
(714,-45,o),
(631,-43,c),
(636,-52,o),
(642,-64,o),
(644,-71,c),
(738,-71,o),
(790,-72,o),
(815,-66,cs),
(839,-61,o),
(848,-49,o),
(848,-20,cs)
);
},
{
closed = 1;
nodes = (
(624,827,l),
(609,630,o),
(551,535,o),
(298,489,c),
(304,483,o),
(313,471,o),
(316,463,c),
(575,514,o),
(636,614,o),
(655,827,c)
);
},
{
closed = 1;
nodes = (
(291,827,l),
(230,666,o),
(130,508,o),
(23,405,c),
(30,400,o),
(40,387,o),
(44,381,c),
(152,491,o),
(253,650,o),
(320,819,c)
);
},
{
closed = 1;
nodes = (
(207,614,l),
(180,586,l),
(180,-70,l),
(209,-70,l),
(209,613,l)
);
}
);
vertWidth = 1000;
width = 1000;
},
{
layerId = "94DDBC6A-1627-4027-9125-871D02041BCD";
shapes = (
{
closed = 1;
nodes = (
(950,763,l),
(346,763,l),
(346,643,l),
(950,643,l)
);
},
{
closed = 1;
nodes = (
(977,456,l),
(301,456,l),
(301,331,l),
(977,331,l)
);
},
{
closed = 1;
nodes = (
(586,565,l),
(678,529,o),
(811,471,o),
(873,433,c),
(957,541,l),
(889,578,o),
(752,631,o),
(665,660,c)
);
},
{
closed = 1;
nodes = (
(496,302,l),
(371,302,l),
(371,-4,l),
(496,-4,l)
);
},
{
closed = 1;
nodes = (
(697,302,l),
(440,302,l),
(440,203,l),
(570,203,l),
(570,156,l),
(440,156,l),
(440,57,l),
(697,57,l)
);
},
{
closed = 1;
nodes = (
(905,398,l),
(762,398,l),
(762,44,ls),
(762,31,o),
(757,28,o),
(741,27,cs),
(726,27,o),
(667,27,o),
(626,29,c),
(643,-6,o),
(662,-60,o),
(667,-97,c),
(743,-97,o),
(802,-96,o),
(847,-77,cs),
(892,-58,o),
(905,-25,o),
(905,40,cs)
);
},
{
closed = 1;
nodes = (
(579,841,l),
(569,686,o),
(553,599,o),
(317,551,c),
(343,524,o),
(377,473,o),
(388,439,c),
(673,506,o),
(712,634,o),
(728,841,c)
);
},
{
closed = 1;
nodes = (
(224,851,l),
(176,714,o),
(93,576,o),
(7,488,c),
(31,452,o),
(70,371,o),
(83,336,c),
(192,451,o),
(297,638,o),
(361,808,c)
);
},
{
closed = 1;
nodes = (
(268,702,l),
(130,564,l),
(130,-94,l),
(268,-94,l),
(268,701,l)
);
}
);
vertWidth = 1000;
width = 1000;
}
);
note = cid10313;
unicode = 20506;
}
{
glyphname = uni5021;
layers = (
{
layerId = m01;
shapes = (
{
closed = 1;
nodes = (
(898,178,l),
(350,178,l),
(350,149,l),
(898,149,l)
);
},
{
closed = 1;
nodes = (
(898,6,l),
(350,6,l),
(350,-23,l),
(898,-23,l)
);
},
{
closed = 1;
nodes = (
(917,343,l),
(334,343,l),
(334,-70,l),
(364,-70,l),
(364,314,l),
(887,314,l),
(887,-66,l),
(917,-66,l)
);
},
{
closed = 1;
nodes = (
(411,470,l),
(411,598,l),
(837,598,l),
(837,470,l)
);
},
{
closed = 1;
nodes = (
(411,627,l),
(411,754,l),
(837,754,l),
(837,627,l)
);
},
{
closed = 1;
nodes = (
(867,783,l),
(381,783,l),
(381,440,l),
(867,440,l)
);
},
{
closed = 1;
nodes = (
(291,827,l),
(231,666,o),
(134,509,o),
(31,405,c),
(37,400,o),
(48,387,o),
(53,381,c),
(157,492,o),
(255,651,o),
(320,819,c)
);
},
{
closed = 1;
nodes = (
(180,586,l),
(180,-70,l),
(209,-70,l),
(209,613,l),
(207,614,l)
);
}
);
vertWidth = 1000;
width = 1000;
},
{
layerId = "94DDBC6A-1627-4027-9125-871D02041BCD";
shapes = (
{
closed = 1;
nodes = (
(831,211,l),
(393,211,l),
(393,98,l),
(831,98,l)
);
},
{
closed = 1;
nodes = (
(836,54,l),
(393,54,l),
(393,-63,l),
(836,-63,l)
);
},
{
closed = 1;
nodes = (
(944,370,l),
(320,370,l),
(320,-94,l),
(463,-94,l),
(463,253,l),
(794,253,l),
(794,-89,l),
(944,-89,l)
);
},
{
closed = 1;
nodes = (
(509,521,l),
(509,563,l),
(750,563,l),
(750,521,l)
);
},
{
closed = 1;
nodes = (
(509,662,l),
(509,703,l),
(750,703,l),
(750,662,l)
);
},
{
closed = 1;
nodes = (
(899,810,l),
(368,810,l),
(368,414,l),
(899,414,l)
);
},
{
closed = 1;
nodes = (
(209,851,l),
(166,714,o),
(92,576,o),
(12,488,c),
(37,449,o),
(77,363,o),
(89,325,c),
(194,443,o),
(293,635,o),
(352,807,c)
);
},
{
closed = 1;
nodes = (
(130,564,l),
(130,-94,l),
(272,-94,l),
(272,705,l),
(272,706,l)
);
}
);
vertWidth = 1000;
width = 1000;
}
);
note = cid10324;
unicode = 20513;
}
{
glyphname = uni5028;
layers = (
{
layerId = m01;
shapes = (
{
closed = 1;
nodes = (
(291,827,l),
(230,666,o),
(130,508,o),
(23,405,c),
(30,400,o),
(40,387,o),
(44,381,c),
(152,491,o),
(253,650,o),
(320,819,c)
);
},
{
closed = 1;
nodes = (
(207,614,l),
(180,586,l),
(180,-70,l),
(209,-70,l),
(209,613,l)
);
},
{
closed = 1;
nodes = (
(909,778,l),
(384,778,l),
(384,749,l),
(879,749,l),
(879,577,l),
(384,577,l),
(384,548,l),
(909,548,l)
);
},
{
closed = 1;
nodes = (
(400,778,l),
(371,778,l),
(371,499,ls),
(371,338,o),
(358,125,o),
(235,-32,c),
(243,-36,o),
(254,-46,o),
(258,-52,c),
(383,109,o),
(400,334,o),
(400,499,cs)
);
},
{
closed = 1;
nodes = (
(936,415,l),
(393,415,l),
(393,385,l),
(936,385,l)
);
},
{
closed = 1;
nodes = (
(685,554,l),
(656,554,l),
(656,228,l),
(685,228,l)
);
},
{
closed = 1;
nodes = (
(896,235,l),
(459,235,l),
(459,-70,l),
(490,-70,l),
(490,206,l),
(865,206,l),
(865,-67,l),
(896,-67,l)
);
},
{
closed = 1;
nodes = (
(874,4,l),
(476,4,l),
(476,-25,l),
(874,-25,l)
);
}
);
vertWidth = 1000;
width = 1000;
},
{
layerId = "94DDBC6A-1627-4027-9125-871D02041BCD";
shapes = (
{
closed = 1;
nodes = (
(228,851,l),
(180,714,o),
(97,576,o),
(11,488,c),
(35,452,o),
(74,371,o),
(87,336,c),
(196,451,o),
(301,638,o),
(365,808,c)
);
},
{
closed = 1;
nodes = (
(271,705,l),
(130,564,l),
(130,-94,l),
(271,-94,l),
(271,704,l)
);
},
{
closed = 1;
nodes = (
(939,817,l),
(431,817,l),
(431,694,l),
(797,694,l),
(797,641,l),
(435,641,l),
(435,518,l),
(939,518,l)
);
},
{
closed = 1;
nodes = (
(516,817,l),
(374,817,l),
(374,520,ls),
(374,364,o),
(367,146,o),
(269,0,c),
(301,-15,o),
(363,-60,o),
(387,-85,c),
(498,76,o),
(516,345,o),
(516,520,cs)
);
},
{
closed = 1;
nodes = (
(975,446,l),
(452,446,l),
(452,322,l),
(975,322,l)
);
},
{
closed = 1;
nodes = (
(789,522,l),
(648,522,l),
(648,184,l),
(789,184,l)
);
},
{
closed = 1;
nodes = (
(946,247,l),
(501,247,l),
(501,-95,l),
(633,-95,l),
(633,133,l),
(807,133,l),
(807,-92,l),
(946,-92,l)
);
},
{
closed = 1;
nodes = (
(868,56,l),
(581,56,l),
(581,-65,l),
(868,-65,l)
);
}
);
vertWidth = 1000;
width = 1000;
}
);
note = cid10338;
unicode = 20520;
}
{
glyphname = uni5047;
layers = (
{
layerId = m01;
shapes = (
{
closed = 1;
nodes = (
(594,775,l),
(337,775,l),
(337,746,l),
(565,746,l),
(565,520,l),
(337,520,l),
(337,490,l),
(594,490,l)
);
},
{
closed = 1;
nodes = (
(927,770,l),
(643,770,l),
(643,741,l),
(897,741,l),
(897,518,l),
(643,518,l),
(643,488,l),
(927,488,l)
);
},
{
closed = 1;
nodes = (
(351,775,l),
(322,775,l),
(322,-71,l),
(351,-71,l)
);
},
{
closed = 1;
nodes = (
(585,360,l),
(337,360,l),
(337,330,l),
(585,330,l)
);
},
{
closed = 1;
nodes = (
(589,174,l),
(337,174,l),
(337,144,l),
(589,144,l)
);
},
{
closed = 1;
nodes = (
(922,376,l),
(612,376,l),
(612,347,l),
(922,347,l)
);
},
{
closed = 1;
nodes = (
(916,376,l),
(910,376,l),
(910,370,l),
(861,132,o),
(707,2,o),
(538,-51,c),
(545,-57,o),
(553,-67,o),
(556,-75,c),
(731,-16,o),
(885,117,o),
(939,371,c),
(922,378,l)
);
},
{
closed = 1;
nodes = (
(649,333,l),
(697,145,o),
(802,-6,o),
(950,-73,c),
(955,-65,o),
(964,-56,o),
(971,-50,c),
(824,10,o),
(720,159,o),
(674,340,c)
);
},
{
closed = 1;
nodes = (
(256,822,l),
(203,659,o),
(118,498,o),
(24,392,c),
(31,386,o),
(41,375,o),
(45,369,c),
(141,482,o),
(228,644,o),
(284,816,c)
);
},
{
closed = 1;
nodes = (
(202,634,l),
(174,606,l),
(174,-71,l),
(203,-71,l),
(203,632,l)
);
}
);
vertWidth = 1000;
width = 1000;
},
{
layerId = "94DDBC6A-1627-4027-9125-871D02041BCD";
shapes = (
{
closed = 1;
nodes = (
(636,810,l),
(381,810,l),
(381,690,l),
(505,690,l),
(505,587,l),
(381,587,l),
(381,467,l),
(636,467,l)
);
},
{
closed = 1;
nodes = (
(944,810,l),
(663,810,l),
(663,689,l),
(811,689,l),
(811,588,l),
(663,588,l),
(663,467,l),
(944,467,l)
);
},
{
closed = 1;
nodes = (
(449,810,l),
(318,810,l),
(318,-81,l),
(449,-81,l)
);
},
{
closed = 1;
nodes = (
(625,396,l),
(386,396,l),
(386,275,l),
(625,275,l)
);
},
{
closed = 1;
nodes = (
(638,200,l),
(385,200,l),
(385,79,l),
(638,79,l)
);
},
{
closed = 1;
nodes = (
(865,417,l),
(648,417,l),
(648,301,l),
(865,301,l)
);
},
{
closed = 1;
nodes = (
(861,417,l),
(836,417,l),
(836,398,l),
(811,210,o),
(722,73,o),
(572,18,c),
(599,-10,o),
(632,-64,o),
(647,-98,c),
(828,-15,o),
(930,140,o),
(965,401,c),
(884,420,l)
);
},
{
closed = 1;
nodes = (
(649,278,l),
(691,106,o),
(762,-27,o),
(899,-95,c),
(918,-59,o),
(958,-6,o),
(987,20,c),
(862,66,o),
(788,171,o),
(752,297,c)
);
},
{
closed = 1;
nodes = (
(197,855,l),
(156,713,o),
(85,571,o),
(7,480,c),
(30,441,o),
(65,356,o),
(76,320,c),
(180,442,o),
(274,639,o),
(330,815,c)
);
},
{
closed = 1;
nodes = (
(252,698,l),
(118,564,l),
(118,-94,l),
(256,-94,l),
(256,696,l)
);
}
);
vertWidth = 1000;
width = 1000;
}
);
note = cid10390;
unicode = 20551;
}
{
glyphname = uni5085;
layers = (
{
layerId = m01;
shapes = (
{
closed = 1;
nodes = (
(942,719,l),
(315,719,l),
(315,690,l),
(942,690,l)
);
},
{
closed = 1;
nodes = (
(959,228,l),
(283,228,l),
(283,198,l),
(959,198,l)
);
},
{
closed = 1;
nodes = (
(641,825,l),
(612,825,l),
(612,287,l),
(641,287,l)
);
},
{
closed = 1;
nodes = (
(897,607,l),
(362,607,l),
(362,288,l),
(391,288,l),
(391,577,l),
(868,577,l),
(868,288,l),
(897,288,l)
);
},
{
closed = 1;
nodes = (
(883,492,l),
(376,492,l),
(376,463,l),
(883,463,l)
);
},
{
closed = 1;
nodes = (
(883,377,l),
(376,377,l),
(376,348,l),
(883,348,l)
);
},
{
closed = 1;
nodes = (
(796,316,l),
(767,316,l),
(767,-20,ls),
(767,-34,o),
(764,-38,o),
(747,-39,cs),
(729,-41,o),
(677,-41,o),
(602,-39,c),
(608,-49,o),
(613,-60,o),
(615,-68,c),
(695,-68,o),
(743,-69,o),
(767,-64,cs),
(789,-58,o),
(796,-47,o),
(796,-20,cs)
);
},
{
closed = 1;
nodes = (
(405,143,l),
(456,105,o),
(515,48,o),
(548,5,c),
(570,26,l),
(536,68,o),
(477,123,o),
(427,159,c)
);
},
{
closed = 1;
nodes = (
(714,798,l),
(762,777,o),
(819,743,o),
(853,716,c),
(870,740,l),
(836,767,o),
(780,798,o),
(732,817,c)
);
},
{
closed = 1;
nodes = (
(291,827,l),
(230,666,o),
(130,508,o),
(23,405,c),
(30,400,o),
(40,387,o),
(44,381,c),
(152,491,o),
(253,650,o),
(320,819,c)
);
},
{
closed = 1;
nodes = (
(207,616,l),
(180,588,l),
(180,-68,l),
(209,-68,l),
(209,615,l)
);
}
);
vertWidth = 1000;
width = 1000;
},
{
layerId = "94DDBC6A-1627-4027-9125-871D02041BCD";
shapes = (
{
closed = 1;
nodes = (
(966,773,l),
(326,773,l),
(326,662,l),
(966,662,l)
);
},
{
closed = 1;
nodes = (
(975,247,l),
(308,247,l),
(308,135,l),
(975,135,l)
);
},
{
closed = 1;
nodes = (
(713,855,l),
(575,855,l),
(575,286,l),
(713,286,l)
);
},
{
closed = 1;
nodes = (
(932,636,l),
(363,636,l),
(363,273,l),
(497,273,l),
(497,546,l),
(792,546,l),
(792,276,l),
(932,276,l)
);
},
{
closed = 1;
nodes = (
(850,520,l),
(435,520,l),
(435,438,l),
(850,438,l)
);
},
{
closed = 1;
nodes = (
(850,411,l),
(435,411,l),
(435,329,l),
(850,329,l)
);
},
{
closed = 1;
nodes = (
(856,298,l),
(716,298,l),
(716,38,ls),
(716,26,o),
(711,23,o),
(697,22,cs),
(684,22,o),
(632,22,o),
(595,24,c),
(611,-10,o),
(629,-60,o),
(634,-96,c),
(704,-96,o),
(759,-95,o),
(801,-78,cs),
(845,-59,o),
(856,-28,o),
(856,33,cs)
);
},
{
closed = 1;
nodes = (
(384,91,l),
(430,48,o),
(478,-10,o),
(500,-51,c),
(615,20,l),
(589,61,o),
(539,116,o),
(493,154,c)
);
},
{
closed = 1;
nodes = (
(746,801,l),
(778,779,o),
(817,744,o),
(833,722,c),
(927,787,l),
(907,810,o),
(866,842,o),
(835,862,c)
);
},
{
closed = 1;
nodes = (
(222,851,l),
(174,714,o),
(91,576,o),
(5,488,c),
(29,452,o),
(68,371,o),
(81,336,c),
(190,451,o),
(295,638,o),
(359,808,c)
);
},
{
closed = 1;
nodes = (
(268,702,l),
(130,564,l),
(130,-94,l),
(268,-94,l),
(268,701,l)
);
}
);
vertWidth = 1000;
width = 1000;
}
);
note = cid10500;
unicode = 20613;
}
{
glyphname = uni50F5;
layers = (
{
layerId = m01;
shapes = (
{
closed = 1;
nodes = (
(944,772,l),
(303,772,l),
(303,743,l),
(944,743,l)
);
},
{
closed = 1;
nodes = (
(936,392,l),
(305,392,l),
(305,363,l),
(936,363,l)
);
},
{
closed = 1;
nodes = (
(950,-16,l),
(271,-16,l),
(271,-45,l),
(950,-45,l)
);
},
{
closed = 1;
nodes = (
(394,476,l),
(394,554,l),
(854,554,l),
(854,476,l)
);
},
{
closed = 1;
nodes = (
(394,583,l),
(394,659,l),
(854,659,l),
(854,583,l)
);
},
{
closed = 1;
nodes = (
(883,688,l),
(365,688,l),
(365,447,l),
(883,447,l)
);
},
{
closed = 1;
nodes = (
(387,80,l),
(387,162,l),
(859,162,l),
(859,80,l)
);
},
{
closed = 1;
nodes = (
(387,191,l),
(387,272,l),
(859,272,l),
(859,191,l)
);
},
{
closed = 1;
nodes = (
(888,301,l),
(358,301,l),
(358,50,l),
(888,50,l)
);
},
{
closed = 1;
nodes = (
(635,292,l),
(606,292,l),
(606,63,l),
(635,63,l)
);
},
{
closed = 1;
nodes = (
(635,679,l),
(606,679,l),
(606,463,l),
(635,463,l)
);
},
{
closed = 1;
nodes = (
(256,822,l),
(203,661,o),
(118,501,o),
(24,396,c),
(31,390,o),
(41,378,o),
(46,373,c),
(141,485,o),
(228,646,o),
(284,816,c)
);
},
{
closed = 1;
nodes = (
(202,634,l),
(174,606,l),
(174,-71,l),
(203,-71,l),
(203,632,l)
);
}
);
vertWidth = 1000;
width = 1000;
},
{
layerId = "94DDBC6A-1627-4027-9125-871D02041BCD";
shapes = (
{
closed = 1;
nodes = (
(961,828,l),
(317,828,l),
(317,730,l),
(961,730,l)
);
},
{
closed = 1;
nodes = (
(961,428,l),
(311,428,l),
(311,334,l),
(961,334,l)
);
},
{
closed = 1;
nodes = (
(975,26,l),
(286,26,l),
(286,-82,l),
(975,-82,l)
);
},
{
closed = 1;
nodes = (
(496,522,l),
(496,549,l),
(766,549,l),
(766,522,l)
);
},
{
closed = 1;
nodes = (
(496,612,l),
(496,638,l),
(766,638,l),
(766,612,l)
);
},
{
closed = 1;
nodes = (
(905,709,l),
(364,709,l),
(364,451,l),
(905,451,l)
);
},
{
closed = 1;
nodes = (
(488,121,l),
(488,150,l),
(776,150,l),
(776,121,l)
);
},
{
closed = 1;
nodes = (
(488,213,l),
(488,241,l),
(776,241,l),
(776,213,l)
);
},
{
closed = 1;
nodes = (
(915,312,l),
(356,312,l),
(356,50,l),
(915,50,l)
);
},
{
closed = 1;
nodes = (
(699,282,l),
(568,282,l),
(568,75,l),
(699,75,l)
);
},
{
closed = 1;
nodes = (
(699,679,l),
(568,679,l),
(568,485,l),
(699,485,l)
);
},
{
closed = 1;
nodes = (
(197,855,l),
(156,713,o),
(85,571,o),
(7,480,c),
(30,441,o),
(65,356,o),
(76,320,c),
(180,442,o),
(274,639,o),
(330,815,c)
);
},
{
closed = 1;
nodes = (
(250,696,l),
(118,564,l),
(118,-94,l),
(253,-94,l),
(253,694,l)
);
}
);
vertWidth = 1000;
width = 1000;
}
);
note = cid10719;
unicode = 20725;
}
{
glyphname = uni5146;
layers = (
{
layerId = m01;
shapes = (
{
closed = 1;
nodes = (
(618,816,l),
(588,816,l),
(588,23,ls),
(588,-46,o),
(610,-61,o),
(679,-61,cs),
(695,-61,o),
(857,-61,o),
(873,-61,cs),
(941,-61,o),
(951,-24,o),
(956,86,c),
(947,89,o),
(935,94,o),
(926,101,c),
(921,-4,o),
(916,-31,o),
(876,-31,cs),
(843,-31,o),
(702,-31,o),
(677,-31,cs),
(627,-31,o),
(618,-20,o),
(618,22,cs)
);
},
{
closed = 1;
nodes = (
(80,202,l),
(165,242,o),
(280,298,o),
(387,351,c),
(381,376,l),
(265,320,o),
(143,262,o),
(64,228,c)
);
},
{
closed = 1;
nodes = (
(404,816,l),
(375,816,l),
(375,441,ls),
(375,241,o),
(342,68,o),
(69,-54,c),
(76,-60,o),
(84,-70,o),
(88,-77,c),
(369,49,o),
(404,231,o),
(404,441,cs)
);
},
{
closed = 1;
nodes = (
(102,721,l),
(172,651,o),
(241,553,o),
(268,486,c),
(293,503,l),
(267,568,o),
(195,665,o),
(126,735,c)
);
},
{
closed = 1;
nodes = (
(619,389,l),
(727,332,o),
(858,245,o),
(922,185,c),
(941,210,l),
(876,269,o),
(746,353,o),
(637,410,c)
);
},
{
closed = 1;
nodes = (
(867,744,l),
(824,668,o),
(748,557,o),
(691,492,c),
(713,479,l),
(770,544,o),
(844,649,o),
(895,729,c)
);
}
);
vertWidth = 1000;
width = 1000;
},
{
layerId = "94DDBC6A-1627-4027-9125-871D02041BCD";
shapes = (
{
closed = 1;
nodes = (
(680,846,l),
(533,846,l),
(533,121,ls),
(533,-38,o),
(567,-82,o),
(691,-82,cs),
(718,-82,o),
(787,-82,o),
(815,-82,cs),
(916,-82,o),
(956,-32,o),
(973,106,c),
(931,115,o),
(874,140,o),
(842,163,c),
(836,78,o),
(829,56,o),
(800,56,cs),
(786,56,o),
(730,56,o),
(716,56,cs),
(683,56,o),
(680,63,o),
(680,121,cs)
);
},
{
closed = 1;
nodes = (
(74,158,l),
(164,200,o),
(273,252,o),
(373,303,c),
(344,428,l),
(221,381,o),
(89,331,o),
(8,306,c)
);
},
{
closed = 1;
nodes = (
(442,846,l),
(298,846,l),
(298,448,ls),
(298,278,o),
(267,110,o),
(31,23,c),
(59,-4,o),
(102,-64,o),
(118,-100,c),
(403,10,o),
(442,224,o),
(442,447,cs)
);
},
{
closed = 1;
nodes = (
(54,705,l),
(104,625,o),
(160,519,o),
(179,451,c),
(313,523,l),
(290,592,o),
(229,693,o),
(177,768,c)
);
},
{
closed = 1;
nodes = (
(616,352,l),
(707,300,o),
(829,219,o),
(884,163,c),
(979,283,l),
(918,338,o),
(792,412,o),
(703,457,c)
);
},
{
closed = 1;
nodes = (
(799,780,l),
(768,700,o),
(712,598,o),
(666,533,c),
(778,469,l),
(828,529,o),
(888,621,o),
(944,707,c)
);
}
);
vertWidth = 1000;
width = 1000;
}
);
note = cid10867;
unicode = 20806;
}
{
glyphname = uni514B;
layers = (
{
layerId = m01;
shapes = (
{
closed = 1;
nodes = (
(220,300,l),
(220,531,l),
(782,531,l),
(782,300,l)
);
},
{
closed = 1;
nodes = (
(812,560,l),
(190,560,l),
(190,271,l),
(812,271,l)
);
},
{
closed = 1;
nodes = (
(930,716,l),
(74,716,l),
(74,686,l),
(930,686,l)
);
},
{
closed = 1;
nodes = (
(513,831,l),
(483,831,l),
(483,544,l),
(513,544,l)
);
},
{
closed = 1;
nodes = (
(614,292,l),
(584,292,l),
(584,0,ls),
(584,-52,o),
(605,-62,o),
(675,-62,cs),
(691,-62,o),
(847,-62,o),
(864,-62,cs),
(935,-62,o),
(946,-29,o),
(951,113,c),
(942,115,o),
(930,120,o),
(921,127,c),
(917,-12,o),
(911,-32,o),
(863,-32,cs),
(829,-32,o),
(698,-32,o),
(673,-32,cs),
(623,-32,o),
(614,-26,o),
(614,0,cs)
);
},
{
closed = 1;
nodes = (
(371,284,l),
(349,113,o),
(275,5,o),
(51,-46,c),
(57,-51,o),
(67,-64,o),
(70,-71,c),
(298,-16,o),
(377,96,o),
(402,284,c)
);
}
);
vertWidth = 1000;
width = 1000;
},
{
layerId = "94DDBC6A-1627-4027-9125-871D02041BCD";
shapes = (
{
closed = 1;
nodes = (
(305,379,l),
(305,458,l),
(696,458,l),
(696,379,l)
);
},
{
closed = 1;
nodes = (
(846,585,l),
(165,585,l),
(165,251,l),
(846,251,l)
);
},
{
closed = 1;
nodes = (
(941,778,l),
(63,778,l),
(63,647,l),
(941,647,l)
);
},
{
closed = 1;
nodes = (
(570,856,l),
(422,856,l),
(422,505,l),
(570,505,l)
);
},
{
closed = 1;
nodes = (
(688,323,l),
(539,323,l),
(539,91,ls),
(539,-39,o),
(570,-83,o),
(701,-83,cs),
(726,-83,o),
(786,-83,o),
(812,-83,cs),
(918,-83,o),
(957,-39,o),
(971,127,c),
(932,137,o),
(868,161,o),
(838,185,c),
(833,71,o),
(828,54,o),
(798,54,cs),
(782,54,o),
(737,54,o),
(724,54,cs),
(693,54,o),
(688,58,o),
(688,93,cs)
);
},
{
closed = 1;
nodes = (
(288,271,l),
(275,154,o),
(256,80,o),
(18,38,c),
(49,6,o),
(88,-57,o),
(102,-97,c),
(385,-31,o),
(428,94,o),
(445,271,c)
);
}
);
vertWidth = 1000;
width = 1000;
}
);
note = cid10874;
unicode = 20811;
}
{
glyphname = uni5176;
layers = (
{
layerId = m01;
shapes = (
{
closed = 1;
nodes = (
(942,182,l),
(59,182,l),
(59,152,l),
(942,152,l)
);
},
{
closed = 1;
nodes = (
(919,696,l),
(85,696,l),
(85,667,l),
(919,667,l)
);
},
{
closed = 1;
nodes = (
(730,528,l),
(276,528,l),
(276,499,l),
(730,499,l)
);
},
{
closed = 1;
nodes = (
(730,349,l),
(276,349,l),
(276,320,l),
(730,320,l)
);
},
{
closed = 1;
nodes = (
(286,830,l),
(257,830,l),
(257,169,l),
(286,169,l)
);
},
{
closed = 1;
nodes = (
(745,830,l),
(716,830,l),
(716,169,l),
(745,169,l)
);
},
{
closed = 1;
nodes = (
(596,83,l),
(721,36,o),
(844,-19,o),
(921,-65,c),
(942,-42,l),
(862,3,o),
(736,60,o),
(613,104,c)
);
},
{
closed = 1;
nodes = (
(374,106,l),
(303,53,o),
(163,-8,o),
(52,-43,c),
(59,-49,o),
(69,-61,o),
(73,-67,c),
(183,-29,o),
(320,31,o),
(407,90,c)
);
}
);
vertWidth = 1000;
width = 1000;
},
{
layerId = "94DDBC6A-1627-4027-9125-871D02041BCD";
shapes = (
{
closed = 1;
nodes = (
(952,261,l),
(47,261,l),
(47,128,l),
(952,128,l)
);
},
{
closed = 1;
nodes = (
(926,765,l),
(79,765,l),
(79,632,l),
(926,632,l)
);
},
{
closed = 1;
nodes = (
(694,591,l),
(302,591,l),
(302,471,l),
(694,471,l)
);
},
{
closed = 1;
nodes = (
(694,427,l),
(302,427,l),
(302,307,l),
(694,307,l)
);
},
{
closed = 1;
nodes = (
(369,852,l),
(225,852,l),
(225,181,l),
(369,181,l)
);
},
{
closed = 1;
nodes = (
(776,852,l),
(628,852,l),
(628,181,l),
(776,181,l)
);
},
{
closed = 1;
nodes = (
(536,35,l),
(642,-3,o),
(754,-57,o),
(815,-93,c),
(960,1,l),
(885,37,o),
(755,90,o),
(644,127,c)
);
},
{
closed = 1;
nodes = (
(341,137,l),
(271,95,o),
(137,41,o),
(33,14,c),
(64,-16,o),
(105,-63,o),
(127,-94,c),
(232,-63,o),
(368,-9,o),
(460,41,c)
);
}
);
vertWidth = 1000;
width = 1000;
}
);
note = cid10950;
unicode = 20854;
}
{
glyphname = uni517C;
layers = (
{
layerId = m01;
shapes = (
{
closed = 1;
nodes = (
(919,688,l),
(81,688,l),
(81,659,l),
(919,659,l)
);
},
{
closed = 1;
nodes = (
(935,392,l),
(66,392,l),
(66,363,l),
(935,363,l)
);
},
{
closed = 1;
nodes = (
(369,221,l),
(298,119,o),
(160,19,o),
(44,-26,c),
(52,-33,o),
(61,-43,o),
(66,-51,c),
(180,-1,o),
(321,102,o),
(394,208,c)
);
},
{
closed = 1;
nodes = (
(599,210,l),
(679,112,o),
(828,7,o),
(939,-44,c),
(944,-36,o),
(953,-26,o),
(960,-21,c),
(847,25,o),
(701,127,o),
(623,223,c)
);
},
{
closed = 1;
nodes = (
(404,678,l),
(375,678,l),
(375,-71,l),
(404,-71,l)
);
},
{
closed = 1;
nodes = (
(621,678,l),
(591,678,l),
(591,-71,l),
(621,-71,l)
);
},
{
closed = 1;
nodes = (
(832,538,l),
(140,538,l),
(140,509,l),
(803,509,l),
(803,231,l),
(133,231,l),
(133,202,l),
(832,202,l)
);
},
{
closed = 1;
nodes = (
(229,819,l),
(271,782,o),
(318,728,o),
(340,694,c),
(365,709,l),
(342,743,o),
(294,796,o),
(252,832,c)
);
},
{
closed = 1;
nodes = (
(746,832,l),
(720,794,o),
(672,738,o),
(635,704,c),
(660,692,l),
(697,726,o),
(741,776,o),
(775,819,c)
);
}
);
vertWidth = 1000;
width = 1000;
},
{
layerId = "94DDBC6A-1627-4027-9125-871D02041BCD";
shapes = (
{
closed = 1;
nodes = (
(945,725,l),
(58,725,l),
(58,606,l),
(945,606,l)
);
},
{
closed = 1;
nodes = (
(964,420,l),
(41,420,l),
(41,301,l),
(964,301,l)
);
},
{
closed = 1;
nodes = (
(296,216,l),
(242,140,o),
(136,68,o),
(30,30,c),
(60,3,o),
(102,-48,o),
(123,-81,c),
(238,-29,o),
(347,66,o),
(414,171,c)
);
},
{
closed = 1;
nodes = (
(567,185,l),
(637,71,o),
(751,-28,o),
(874,-80,c),
(895,-44,o),
(938,10,o),
(970,38,c),
(850,74,o),
(734,145,o),
(673,224,c)
);
},
{
closed = 1;
nodes = (
(459,649,l),
(319,649,l),
(319,-94,l),
(459,-94,l)
);
},
{
closed = 1;
nodes = (
(662,649,l),
(522,649,l),
(522,-94,l),
(662,-94,l)
);
},
{
closed = 1;
nodes = (
(867,566,l),
(143,566,l),
(143,458,l),
(726,458,l),
(726,261,l),
(132,261,l),
(132,153,l),
(867,153,l)
);
},
{
closed = 1;
nodes = (
(172,799,l),
(211,763,o),
(255,711,o),
(272,676,c),
(415,740,l),
(393,777,o),
(346,826,o),
(306,859,c)
);
},
{
closed = 1;
nodes = (
(687,857,l),
(664,820,o),
(625,772,o),
(592,740,c),
(719,685,l),
(755,713,o),
(805,760,o),
(840,798,c)
);
}
);
vertWidth = 1000;
width = 1000;
}
);
note = cid10958;
unicode = 20860;
}
{
glyphname = uni5195;
layers = (
{
layerId = m01;
shapes = (
{
closed = 1;
nodes = (
(837,788,l),
(162,788,l),
(162,523,l),
(191,523,l),
(191,759,l),
(808,759,l),
(808,526,l),
(837,526,l)
);
},
{
closed = 1;
nodes = (
(742,689,l),
(261,689,l),
(261,660,l),
(742,660,l)
);
},
{
closed = 1;
nodes = (
(742,597,l),
(261,597,l),
(261,568,l),
(742,568,l)
);
},
{
closed = 1;
nodes = (
(571,189,l),
(541,189,l),
(541,3,ls),
(541,-47,o),
(564,-56,o),
(642,-56,cs),
(659,-56,o),
(842,-56,o),
(861,-56,cs),
(933,-56,o),
(946,-28,o),
(951,95,c),
(942,98,o),
(930,102,o),
(921,109,c),
(917,-11,o),
(910,-26,o),
(859,-26,cs),
(821,-26,o),
(667,-26,o),
(639,-26,cs),
(581,-26,o),
(571,-20,o),
(571,3,cs)
);
},
{
closed = 1;
nodes = (
(358,562,l),
(299,479,o),
(189,376,o),
(47,302,c),
(55,298,o),
(65,289,o),
(70,281,c),
(215,361,o),
(325,466,o),
(393,555,c)
);
},
{
closed = 1;
nodes = (
(642,488,l),
(311,488,l),
(287,459,l),
(642,459,l)
);
},
{
closed = 1;
nodes = (
(483,350,l),
(458,123,o),
(379,4,o),
(50,-45,c),
(56,-52,o),
(63,-65,o),
(66,-71,c),
(400,-18,o),
(485,105,o),
(514,350,c)
);
},
{
closed = 1;
nodes = (
(639,488,l),
(633,488,l),
(633,481,l),
(602,441,o),
(543,389,o),
(494,361,c),
(501,358,o),
(510,352,o),
(515,348,c),
(565,377,o),
(626,426,o),
(666,476,c),
(645,490,l)
);
},
{
closed = 1;
nodes = (
(202,200,l),
(202,342,l),
(812,342,l),
(812,200,l)
);
},
{
closed = 1;
nodes = (
(841,372,l),
(173,372,l),
(173,171,l),
(841,171,l)
);
}
);
vertWidth = 1000;
width = 1000;
},
{
layerId = "94DDBC6A-1627-4027-9125-871D02041BCD";
shapes = (
{
closed = 1;
nodes = (
(884,823,l),
(134,823,l),
(134,519,l),
(268,519,l),
(268,730,l),
(743,730,l),
(743,519,l),
(884,519,l)
);
},
{
closed = 1;
nodes = (
(719,707,l),
(291,707,l),
(291,634,l),
(719,634,l)
);
},
{
closed = 1;
nodes = (
(719,612,l),
(291,612,l),
(291,524,l),
(719,524,l)
);
},
{
closed = 1;
nodes = (
(675,169,l),
(539,169,l),
(539,58,ls),
(539,-50,o),
(569,-86,o),
(699,-86,cs),
(725,-86,o),
(802,-86,o),
(829,-86,cs),
(923,-86,o),
(959,-57,o),
(973,57,c),
(937,64,o),
(881,83,o),
(855,102,c),
(851,39,o),
(844,29,o),
(815,29,cs),
(794,29,o),
(734,29,o),
(718,29,cs),
(681,29,o),
(675,32,o),
(675,60,cs)
);
},
{
closed = 1;
nodes = (
(312,553,l),
(262,480,o),
(171,407,o),
(34,356,c),
(63,334,o),
(105,283,o),
(123,251,c),
(277,322,o),
(380,411,o),
(458,523,c)
);
},
{
closed = 1;
nodes = (
(615,499,l),
(353,499,l),
(283,411,l),
(615,411,l)
);
},
{
closed = 1;
nodes = (
(442,326,l),
(428,143,o),
(405,62,o),
(30,27,c),
(54,-4,o),
(85,-59,o),
(94,-95,c),
(518,-42,o),
(569,86,o),
(588,326,c)
);
},
{
closed = 1;
nodes = (
(606,499,l),
(577,499,l),
(577,477,l),
(563,445,o),
(525,390,o),
(491,357,c),
(522,341,o),
(568,312,o),
(595,293,c),
(635,332,o),
(688,397,o),
(718,448,c),
(626,504,l)
);
},
{
closed = 1;
nodes = (
(305,227,l),
(305,273,l),
(736,273,l),
(736,227,l)
);
},
{
closed = 1;
nodes = (
(883,374,l),
(167,374,l),
(167,126,l),
(883,126,l)
);
}
);
vertWidth = 1000;
width = 1000;
}
);
note = cid10994;
unicode = 20885;
}
{
glyphname = uni5197;
layers = (
{
layerId = m01;
shapes = (
{
closed = 1;
nodes = (
(686,534,l),
(311,534,l),
(311,505,l),
(686,505,l)
);
},
{
closed = 1;
nodes = (
(915,758,l),
(92,758,l),
(92,530,l),
(122,530,l),
(122,728,l),
(885,728,l),
(885,530,l),
(915,530,l)
);
},
{
closed = 1;
nodes = (
(325,534,l),
(295,534,l),
(295,325,ls),
(295,196,o),
(262,52,o),
(48,-50,c),
(55,-55,o),
(63,-66,o),
(66,-74,c),
(286,32,o),
(325,188,o),
(325,324,cs)
);
},
{
closed = 1;
nodes = (
(701,534,l),
(672,534,l),
(672,7,ls),
(672,-48,o),
(688,-60,o),
(745,-60,cs),
(759,-60,o),
(865,-60,o),
(878,-60,cs),
(941,-60,o),
(950,-18,o),
(954,134,c),
(944,137,o),
(933,142,o),
(924,149,c),
(921,-1,o),
(916,-30,o),
(878,-30,cs),
(855,-30,o),
(763,-30,o),
(745,-30,cs),
(709,-30,o),
(701,-23,o),
(701,7,cs)
);
}
);
vertWidth = 1000;
width = 1000;
},
{
layerId = "94DDBC6A-1627-4027-9125-871D02041BCD";
shapes = (
{
closed = 1;
nodes = (
(662,539,l),
(346,539,l),
(346,404,l),
(662,404,l)
);
},
{
closed = 1;
nodes = (
(940,792,l),
(65,792,l),
(65,497,l),
(216,497,l),
(216,649,l),
(781,649,l),
(781,497,l),
(940,497,l)
);
},
{
closed = 1;
nodes = (
(414,539,l),
(259,539,l),
(259,315,ls),
(259,210,o),
(240,103,o),
(22,34,c),
(50,8,o),
(99,-61,o),
(114,-95,c),
(365,-11,o),
(414,162,o),
(414,310,cs)
);
},
{
closed = 1;
nodes = (
(736,539,l),
(580,539,l),
(580,106,ls),
(580,-42,o),
(618,-87,o),
(731,-87,cs),
(753,-87,o),
(798,-87,o),
(820,-87,cs),
(926,-87,o),
(963,-26,o),
(976,164,c),
(935,174,o),
(868,201,o),
(836,228,c),
(832,85,o),
(827,58,o),
(805,58,cs),
(795,58,o),
(768,58,o),
(760,58,cs),
(739,58,o),
(736,64,o),
(736,107,cs)
);
}
);
vertWidth = 1000;
width = 1000;
}
);
note = cid10996;
unicode = 20887;
}
{
glyphname = uni51A0;
layers = (
{
layerId = m01;
shapes = (
{
closed = 1;
nodes = (
(474,588,l),
(129,588,l),
(129,559,l),
(474,559,l)
);
},
{
closed = 1;
nodes = (
(512,392,l),
(61,392,l),
(61,363,l),
(512,363,l)
);
},
{
closed = 1;
nodes = (
(944,494,l),
(511,494,l),
(511,465,l),
(944,465,l)
);
},
{
closed = 1;
nodes = (
(915,777,l),
(88,777,l),
(88,623,l),
(118,623,l),
(118,748,l),
(885,748,l),
(885,623,l),
(915,623,l)
);
},
{
closed = 1;
nodes = (
(818,647,l),
(789,647,l),
(789,93,ls),
(789,80,o),
(781,77,o),
(766,76,cs),
(751,75,o),
(701,75,o),
(638,76,c),
(644,67,o),
(648,55,o),
(650,47,c),
(725,46,o),
(767,47,o),
(789,52,cs),
(811,57,o),
(818,69,o),
(818,93,cs)
);
},
{
closed = 1;
nodes = (
(396,384,l),
(367,384,l),
(367,21,ls),
(367,-47,o),
(398,-60,o),
(503,-60,cs),
(526,-60,o),
(805,-60,o),
(829,-60,cs),
(927,-60,o),
(943,-26,o),
(951,100,c),
(941,102,o),
(929,107,o),
(920,113,c),
(914,-8,o),
(903,-30,o),
(831,-30,cs),
(774,-30,o),
(538,-30,o),
(497,-30,cs),
(413,-30,o),
(396,-18,o),
(396,20,cs)
);
},
{
closed = 1;
nodes = (
(557,373,l),
(599,316,o),
(639,238,o),
(654,186,c),
(682,199,l),
(667,250,o),
(626,327,o),
(582,383,c)
);
},
{
closed = 1;
nodes = (
(220,384,l),
(190,384,l),
(190,268,ls),
(190,170,o),
(166,43,o),
(49,-51,c),
(56,-56,o),
(65,-66,o),
(69,-73,c),
(192,26,o),
(220,163,o),
(220,268,cs)
);
}
);
vertWidth = 1000;
width = 1000;
},
{
layerId = "94DDBC6A-1627-4027-9125-871D02041BCD";
shapes = (
{
closed = 1;
nodes = (
(474,622,l),
(113,622,l),
(113,489,l),
(474,489,l)
);
},
{
closed = 1;
nodes = (
(513,424,l),
(40,424,l),
(40,290,l),
(513,290,l)
);
},
{
closed = 1;
nodes = (
(955,548,l),
(509,548,l),
(509,419,l),
(955,419,l)
);
},
{
closed = 1;
nodes = (
(937,815,l),
(65,815,l),
(65,605,l),
(207,605,l),
(207,681,l),
(788,681,l),
(788,605,l),
(937,605,l)
);
},
{
closed = 1;
nodes = (
(852,644,l),
(716,644,l),
(716,211,ls),
(716,200,o),
(712,196,o),
(699,196,cs),
(687,196,o),
(653,196,o),
(619,198,c),
(636,163,o),
(655,109,o),
(660,73,c),
(721,72,o),
(766,75,o),
(804,95,cs),
(842,115,o),
(852,149,o),
(852,209,cs)
);
},
{
closed = 1;
nodes = (
(432,328,l),
(297,328,l),
(297,85,ls),
(297,-45,o),
(345,-83,o),
(519,-83,cs),
(556,-83,o),
(738,-83,o),
(777,-83,cs),
(925,-83,o),
(965,-42,o),
(985,121,c),
(947,128,o),
(889,149,o),
(857,170,c),
(849,59,o),
(838,42,o),
(769,42,cs),
(724,42,o),
(564,42,o),
(527,42,cs),
(445,42,o),
(432,47,o),
(432,87,cs)
);
},
{
closed = 1;
nodes = (
(516,356,l),
(546,311,o),
(576,248,o),
(586,207,c),
(704,260,l),
(691,301,o),
(660,359,o),
(628,402,c)
);
},
{
closed = 1;
nodes = (
(258,339,l),
(124,339,l),
(124,262,ls),
(124,184,o),
(113,81,o),
(13,4,c),
(39,-14,o),
(94,-69,o),
(113,-96,c),
(231,-1,o),
(258,148,o),
(258,259,cs)
);
}
);
vertWidth = 1000;
width = 1000;
}
);
note = cid11007;
unicode = 20896;
}
{
glyphname = uni51B0;
layers = (
{
layerId = m01;
shapes = (
{
closed = 1;
nodes = (
(517,558,l),
(286,558,l),
(286,528,l),
(517,528,l)
);
},
{
closed = 1;
nodes = (
(615,828,l),
(585,828,l),
(585,-17,ls),
(585,-35,o),
(579,-39,o),
(564,-40,cs),
(548,-41,o),
(493,-41,o),
(429,-40,c),
(434,-49,o),
(439,-63,o),
(442,-71,c),
(517,-71,o),
(561,-71,o),
(582,-65,cs),
(604,-60,o),
(615,-48,o),
(615,-16,cs)
);
},
{
closed = 1;
nodes = (
(513,558,l),
(507,558,l),
(507,550,l),
(467,328,o),
(356,149,o),
(243,70,c),
(250,64,o),
(260,54,o),
(264,47,c),
(380,135,o),
(492,314,o),
(536,553,c),
(519,560,l)
);
},
{
closed = 1;
nodes = (
(587,664,l),
(644,388,o),
(759,154,o),
(939,49,c),
(945,57,o),
(954,66,o),
(961,72,c),
(782,168,o),
(668,401,o),
(613,670,c)
);
},
{
closed = 1;
nodes = (
(900,617,l),
(842,546,o),
(743,453,o),
(672,393,c),
(692,375,l),
(764,435,o),
(858,523,o),
(922,599,c)
);
},
{
closed = 1;
nodes = (
(61,737,l),
(126,700,o),
(201,645,o),
(240,607,c),
(258,630,l),
(221,668,o),
(145,721,o),
(80,757,c)
);
},
{
closed = 1;
nodes = (
(77,44,l),
(133,131,o),
(205,262,o),
(257,367,c),
(233,384,l),
(180,276,o),
(102,140,o),
(50,64,c)
);
}
);
vertWidth = 1000;
width = 1000;
},
{
layerId = "94DDBC6A-1627-4027-9125-871D02041BCD";
shapes = (
{
closed = 1;
nodes = (
(445,617,l),
(269,617,l),
(269,475,l),
(445,475,l)
);
},
{
closed = 1;
nodes = (
(697,855,l),
(547,855,l),
(547,76,ls),
(547,60,o),
(541,55,o),
(525,55,cs),
(508,55,o),
(462,55,o),
(415,57,c),
(438,17,o),
(466,-53,o),
(473,-95,c),
(545,-96,o),
(602,-88,o),
(643,-63,cs),
(684,-37,o),
(697,4,o),
(697,75,cs)
);
},
{
closed = 1;
nodes = (
(426,617,l),
(401,617,l),
(401,593,l),
(384,401,o),
(330,214,o),
(213,131,c),
(245,103,o),
(286,45,o),
(305,10,c),
(451,128,o),
(512,329,o),
(537,599,c),
(450,620,l)
);
},
{
closed = 1;
nodes = (
(608,676,l),
(649,395,o),
(701,145,o),
(884,8,c),
(907,51,o),
(958,114,o),
(992,143,c),
(807,249,o),
(734,456,o),
(692,689,c)
);
},
{
closed = 1;
nodes = (
(836,680,l),
(791,604,o),
(713,511,o),
(653,455,c),
(764,384,l),
(825,439,o),
(902,524,o),
(966,605,c)
);
},
{
closed = 1;
nodes = (
(26,678,l),
(92,643,o),
(164,594,o),
(202,558,c),
(291,680,l),
(251,713,o),
(176,757,o),
(110,787,c)
);
},
{
closed = 1;
nodes = (
(147,37,l),
(198,126,o),
(248,224,o),
(292,319,c),
(182,409,l),
(131,303,o),
(67,194,o),
(22,126,c)
);
}
);
vertWidth = 1000;
width = 1000;
}
);
note = cid11029;
unicode = 20912;
}
{
glyphname = uni51E1;
layers = (
{
layerId = m01;
shapes = (
{
closed = 1;
nodes = (
(271,759,l),
(271,729,l),
(699,729,l),
(699,759,l)
);
},
{
closed = 1;
nodes = (
(255,759,l),
(255,498,ls),
(255,326,o),
(233,110,o),
(49,-47,c),
(56,-52,o),
(66,-64,o),
(70,-70,c),
(259,92,o),
(284,322,o),
(284,498,cs),
(284,759,l)
);
},
{
closed = 1;
nodes = (
(683,759,l),
(683,29,ls),
(683,-32,o),
(699,-46,o),
(755,-46,cs),
(769,-46,o),
(867,-46,o),
(880,-46,cs),
(943,-46,o),
(951,2,o),
(955,160,c),
(945,163,o),
(934,168,o),
(925,176,c),
(921,21,o),
(917,-16,o),
(880,-16,cs),
(859,-16,o),
(772,-16,o),
(755,-16,cs),
(720,-16,o),
(713,-9,o),
(713,28,cs),
(713,759,l)
);
},
{
closed = 1;
nodes = (
(347,512,l),
(436,447,o),
(529,352,o),
(572,282,c),
(595,302,l),
(553,371,o),
(460,464,o),
(370,526,c)
);
}
);
vertWidth = 1000;
width = 1000;
},
{
layerId = "94DDBC6A-1627-4027-9125-871D02041BCD";
shapes = (
{
closed = 1;
nodes = (
(272,822,l),
(272,677,l),
(687,677,l),
(687,822,l)
);
},
{
closed = 1;
nodes = (
(206,822,l),
(206,502,ls),
(206,343,o),
(192,135,o),
(15,0,c),
(48,-20,o),
(109,-75,o),
(132,-104,c),
(327,45,o),
(359,317,o),
(359,501,cs),
(359,822,l)
);
},
{
closed = 1;
nodes = (
(614,822,l),
(614,121,ls),
(614,-35,o),
(649,-80,o),
(754,-80,cs),
(773,-80,o),
(818,-80,o),
(838,-80,cs),
(941,-80,o),
(973,-4,o),
(985,183,c),
(945,193,o),
(885,221,o),
(851,248,c),
(847,100,o),
(843,60,o),
(822,60,cs),
(815,60,o),
(791,60,o),
(783,60,cs),
(765,60,o),
(763,67,o),
(763,120,cs),
(763,822,l)
);
},
{
closed = 1;
nodes = (
(331,457,l),
(402,389,o),
(483,293,o),
(528,223,c),
(641,330,l),
(591,400,o),
(506,490,o),
(435,549,c)
);
}
);
vertWidth = 1000;
width = 1000;
}
);
note = cid11092;
unicode = 20961;
}
{
glyphname = uni520A;
layers = (
{
layerId = m01;
shapes = (
{
closed = 1;
nodes = (
(663,712,l),
(634,712,l),
(634,169,l),
(663,169,l)
);
},
{
closed = 1;
nodes = (
(898,813,l),
(868,813,l),
(868,-17,ls),
(868,-36,o),
(861,-42,o),
(842,-43,cs),
(824,-44,o),
(764,-45,o),
(687,-43,c),
(693,-52,o),
(698,-65,o),
(701,-71,c),
(793,-72,o),
(839,-72,o),
(863,-66,cs),
(885,-61,o),
(898,-49,o),
(898,-16,cs)
);
},
{
closed = 1;
nodes = (
(530,773,l),
(80,773,l),
(80,743,l),
(530,743,l)
);
},
{
closed = 1;
nodes = (
(548,422,l),
(49,422,l),
(49,393,l),
(548,393,l)
);
},
{
closed = 1;
nodes = (
(321,759,l),
(291,759,l),
(291,-70,l),
(321,-70,l)
);
}
);
vertWidth = 1000;
width = 1000;
},
{
layerId = "94DDBC6A-1627-4027-9125-871D02041BCD";
shapes = (
{
closed = 1;
nodes = (
(712,738,l),
(569,738,l),
(569,162,l),
(712,162,l)
);
},
{
closed = 1;
nodes = (
(939,834,l),
(792,834,l),
(792,81,ls),
(792,63,o),
(784,57,o),
(765,56,cs),
(743,56,o),
(676,56,o),
(614,59,c),
(635,17,o),
(658,-51,o),
(664,-94,c),
(757,-94,o),
(829,-89,o),
(876,-65,cs),
(924,-42,o),
(939,-2,o),
(939,80,cs)
);
},
{
closed = 1;
nodes = (
(500,813,l),
(49,813,l),
(49,671,l),
(500,671,l)
);
},
{
closed = 1;
nodes = (
(519,477,l),
(25,477,l),
(25,331,l),
(519,331,l)
);
},
{
closed = 1;
nodes = (
(353,756,l),
(203,756,l),
(203,-95,l),
(353,-95,l)
);
}
);
vertWidth = 1000;
width = 1000;
}
);
note = cid11174;
unicode = 21002;
}
{
glyphname = uni5211;
layers = (
{
layerId = m01;
shapes = (
{
closed = 1;
nodes = (
(563,772,l),
(77,772,l),
(77,743,l),
(563,743,l)
);
},
{
closed = 1;
nodes = (
(584,427,l),
(50,427,l),
(50,398,l),
(584,398,l)
);
},
{
closed = 1;
nodes = (
(674,711,l),
(645,711,l),
(645,168,l),
(674,168,l)
);
},
{
closed = 1;
nodes = (
(902,812,l),
(872,812,l),
(872,-18,ls),
(872,-36,o),
(865,-42,o),
(846,-43,cs),
(828,-44,o),
(768,-45,o),
(691,-43,c),
(697,-52,o),
(702,-65,o),
(705,-72,c),
(797,-73,o),
(843,-73,o),
(867,-67,cs),
(889,-62,o),
(902,-49,o),
(902,-17,cs)
);
},
{
closed = 1;
nodes = (
(217,765,l),
(187,765,l),
(187,423,ls),
(187,252,o),
(171,80,o),
(45,-52,c),
(53,-57,o),
(63,-65,o),
(69,-71,c),
(197,68,o),
(217,237,o),
(217,423,cs)
);
},
{
closed = 1;
nodes = (
(457,765,l),
(427,765,l),
(427,-70,l),
(457,-70,l)
);
}
);
vertWidth = 1000;
width = 1000;
},
{
layerId = "94DDBC6A-1627-4027-9125-871D02041BCD";
shapes = (
{
closed = 1;
nodes = (
(548,804,l),
(50,804,l),
(50,667,l),
(548,667,l)
);
},
{
closed = 1;
nodes = (
(559,472,l),
(35,472,l),
(35,332,l),
(559,332,l)
);
},
{
closed = 1;
nodes = (
(724,733,l),
(586,733,l),
(586,166,l),
(724,166,l)
);
},
{
closed = 1;
nodes = (
(935,834,l),
(792,834,l),
(792,74,ls),
(792,57,o),
(786,52,o),
(769,52,cs),
(751,52,o),
(697,52,o),
(646,54,c),
(666,13,o),
(686,-54,o),
(691,-95,c),
(774,-95,o),
(837,-90,o),
(880,-66,cs),
(922,-42,o),
(935,-3,o),
(935,73,cs)
);
},
{
closed = 1;
nodes = (
(267,732,l),
(130,732,l),
(130,394,ls),
(130,257,o),
(116,118,o),
(18,-5,c),
(53,-30,o),
(98,-68,o),
(122,-100,c),
(245,41,o),
(267,212,o),
(267,393,cs)
);
},
{
closed = 1;
nodes = (
(480,747,l),
(339,747,l),
(339,-90,l),
(480,-90,l)
);
}
);
vertWidth = 1000;
width = 1000;
}
);
note = cid11181;
unicode = 21009;
}
{
glyphname = uni5212;
layers = (
{
layerId = m01;
shapes = (
{
closed = 1;
nodes = (
(683,718,l),
(653,718,l),
(653,171,l),
(683,171,l)
);
},
{
closed = 1;
nodes = (
(898,818,l),
(868,818,l),
(868,-17,ls),
(868,-35,o),
(861,-40,o),
(843,-41,cs),
(827,-42,o),
(769,-43,o),
(697,-41,c),
(702,-50,o),
(708,-63,o),
(710,-70,c),
(798,-70,o),
(841,-70,o),
(864,-65,cs),
(886,-59,o),
(898,-48,o),
(898,-16,cs)
);
},
{
closed = 1;
nodes = (
(594,580,l),
(46,516,l),
(50,488,l),
(598,552,l)
);
},
{
closed = 1;
nodes = (
(211,829,l),
(221,346,o),
(366,-70,o),
(510,-70,cs),
(559,-70,o),
(575,-24,o),
(583,106,c),
(575,108,o),
(563,114,o),
(556,120,c),
(550,3,o),
(538,-40,o),
(512,-41,cs),
(398,-41,o),
(246,333,o),
(241,829,c)
);
},
{
closed = 1;
nodes = (
(482,476,l),
(400,250,o),
(248,73,o),
(50,-37,c),
(57,-43,o),
(69,-55,o),
(74,-60,c),
(270,58,o),
(422,233,o),
(510,469,c)
);
},
{
closed = 1;
nodes = (
(322,778,l),
(377,736,o),
(440,676,o),
(471,636,c),
(493,656,l),
(463,695,o),
(398,754,o),
(343,795,c)
);
}
);
vertWidth = 1000;
width = 1000;
},
{
layerId = "94DDBC6A-1627-4027-9125-871D02041BCD";
shapes = (
{
closed = 1;
nodes = (
(729,740,l),
(590,740,l),
(590,186,l),
(729,186,l)
);
},
{
closed = 1;
nodes = (
(937,845,l),
(795,845,l),
(795,68,ls),
(795,51,o),
(789,46,o),
(771,46,cs),
(753,46,o),
(696,46,o),
(645,48,c),
(664,8,o),
(685,-56,o),
(690,-96,c),
(775,-96,o),
(838,-91,o),
(881,-68,cs),
(924,-45,o),
(937,-7,o),
(937,68,cs)
);
},
{
closed = 1;
nodes = (
(560,644,l),
(20,586,l),
(33,448,l),
(573,507,l)
);
},
{
closed = 1;
nodes = (
(130,854,l),
(131,404,o),
(203,-95,o),
(432,-95,cs),
(533,-95,o),
(578,-53,o),
(600,135,c),
(562,150,o),
(512,183,o),
(481,215,c),
(475,98,o),
(464,50,o),
(443,50,cs),
(353,50,o),
(269,468,o),
(279,854,c)
);
},
{
closed = 1;
nodes = (
(382,480,l),
(313,287,o),
(181,123,o),
(15,23,c),
(44,-4,o),
(95,-61,o),
(116,-91,c),
(290,30,o),
(435,220,o),
(519,438,c)
);
},
{
closed = 1;
nodes = (
(288,777,l),
(336,735,o),
(397,674,o),
(422,634,c),
(525,721,l),
(496,761,o),
(433,817,o),
(384,855,c)
);
}
);
vertWidth = 1000;
width = 1000;
}
);
note = cid11182;
unicode = 21010;
}
{
glyphname = uni522E;
layers = (
{
layerId = m01;
shapes = (
{
closed = 1;
nodes = (
(530,13,l),
(120,13,l),
(120,-17,l),
(530,-17,l)
);
},
{
closed = 1;
nodes = (
(337,758,l),
(308,751,l),
(308,284,l),
(337,284,l)
);
},
{
closed = 1;
nodes = (
(543,299,l),
(103,299,l),
(103,-70,l),
(133,-70,l),
(133,269,l),
(514,269,l),
(514,-67,l),
(543,-67,l)
);
},
{
closed = 1;
nodes = (
(597,533,l),
(49,533,l),
(49,504,l),
(597,504,l)
);
},
{
closed = 1;
nodes = (
(525,830,l),
(427,787,o),
(226,752,o),
(63,730,c),
(68,722,o),
(72,712,o),
(74,705,c),
(239,725,o),
(438,760,o),
(551,807,c)
);
},
{
closed = 1;
nodes = (
(692,711,l),
(662,711,l),
(662,169,l),
(692,169,l)
);
},
{
closed = 1;
nodes = (
(901,812,l),
(871,812,l),
(871,-20,ls),
(871,-37,o),
(865,-42,o),
(847,-43,cs),
(831,-44,o),
(774,-45,o),
(706,-43,c),
(711,-52,o),
(716,-64,o),
(719,-72,c),
(803,-73,o),
(845,-73,o),
(868,-67,cs),
(889,-61,o),
(901,-49,o),
(901,-19,cs)
);
}
);
vertWidth = 1000;
width = 1000;
},
{
layerId = "94DDBC6A-1627-4027-9125-871D02041BCD";
shapes = (
{
closed = 1;
nodes = (
(429,85,l),
(138,85,l),
(138,-46,l),
(429,-46,l)
);
},
{
closed = 1;
nodes = (
(358,763,l),
(216,708,l),
(216,245,l),
(358,245,l)
);
},
{
closed = 1;
nodes = (
(512,320,l),
(65,320,l),
(65,-94,l),
(201,-94,l),
(201,189,l),
(369,189,l),
(369,-90,l),
(512,-90,l)
);
},
{
closed = 1;
nodes = (
(537,576,l),
(24,576,l),
(24,439,l),
(537,439,l)
);
},
{
closed = 1;
nodes = (
(420,850,l),
(322,809,o),
(166,779,o),
(20,764,c),
(36,734,o),
(55,682,o),
(60,649,c),
(215,663,o),
(393,691,o),
(526,743,c)
);
},
{
closed = 1;
nodes = (
(712,732,l),
(571,732,l),
(571,160,l),
(712,160,l)
);
},
{
closed = 1;
nodes = (
(936,834,l),
(792,834,l),
(792,77,ls),
(792,58,o),
(784,52,o),
(765,52,cs),
(743,52,o),
(677,52,o),
(614,55,c),
(635,14,o),
(658,-54,o),
(664,-96,c),
(756,-96,o),
(828,-91,o),
(875,-68,cs),
(921,-44,o),
(936,-5,o),
(936,76,cs)
);
}
);
vertWidth = 1000;
width = 1000;
}
);
note = cid11219;
unicode = 21038;
}
{
glyphname = uni524A;
layers = (
{
layerId = m01;
shapes = (
{
closed = 1;
nodes = (
(666,712,l),
(636,712,l),
(636,169,l),
(666,169,l)
);
},
{
closed = 1;
nodes = (
(901,813,l),
(871,813,l),
(871,-17,ls),
(871,-36,o),
(864,-42,o),
(845,-43,cs),
(827,-44,o),
(767,-45,o),
(690,-43,c),
(696,-52,o),
(701,-65,o),
(704,-71,c),
(796,-72,o),
(842,-72,o),
(866,-66,cs),
(888,-61,o),
(901,-49,o),
(901,-16,cs)
);
},
{
closed = 1;
nodes = (
(477,197,l),
(124,197,l),
(124,168,l),
(477,168,l)
);
},
{
closed = 1;
nodes = (
(481,366,l),
(124,366,l),
(124,336,l),
(481,336,l)
);
},
{
closed = 1;
nodes = (
(314,831,l),
(284,831,l),
(284,518,l),
(314,518,l)
);
},
{
closed = 1;
nodes = (
(502,533,l),
(473,533,l),
(473,-23,ls),
(473,-38,o),
(467,-43,o),
(452,-44,cs),
(437,-44,o),
(385,-45,o),
(321,-43,c),
(326,-52,o),
(330,-64,o),
(332,-70,c),
(412,-71,o),
(453,-71,o),
(474,-66,cs),
(494,-60,o),
(502,-49,o),
(502,-23,cs)
);
},
{
closed = 1;
nodes = (
(81,780,l),
(117,714,o),
(152,630,o),
(166,577,c),
(194,590,l),
(180,643,o),
(144,726,o),
(107,791,c)
);
},
{
closed = 1;
nodes = (
(512,800,l),
(485,733,o),
(442,645,o),
(409,587,c),
(434,575,l),
(468,631,o),
(513,718,o),
(543,786,c)
);
},
{
closed = 1;
nodes = (
(488,533,l),
(100,533,l),
(100,-71,l),
(130,-71,l),
(130,503,l),
(488,503,l)
);
}
);
vertWidth = 1000;
width = 1000;
},
{
layerId = "94DDBC6A-1627-4027-9125-871D02041BCD";
shapes = (
{
closed = 1;
nodes = (
(712,727,l),
(571,727,l),
(571,160,l),
(712,160,l)
);
},
{
closed = 1;
nodes = (
(936,834,l),
(792,834,l),
(792,77,ls),
(792,58,o),
(784,52,o),
(765,52,cs),
(743,52,o),
(677,52,o),
(614,55,c),
(635,14,o),
(658,-54,o),
(664,-96,c),
(756,-96,o),
(828,-91,o),
(875,-68,cs),
(921,-44,o),
(936,-5,o),
(936,76,cs)
);
},
{
closed = 1;
nodes = (
(495,212,l),
(116,212,l),
(116,91,l),
(495,91,l)
);
},
{
closed = 1;
nodes = (
(495,376,l),
(116,376,l),
(116,255,l),
(495,255,l)
);
},
{
closed = 1;
nodes = (
(360,856,l),
(216,856,l),
(216,472,l),
(360,472,l)
);
},
{
closed = 1;
nodes = (
(513,552,l),
(373,552,l),
(373,55,ls),
(373,42,o),
(369,39,o),
(356,38,cs),
(343,38,o),
(301,38,o),
(269,40,c),
(286,4,o),
(303,-56,o),
(307,-95,c),
(375,-95,o),
(424,-93,o),
(463,-71,cs),
(503,-49,o),
(513,-11,o),
(513,52,cs)
);
},
{
closed = 1;
nodes = (
(24,769,l),
(50,705,o),
(74,625,o),
(82,574,c),
(208,620,l),
(197,671,o),
(170,749,o),
(143,809,c)
);
},
{
closed = 1;
nodes = (
(420,817,l),
(410,753,o),
(388,668,o),
(367,612,c),
(484,575,l),
(507,626,o),
(534,703,o),
(560,779,c)
);
},
{
closed = 1;
nodes = (
(446,552,l),
(68,552,l),
(68,-95,l),
(206,-95,l),
(206,417,l),
(446,417,l)
);
}
);
vertWidth = 1000;
width = 1000;
}
);
note = cid11258;
unicode = 21066;
}
{
glyphname = uni5269;
layers = (
{
layerId = m01;
shapes = (
{
closed = 1;
nodes = (
(701,712,l),
(672,712,l),
(672,169,l),
(701,169,l)
);
},
{
closed = 1;
nodes = (
(245,568,l),
(215,568,l),
(215,241,l),
(245,241,l)
);
},
{
closed = 1;
nodes = (
(901,815,l),
(871,815,l),
(871,-18,ls),
(871,-35,o),
(865,-40,o),
(848,-41,cs),
(833,-42,o),
(780,-42,o),
(715,-41,c),
(721,-50,o),
(725,-62,o),
(727,-69,c),
(808,-70,o),
(848,-69,o),
(869,-65,cs),
(890,-59,o),
(901,-48,o),
(901,-17,cs)
);
},
{
closed = 1;
nodes = (
(229,482,l),
(66,482,l),
(66,453,l),
(229,453,l)
);
},
{
closed = 1;
nodes = (
(623,630,l),
(52,630,l),
(52,601,l),
(623,601,l)
);
},
{
closed = 1;
nodes = (
(352,766,l),
(322,762,l),
(322,-71,l),
(352,-71,l)
);
},
{
closed = 1;
nodes = (
(59,280,l),
(111,293,o),
(168,307,o),
(231,322,c),
(228,350,l),
(160,334,o),
(98,320,o),
(50,310,c)
);
},
{
closed = 1;
nodes = (
(326,308,l),
(260,193,o),
(143,68,o),
(43,4,c),
(50,-1,o),
(60,-11,o),
(65,-19,c),
(164,50,o),
(282,180,o),
(351,297,c)
);
},
{
closed = 1;
nodes = (
(580,507,l),
(549,480,o),
(490,451,o),
(440,429,c),
(445,423,o),
(450,413,o),
(453,407,c),
(504,427,o),
(565,456,o),
(607,485,c)
);
},
{
closed = 1;
nodes = (
(549,821,l),
(450,786,o),
(240,764,o),
(77,754,c),
(81,746,o),
(85,735,o),
(86,728,c),
(253,737,o),
(462,760,o),
(574,799,c)
);
},
{
closed = 1;
nodes = (
(458,568,l),
(429,568,l),
(429,296,ls),
(429,255,o),
(441,247,o),
(486,247,cs),
(495,247,o),
(567,247,o),
(577,247,cs),
(613,247,o),
(623,267,o),
(626,346,c),
(617,348,o),
(606,352,o),
(599,358,c),
(597,284,o),
(593,275,o),
(572,275,cs),
(557,275,o),
(498,275,o),
(487,275,cs),
(462,275,o),
(458,278,o),
(458,296,cs)
);
},
{
closed = 1;
nodes = (
(328,241,l),
(381,204,o),
(542,72,o),
(589,29,c),
(606,55,l),
(564,89,o),
(393,227,o),
(346,260,c)
);
}
);
vertWidth = 1000;
width = 1000;
},
{
layerId = "94DDBC6A-1627-4027-9125-871D02041BCD";
shapes = (
{
closed = 1;
nodes = (
(751,732,l),
(622,732,l),
(622,160,l),
(751,160,l)
);
},
{
closed = 1;
nodes = (
(229,528,l),
(130,528,l),
(130,222,l),
(229,222,l)
);
},
{
closed = 1;
nodes = (
(949,854,l),
(809,854,l),
(809,68,ls),
(809,52,o),
(803,46,o),
(787,46,cs),
(770,46,o),
(718,46,o),
(672,48,c),
(690,9,o),
(709,-52,o),
(714,-91,c),
(795,-91,o),
(854,-86,o),
(895,-64,cs),
(936,-41,o),
(949,-5,o),
(949,67,cs)
);
},
{
closed = 1;
nodes = (
(189,478,l),
(53,478,l),
(53,382,l),
(189,382,l)
);
},
{
closed = 1;
nodes = (
(595,666,l),
(41,666,l),
(41,546,l),
(595,546,l)
);
},
{
closed = 1;
nodes = (
(383,786,l),
(255,764,l),
(255,-95,l),
(383,-95,l)
);
},
{
closed = 1;
nodes = (
(65,236,l),
(110,252,o),
(154,267,o),
(200,284,c),
(188,367,l),
(129,353,o),
(78,341,o),
(36,333,c)
);
},
{
closed = 1;
nodes = (
(278,314,l),
(226,211,o),
(127,106,o),
(26,49,c),
(55,24,o),
(96,-27,o),
(116,-59,c),
(221,14,o),
(316,145,o),
(374,279,c)
);
},
{
closed = 1;
nodes = (
(536,498,l),
(511,472,o),
(471,446,o),
(434,427,c),
(446,406,o),
(459,373,o),
(464,353,c),
(507,368,o),
(560,391,o),
(605,421,c)
);
},
{
closed = 1;
nodes = (
(484,859,l),
(390,830,o),
(226,808,o),
(57,801,c),
(72,771,o),
(88,720,o),
(92,689,c),
(268,692,o),
(459,717,o),
(581,753,c)
);
},
{
closed = 1;
nodes = (
(504,526,l),
(407,526,l),
(407,339,ls),
(407,256,o),
(421,229,o),
(491,229,cs),
(505,229,o),
(515,229,o),
(528,229,cs),
(578,229,o),
(602,252,o),
(611,332,c),
(585,339,o),
(546,353,o),
(529,367,c),
(527,323,o),
(524,315,o),
(515,315,cs),
(514,315,o),
(512,315,o),
(510,315,cs),
(505,315,o),
(504,317,o),
(504,340,cs)
);
},
{
closed = 1;
nodes = (
(283,183,l),
(351,136,o),
(469,45,o),
(526,-9,c),
(601,108,l),
(563,135,o),
(403,229,o),
(350,254,c)
);
}
);
vertWidth = 1000;
width = 1000;
}
);
note = cid11306;
unicode = 21097;
}
{
glyphname = uni526F;
layers = (
{
layerId = m01;
shapes = (
{
closed = 1;
nodes = (
(691,712,l),
(662,712,l),
(662,169,l),
(691,169,l)
);
},
{
closed = 1;
nodes = (
(901,813,l),
(871,813,l),
(871,-19,ls),
(871,-37,o),
(865,-42,o),
(847,-43,cs),
(831,-44,o),
(774,-45,o),
(706,-43,c),
(711,-52,o),
(716,-64,o),
(719,-71,c),
(803,-72,o),
(845,-72,o),
(868,-66,cs),
(889,-61,o),
(901,-49,o),
(901,-18,cs)
);
},
{
closed = 1;
nodes = (
(594,780,l),
(71,780,l),
(71,751,l),
(594,751,l)
);
},
{
closed = 1;
nodes = (
(555,33,l),
(116,33,l),
(116,4,l),
(555,4,l)
);
},
{
closed = 1;
nodes = (
(550,196,l),
(116,196,l),
(116,167,l),
(550,167,l)
);
},
{
closed = 1;
nodes = (
(348,336,l),
(318,336,l),
(318,19,l),
(348,19,l)
);
},
{
closed = 1;
nodes = (
(569,351,l),
(98,351,l),
(98,-67,l),
(128,-67,l),
(128,322,l),
(540,322,l),
(540,-52,l),
(569,-52,l)
);
},
{
closed = 1;
nodes = (
(166,475,l),
(166,626,l),
(496,626,l),
(496,475,l)
);
},
{
closed = 1;
nodes = (
(525,656,l),
(136,656,l),
(136,446,l),
(525,446,l)
);
}
);
vertWidth = 1000;
width = 1000;
},
{
layerId = "94DDBC6A-1627-4027-9125-871D02041BCD";
shapes = (
{
closed = 1;
nodes = (
(733,732,l),
(596,732,l),
(596,160,l),
(733,160,l)
);
},
{
closed = 1;
nodes = (
(943,834,l),
(802,834,l),
(802,75,ls),
(802,58,o),
(795,52,o),
(778,52,cs),
(758,52,o),
(700,52,o),
(645,55,c),
(665,14,o),
(686,-53,o),
(691,-94,c),
(777,-94,o),
(842,-89,o),
(886,-65,cs),
(930,-42,o),
(943,-3,o),
(943,74,cs)
);
},
{
closed = 1;
nodes = (
(562,813,l),
(39,813,l),
(39,692,l),
(562,692,l)
);
},
{
closed = 1;
nodes = (
(472,43,l),
(115,43,l),
(115,-66,l),
(472,-66,l)
);
},
{
closed = 1;
nodes = (
(462,195,l),
(128,195,l),
(128,92,l),
(462,92,l)
);
},
{
closed = 1;
nodes = (
(367,286,l),
(239,286,l),
(239,-11,l),
(367,-11,l)
);
},
{
closed = 1;
nodes = (
(556,349,l),
(56,349,l),
(56,-95,l),
(187,-95,l),
(187,240,l),
(419,240,l),
(419,-91,l),
(556,-91,l)
);
},
{
closed = 1;
nodes = (
(228,495,l),
(228,547,l),
(376,547,l),
(376,495,l)
);
},
{
closed = 1;
nodes = (
(514,656,l),
(98,656,l),
(98,387,l),
(514,387,l)
);
}
);
vertWidth = 1000;
width = 1000;
}
);
note = cid11317;
unicode = 21103;
}
{
glyphname = uni52D2;
layers = (
{
layerId = m01;
shapes = (
{
closed = 1;
nodes = (
(905,594,l),
(503,594,l),
(503,565,l),
(905,565,l)
);
},
{
closed = 1;
nodes = (
(891,594,l),
(891,585,ls),
(880,157,o),
(867,10,o),
(839,-22,cs),
(830,-34,o),
(820,-36,o),
(803,-35,cs),
(783,-35,o),
(727,-35,o),
(668,-30,c),
(673,-38,o),
(676,-51,o),
(677,-60,c),
(727,-64,o),
(779,-65,o),
(807,-65,cs),
(834,-64,o),
(851,-58,o),
(866,-39,cs),
(898,1,o),
(909,137,o),
(920,572,cs),
(920,577,o),
(920,594,o),
(920,594,c)
);
},
{
closed = 1;
nodes = (
(681,826,l),
(680,497,o),
(677,122,o),
(442,-51,c),
(451,-55,o),
(464,-64,o),
(470,-69,c),
(707,114,o),
(709,485,o),
(711,826,c)
);
},
{
closed = 1;
nodes = (
(534,721,l),
(57,721,l),
(57,692,l),
(534,692,l)
);
},
{
closed = 1;
nodes = (
(539,156,l),
(49,156,l),
(49,127,l),
(539,127,l)
);
},
{
closed = 1;
nodes = (
(312,572,l),
(282,572,l),
(282,449,l),
(312,449,l)
);
},
{
closed = 1;
nodes = (
(312,451,l),
(282,451,l),
(282,262,l),
(282,262,l),
(282,-70,l),
(312,-70,l),
(312,262,l),
(312,262,l)
);
},
{
closed = 1;
nodes = (
(199,828,l),
(170,828,l),
(170,551,l),
(429,551,l),
(429,828,l),
(400,828,l),
(400,580,l),
(199,580,l)
);
},
{
closed = 1;
nodes = (
(121,274,l),
(121,436,l),
(475,436,l),
(475,274,l)
);
},
{
closed = 1;
nodes = (
(504,466,l),
(91,466,l),
(91,245,l),
(504,245,l)
);
}
);
vertWidth = 1000;
width = 1000;
},
{
layerId = "94DDBC6A-1627-4027-9125-871D02041BCD";
shapes = (
{
closed = 1;
nodes = (
(857,633,l),
(514,633,l),
(514,499,l),
(857,499,l)
);
},
{
closed = 1;
nodes = (
(812,633,l),
(812,604,ls),
(806,226,o),
(799,86,o),
(778,57,cs),
(769,43,o),
(760,39,o),
(745,39,cs),
(725,39,o),
(691,39,o),
(652,43,c),
(674,5,o),
(690,-54,o),
(692,-92,c),
(740,-93,o),
(786,-93,o),
(817,-86,cs),
(852,-79,o),
(876,-67,o),
(901,-29,cs),
(932,17,o),
(939,166,o),
(947,572,cs),
(948,589,o),
(948,633,o),
(948,633,c)
);
},
{
closed = 1;
nodes = (
(610,851,l),
(609,417,o),
(624,167,o),
(437,12,c),
(470,-10,o),
(515,-63,o),
(535,-98,c),
(747,81,o),
(746,385,o),
(747,851,c)
);
},
{
closed = 1;
nodes = (
(535,774,l),
(39,774,l),
(39,666,l),
(535,666,l)
);
},
{
closed = 1;
nodes = (
(534,176,l),
(29,176,l),
(29,55,l),
(534,55,l)
);
},
{
closed = 1;
nodes = (
(357,577,l),
(223,577,l),
(223,451,l),
(357,451,l)
);
},
{
closed = 1;
nodes = (
(350,459,l),
(229,459,l),
(229,240,l),
(223,240,l),
(223,-96,l),
(357,-96,l),
(357,240,l),
(350,240,l)
);
},
{
closed = 1;
nodes = (
(249,854,l),
(130,854,l),
(130,521,l),
(452,521,l),
(452,854,l),
(327,854,l),
(327,629,l),
(249,629,l)
);
},
{
closed = 1;
nodes = (
(181,317,l),
(181,378,l),
(398,378,l),
(398,317,l)
);
},
{
closed = 1;
nodes = (
(519,485,l),
(66,485,l),
(66,209,l),
(519,209,l)
);
}
);
vertWidth = 1000;
width = 1000;
}
);
note = cid11479;
unicode = (21202,63826);
}
{
glyphname = uni5347;
layers = (
{
layerId = m01;
shapes = (
{
closed = 1;
nodes = (
(326,707,l),
(296,707,l),
(296,426,ls),
(296,251,o),
(273,78,o),
(49,-52,c),
(56,-57,o),
(66,-66,o),
(70,-73,c),
(299,61,o),
(326,240,o),
(326,426,cs)
);
},
{
closed = 1;
nodes = (
(713,807,l),
(683,807,l),
(683,-71,l),
(713,-71,l)
);
},
{
closed = 1;
nodes = (
(942,420,l),
(59,420,l),
(59,390,l),
(942,390,l)
);
},
{
closed = 1;
nodes = (
(514,805,l),
(421,747,o),
(231,693,o),
(71,656,c),
(76,649,o),
(81,639,o),
(83,632,c),
(246,670,o),
(433,722,o),
(542,783,c)
);
}
);
vertWidth = 1000;
width = 1000;
},
{
layerId = "94DDBC6A-1627-4027-9125-871D02041BCD";
shapes = (
{
closed = 1;
nodes = (
(405,702,l),
(259,702,l),
(259,426,ls),
(259,279,o),
(235,119,o),
(38,17,c),
(72,-8,o),
(122,-62,o),
(144,-96,c),
(375,30,o),
(405,236,o),
(405,424,cs)
);
},
{
closed = 1;
nodes = (
(770,842,l),
(619,842,l),
(619,-95,l),
(770,-95,l)
);
},
{
closed = 1;
nodes = (
(965,463,l),
(37,463,l),
(37,324,l),
(965,324,l)
);
},
{
closed = 1;
nodes = (
(478,856,l),
(368,794,o),
(208,734,o),
(54,698,c),
(72,667,o),
(95,614,o),
(103,579,c),
(262,614,o),
(438,664,o),
(579,733,c)
);
}
);
vertWidth = 1000;
width = 1000;
}
);
note = cid11686;
unicode = 21319;
}
{
glyphname = uni535C;
layers = (
{
layerId = m01;
shapes = (
{
closed = 1;
nodes = (
(429,830,l),
(400,830,l),
(400,-70,l),
(429,-70,l)
);
},
{
closed = 1;
nodes = (
(406,497,l),
(557,434,o),
(745,339,o),
(842,277,c),
(860,302,l),
(761,365,o),
(573,457,o),
(423,518,c)
);
}
);
vertWidth = 1000;
width = 1000;
},
{
layerId = "94DDBC6A-1627-4027-9125-871D02041BCD";
shapes = (
{
closed = 1;
nodes = (
(496,850,l),
(328,850,l),
(328,-95,l),
(496,-95,l)
);
},
{
closed = 1;
nodes = (
(397,452,l),
(532,385,o),
(703,283,o),
(787,220,c),
(882,367,l),
(793,425,o),
(617,518,o),
(484,578,c)
);
}
);
vertWidth = 1000;
width = 1000;
}
);
note = cid11713;
unicode = 21340;
}
{
glyphname = uni5360;
layers = (
{
layerId = m01;
shapes = (
{
closed = 1;
nodes = (
(920,627,l),
(482,627,l),
(482,598,l),
(920,598,l)
);
},
{
closed = 1;
nodes = (
(810,19,l),
(191,19,l),
(191,-10,l),
(810,-10,l)
);
},
{
closed = 1;
nodes = (
(497,831,l),
(468,831,l),
(468,350,l),
(497,350,l)
);
},
{
closed = 1;
nodes = (
(825,369,l),
(176,369,l),
(176,-70,l),
(205,-70,l),
(205,339,l),
(796,339,l),
(796,-66,l),
(825,-66,l)
);
}
);
vertWidth = 1000;
width = 1000;
},
{
layerId = "94DDBC6A-1627-4027-9125-871D02041BCD";
shapes = (
{
closed = 1;
nodes = (
(950,689,l),
(486,689,l),
(486,553,l),
(950,553,l)
);
},
{
closed = 1;
nodes = (
(779,89,l),
(211,89,l),
(211,-48,l),
(779,-48,l)
);
},
{
closed = 1;
nodes = (
(571,854,l),
(420,854,l),
(420,341,l),
(571,341,l)
);
},
{
closed = 1;
nodes = (
(875,403,l),
(122,403,l),
(122,-92,l),
(265,-92,l),
(265,268,l),
(725,268,l),
(725,-87,l),
(875,-87,l)
);
}
);
vertWidth = 1000;
width = 1000;
}
);
note = cid11718;
unicode = 21344;
}
{
glyphname = uni5398;
layers = (
{
layerId = m01;
shapes = (
{
closed = 1;
nodes = (
(935,759,l),
(167,759,l),
(167,729,l),
(935,729,l)
);
},
{
closed = 1;
nodes = (
(868,162,l),
(273,162,l),
(273,132,l),
(868,132,l)
);
},
{
closed = 1;
nodes = (
(952,-13,l),
(201,-13,l),
(201,-42,l),
(952,-42,l)
);
},
{
closed = 1;
nodes = (
(182,759,l),
(153,759,l),
(153,458,ls),
(153,306,o),
(143,101,o),
(50,-49,c),
(57,-53,o),
(69,-61,o),
(74,-68,c),
(170,87,o),
(182,303,o),
(182,458,cs)
);
},
{
closed = 1;
nodes = (
(323,310,l),
(323,444,l),
(813,444,l),
(813,310,l)
);
},
{
closed = 1;
nodes = (
(323,473,l),
(323,606,l),
(813,606,l),
(813,473,l)
);
},
{
closed = 1;
nodes = (
(843,635,l),
(293,635,l),
(293,280,l),
(843,280,l)
);
},
{
closed = 1;
nodes = (
(581,617,l),
(552,617,l),
(552,-29,l),
(581,-29,l)
);
}
);
vertWidth = 1000;
width = 1000;
},
{
layerId = "94DDBC6A-1627-4027-9125-871D02041BCD";
shapes = (
{
closed = 1;
nodes = (
(957,818,l),
(187,818,l),
(187,683,l),
(957,683,l)
);
},
{
closed = 1;
nodes = (
(911,212,l),
(271,212,l),
(271,92,l),
(911,92,l)
);
},
{
closed = 1;
nodes = (
(965,49,l),
(204,49,l),
(204,-79,l),
(965,-79,l)
);
},
{
closed = 1;
nodes = (
(248,818,l),
(102,818,l),
(102,504,ls),
(102,349,o),
(96,127,o),
(14,-20,c),
(51,-33,o),
(116,-70,o),
(144,-93,c),
(233,69,o),
(248,331,o),
(248,504,cs)
);
},
{
closed = 1;
nodes = (
(432,364,l),
(432,400,l),
(743,400,l),
(743,364,l)
);
},
{
closed = 1;
nodes = (
(432,503,l),
(432,538,l),
(743,538,l),
(743,503,l)
);
},
{
closed = 1;
nodes = (
(883,649,l),
(298,649,l),
(298,253,l),
(883,253,l)
);
},
{
closed = 1;
nodes = (
(657,593,l),
(514,593,l),
(514,-20,l),
(657,-20,l)
);
}
);
vertWidth = 1000;
width = 1000;
}
);
note = cid11800;
unicode = 21400;
}
{
glyphname = uni53CB;
layers = (
{
layerId = m01;
shapes = (
{
closed = 1;
nodes = (
(313,436,l),
(411,162,o),
(622,-10,o),
(935,-72,c),
(939,-64,o),
(947,-54,o),
(954,-47,c),
(639,11,o),
(431,180,o),
(338,445,c)
);
},
{
closed = 1;
nodes = (
(770,455,l),
(770,447,l),
(687,160,o),
(450,13,o),
(204,-46,c),
(211,-52,o),
(219,-64,o),
(222,-72,c),
(475,-7,o),
(713,141,o),
(802,446,c),
(782,457,l),
(776,455,l)
);
},
{
closed = 1;
nodes = (
(75,646,l),
(75,617,l),
(931,617,l),
(931,646,l)
);
},
{
closed = 1;
nodes = (
(329,455,l),
(321,425,l),
(775,425,l),
(775,455,l)
);
},
{
closed = 1;
nodes = (
(361,832,l),
(357,771,o),
(337,202,o),
(47,-24,c),
(55,-28,o),
(68,-36,o),
(74,-41,c),
(366,194,o),
(384,759,o),
(390,832,c)
);
}
);
vertWidth = 1000;
width = 1000;
},
{
layerId = "94DDBC6A-1627-4027-9125-871D02041BCD";
shapes = (
{
closed = 1;
nodes = (
(311,378,l),
(417,127,o),
(582,-27,o),
(873,-92,c),
(893,-51,o),
(938,15,o),
(970,45,c),
(695,92,o),
(524,220,o),
(442,415,c)
);
},
{
closed = 1;
nodes = (
(710,488,l),
(710,463,l),
(654,241,o),
(482,91,o),
(253,31,c),
(283,1,o),
(320,-58,o),
(338,-95,c),
(602,-9,o),
(790,153,o),
(868,452,c),
(766,494,l),
(740,488,l)
);
},
{
closed = 1;
nodes = (
(61,716,l),
(61,572,l),
(939,572,l),
(939,716,l)
);
},
{
closed = 1;
nodes = (
(352,488,l),
(310,346,l),
(726,346,l),
(726,488,l)
);
},
{
closed = 1;
nodes = (
(310,855,l),
(303,715,o),
(302,284,o),
(17,48,c),
(65,16,o),
(107,-24,o),
(134,-65,c),
(441,215,o),
(454,674,o),
(462,855,c)
);
}
);
vertWidth = 1000;
width = 1000;
}
);
note = cid11864;
unicode = 21451;
}
{
glyphname = uni53CC;
layers = (
{
layerId = m01;
shapes = (
{
closed = 1;
nodes = (
(885,750,l),
(496,750,l),
(496,720,l),
(885,720,l)
);
},
{
closed = 1;
nodes = (
(879,750,l),
(874,750,l),
(874,741,l),
(814,329,o),
(619,69,o),
(406,-47,c),
(414,-53,o),
(423,-64,o),
(427,-71,c),
(645,54,o),
(841,313,o),
(905,746,c),
(885,752,l)
);
},
{
closed = 1;
nodes = (
(544,712,l),
(598,346,o),
(704,62,o),
(933,-73,c),
(939,-65,o),
(950,-55,o),
(958,-49,c),
(730,77,o),
(625,360,o),
(574,716,c)
);
},
{
closed = 1;
nodes = (
(427,750,l),
(73,750,l),
(73,720,l),
(427,720,l)
);
},
{
closed = 1;
nodes = (
(416,750,l),
(411,750,l),
(411,741,l),
(366,347,o),
(218,79,o),
(49,-47,c),
(57,-52,o),
(67,-62,o),
(72,-69,c),
(245,66,o),
(393,332,o),
(440,746,c),
(422,752,l)
);
},
{
closed = 1;
nodes = (
(119,531,l),
(250,416,o),
(389,254,o),
(454,137,c),
(479,158,l),
(414,270,o),
(274,431,o),
(140,548,c)
);
}
);
vertWidth = 1000;
width = 1000;
},
{
layerId = "94DDBC6A-1627-4027-9125-871D02041BCD";
shapes = (
{
closed = 1;
nodes = (
(845,783,l),
(489,783,l),
(489,645,l),
(845,645,l)
);
},
{
closed = 1;
nodes = (
(827,783,l),
(802,783,l),
(802,753,l),
(772,395,o),
(638,138,o),
(397,33,c),
(429,4,o),
(471,-56,o),
(492,-95,c),
(767,51,o),
(909,314,o),
(946,763,c),
(851,788,l)
);
},
{
closed = 1;
nodes = (
(507,620,l),
(567,285,o),
(658,44,o),
(883,-95,c),
(905,-56,o),
(951,2,o),
(984,30,c),
(782,140,o),
(689,363,o),
(641,641,c)
);
},
{
closed = 1;
nodes = (
(371,783,l),
(51,783,l),
(51,645,l),
(371,645,l)
);
},
{
closed = 1;
nodes = (
(349,783,l),
(324,783,l),
(324,750,l),
(297,437,o),
(194,152,o),
(13,23,c),
(48,-3,o),
(94,-58,o),
(117,-95,c),
(327,77,o),
(434,361,o),
(468,762,c),
(374,788,l)
);
},
{
closed = 1;
nodes = (
(33,486,l),
(187,361,o),
(337,195,o),
(398,84,c),
(511,198,l),
(444,304,o),
(288,462,o),
(132,582,c)
);
}
);
vertWidth = 1000;
width = 1000;
}
);
note = cid11890;
unicode = 21452;
}
{
glyphname = uni53D4;
layers = (
{
layerId = m01;
shapes = (
{
closed = 1;
nodes = (
(889,750,l),
(518,750,l),
(518,720,l),
(889,720,l)
);
},
{
closed = 1;
nodes = (
(537,466,l),
(51,466,l),
(51,437,l),
(537,437,l)
);
},
{
closed = 1;
nodes = (
(484,673,l),
(280,673,l),
(280,644,l),
(484,644,l)
);
},
{
closed = 1;
nodes = (
(882,750,l),
(877,750,l),
(877,741,l),
(824,321,o),
(644,64,o),
(437,-51,c),
(445,-57,o),
(454,-66,o),
(458,-74,c),
(670,50,o),
(851,305,o),
(907,746,c),
(888,752,l)
);
},
{
closed = 1;
nodes = (
(565,711,l),
(614,346,o),
(713,67,o),
(935,-70,c),
(941,-63,o),
(951,-53,o),
(959,-47,c),
(739,79,o),
(640,360,o),
(593,715,c)
);
},
{
closed = 1;
nodes = (
(294,830,l),
(265,830,l),
(265,453,l),
(294,453,l)
);
},
{
closed = 1;
nodes = (
(307,444,l),
(277,444,l),
(277,-26,ls),
(277,-38,o),
(273,-42,o),
(259,-43,cs),
(245,-44,o),
(198,-44,o),
(139,-43,c),
(143,-51,o),
(149,-63,o),
(151,-70,c),
(224,-70,o),
(261,-70,o),
(280,-65,cs),
(300,-59,o),
(307,-49,o),
(307,-26,cs)
);
},
{
closed = 1;
nodes = (
(155,332,l),
(134,238,o),
(98,143,o),
(51,76,c),
(59,72,o),
(73,63,o),
(78,60,c),
(123,129,o),
(161,229,o),
(183,326,c)
);
},
{
closed = 1;
nodes = (
(400,322,l),
(439,255,o),
(479,168,o),
(497,109,c),
(524,121,l),
(505,178,o),
(466,266,o),
(424,333,c)
);
}
);
vertWidth = 1000;
width = 1000;
},
{
layerId = "94DDBC6A-1627-4027-9125-871D02041BCD";
shapes = (
{
closed = 1;
nodes = (
(842,799,l),
(513,799,l),
(513,661,l),
(842,661,l)
);
},
{
closed = 1;
nodes = (
(544,527,l),
(25,527,l),
(25,394,l),
(544,394,l)
);
},
{
closed = 1;
nodes = (
(491,743,l),
(297,743,l),
(297,612,l),
(491,612,l)
);
},
{
closed = 1;
nodes = (
(837,799,l),
(806,799,l),
(806,769,l),
(783,389,o),
(666,143,o),
(452,27,c),
(485,-5,o),
(526,-59,o),
(545,-96,c),
(787,46,o),
(921,336,o),
(949,779,c),
(860,804,l)
);
},
{
closed = 1;
nodes = (
(532,631,l),
(592,260,o),
(700,40,o),
(888,-94,c),
(910,-56,o),
(957,-2,o),
(989,25,c),
(822,131,o),
(713,339,o),
(661,652,c)
);
},
{
closed = 1;
nodes = (
(336,855,l),
(195,855,l),
(195,463,l),
(336,463,l)
);
},
{
closed = 1;
nodes = (
(356,414,l),
(216,414,l),
(216,49,ls),
(216,38,o),
(212,35,o),
(199,35,cs),
(186,34,o),
(143,34,o),
(109,36,c),
(126,0,o),
(146,-57,o),
(151,-95,c),
(216,-95,o),
(266,-93,o),
(306,-72,cs),
(346,-51,o),
(356,-16,o),
(356,46,cs)
);
},
{
closed = 1;
nodes = (
(73,358,l),
(62,270,o),
(39,172,o),
(9,111,c),
(41,100,o),
(100,77,o),
(128,60,c),
(157,127,o),
(186,234,o),
(200,333,c)
);
},
{
closed = 1;
nodes = (
(370,333,l),
(396,260,o),
(421,161,o),
(430,93,c),
(557,132,l),
(544,199,o),
(516,296,o),
(490,367,c)
);
}
);
vertWidth = 1000;
width = 1000;
}
);
note = cid11901;
unicode = 21460;
}
{
glyphname = uni53D7;
layers = (
{
layerId = m01;
shapes = (
{
closed = 1;
nodes = (
(918,540,l),
(82,540,l),
(82,351,l),
(111,351,l),
(111,511,l),
(889,511,l),
(889,351,l),
(918,351,l)
);
},
{
closed = 1;
nodes = (
(771,362,l),
(180,362,l),
(180,332,l),
(771,332,l)
);
},
{
closed = 1;
nodes = (
(818,832,l),
(659,795,o),
(343,767,o),
(92,753,c),
(95,745,o),
(99,734,o),
(100,726,c),
(355,739,o),
(666,768,o),
(842,808,c)
);
},
{
closed = 1;
nodes = (
(172,703,l),
(205,656,o),
(240,593,o),
(255,553,c),
(281,565,l),
(267,603,o),
(231,666,o),
(197,712,c)
);
},
{
closed = 1;
nodes = (
(435,725,l),
(462,673,o),
(486,604,o),
(495,562,c),
(524,570,l),
(516,611,o),
(490,679,o),
(463,731,c)
);
},
{
closed = 1;
nodes = (
(805,733,l),
(774,672,o),
(718,584,o),
(676,531,c),
(698,518,l),
(740,570,o),
(794,652,o),
(831,718,c)
);
},
{
closed = 1;
nodes = (
(769,362,l),
(761,362,l),
(761,355,l),
(643,125,o),
(355,5,o),
(63,-47,c),
(69,-54,o),
(77,-65,o),
(80,-73,c),
(376,-16,o),
(667,103,o),
(795,349,c),
(776,364,l)
);
},
{
closed = 1;
nodes = (
(244,318,l),
(353,119,o),
(611,-25,o),
(920,-74,c),
(924,-65,o),
(932,-55,o),
(938,-48,c),
(627,-3,o),
(374,139,o),
(270,330,c)
);
}
);
vertWidth = 1000;
width = 1000;
},
{
layerId = "94DDBC6A-1627-4027-9125-871D02041BCD";
shapes = (
{
closed = 1;
nodes = (
(945,569,l),
(57,569,l),
(57,321,l),
(193,321,l),
(193,444,l),
(803,444,l),
(803,321,l),
(945,321,l)
);
},
{
closed = 1;
nodes = (
(724,387,l),
(215,387,l),
(215,262,l),
(724,262,l)
);
},
{
closed = 1;
nodes = (
(823,855,l),
(632,819,o),
(334,796,o),
(66,789,c),
(79,758,o),
(96,702,o),
(98,666,c),
(367,672,o),
(680,693,o),
(920,737,c)
);
},
{
closed = 1;
nodes = (
(156,650,l),
(174,615,o),
(192,567,o),
(198,538,c),
(332,576,l),
(325,606,o),
(304,651,o),
(283,685,c)
);
},
{
closed = 1;
nodes = (
(414,671,l),
(430,631,o),
(444,579,o),
(448,546,c),
(583,579,l),
(578,613,o),
(561,663,o),
(542,700,c)
);
},
{
closed = 1;
nodes = (
(723,707,l),
(711,657,o),
(685,591,o),
(662,545,c),
(782,511,l),
(810,551,o),
(845,611,o),
(879,673,c)
);
},
{
closed = 1;
nodes = (
(700,387,l),
(670,387,l),
(670,363,l),
(601,173,o),
(389,65,o),
(32,38,c),
(62,8,o),
(105,-58,o),
(121,-95,c),
(487,-53,o),
(720,89,o),
(824,334,c),
(725,392,l)
);
},
{
closed = 1;
nodes = (
(228,219,l),
(372,36,o),
(586,-60,o),
(884,-95,c),
(903,-55,o),
(942,9,o),
(973,42,c),
(687,64,o),
(465,137,o),
(355,270,c)
);
}
);
vertWidth = 1000;
width = 1000;
}
);
note = cid11905;
unicode = 21463;
}
{
glyphname = uni53E5;
layers = (
{
layerId = m01;
shapes = (
{
closed = 1;
nodes = (
(618,474,l),
(264,474,l),
(264,445,l),
(588,445,l),
(588,161,l),
(264,161,l),
(264,131,l),
(618,131,l)
);
},
{
closed = 1;
nodes = (
(279,474,l),
(249,474,l),
(249,55,l),
(279,55,l)
);
},
{
closed = 1;
nodes = (
(902,671,l),
(257,671,l),
(257,642,l),
(902,642,l)
);
},
{
closed = 1;
nodes = (
(884,671,l),
(884,664,ls),
(868,177,o),
(847,7,o),
(807,-32,cs),
(795,-45,o),
(781,-47,o),
(759,-47,cs),
(732,-47,o),
(656,-46,o),
(574,-39,c),
(580,-47,o),
(582,-59,o),
(583,-68,c),
(653,-74,o),
(726,-76,o),
(762,-75,cs),
(797,-74,o),
(816,-68,o),
(834,-48,cs),
(878,0,o),
(895,165,o),
(914,649,cs),
(914,655,o),
(914,671,o),
(914,671,c)
);
},
{
closed = 1;
nodes = (
(309,830,l),
(253,655,o),
(164,488,o),
(54,380,c),
(62,376,o),
(75,366,o),
(81,361,c),
(187,474,o),
(278,640,o),
(337,823,c)
);
}
);
vertWidth = 1000;
width = 1000;
},
{
layerId = "94DDBC6A-1627-4027-9125-871D02041BCD";
shapes = (
{
closed = 1;
nodes = (
(630,492,l),
(289,492,l),
(289,363,l),
(485,363,l),
(485,229,l),
(289,229,l),
(289,100,l),
(630,100,l)
);
},
{
closed = 1;
nodes = (
(338,492,l),
(197,492,l),
(197,33,l),
(338,33,l)
);
},
{
closed = 1;
nodes = (
(884,729,l),
(259,729,l),
(259,585,l),
(884,585,l)
);
},
{
closed = 1;
nodes = (
(804,729,l),
(804,699,ls),
(795,290,o),
(783,106,o),
(749,71,cs),
(736,57,o),
(725,53,o),
(704,53,cs),
(675,53,o),
(617,53,o),
(552,58,c),
(580,15,o),
(602,-54,o),
(604,-96,c),
(665,-97,o),
(730,-99,o),
(772,-90,cs),
(819,-82,o),
(851,-68,o),
(885,-21,cs),
(928,37,o),
(941,205,o),
(953,659,cs),
(954,678,o),
(955,729,o),
(955,729,c)
);
},
{
closed = 1;
nodes = (
(256,855,l),
(208,697,o),
(117,545,o),
(10,456,c),
(45,432,o),
(108,380,o),
(135,353,c),
(244,460,o),
(346,635,o),
(408,817,c)
);
}
);
vertWidth = 1000;
width = 1000;
}
);
note = cid11929;
unicode = (21477,63750);
}
{
glyphname = uni53EE;
layers = (
{
layerId = m01;
shapes = (
{
closed = 1;
nodes = (
(950,742,l),
(394,742,l),
(394,713,l),
(950,713,l)
);
},
{
closed = 1;
nodes = (
(723,726,l),
(694,726,l),
(694,-12,ls),
(694,-32,o),
(687,-38,o),
(667,-39,cs),
(646,-41,o),
(575,-41,o),
(490,-39,c),
(496,-49,o),
(501,-62,o),
(504,-70,c),
(600,-70,o),
(659,-71,o),
(686,-66,cs),
(712,-60,o),
(723,-45,o),
(723,-12,cs)
);
},
{
closed = 1;
nodes = (
(352,714,l),
(97,714,l),
(97,685,l),
(323,685,l),
(323,203,l),
(97,203,l),
(97,174,l),
(352,174,l)
);
},
{
closed = 1;
nodes = (
(112,714,l),
(82,714,l),
(82,78,l),
(112,78,l)
);
}
);
vertWidth = 1000;
width = 1000;
},
{
layerId = "94DDBC6A-1627-4027-9125-871D02041BCD";
shapes = (
{
closed = 1;
nodes = (
(976,784,l),
(444,784,l),
(444,642,l),
(976,642,l)
);
},
{
closed = 1;
nodes = (
(810,722,l),
(655,722,l),
(655,81,ls),
(655,63,o),
(647,57,o),
(627,57,cs),
(607,57,o),
(532,56,o),
(475,60,c),
(498,20,o),
(525,-51,o),
(532,-95,c),
(625,-95,o),
(693,-92,o),
(743,-67,cs),
(793,-42,o),
(810,0,o),
(810,78,cs)
);
},
{
closed = 1;
nodes = (
(417,761,l),
(134,761,l),
(134,621,l),
(278,621,l),
(278,286,l),
(134,286,l),
(134,145,l),
(417,145,l)
);
},
{
closed = 1;
nodes = (
(200,761,l),
(59,761,l),
(59,53,l),
(200,53,l)
);
}
);
vertWidth = 1000;
width = 1000;
}
);
note = cid11942;
unicode = 21486;
}
{
glyphname = uni53F8;
layers = (
{
layerId = m01;
shapes = (
{
closed = 1;
nodes = (
(861,762,l),
(97,762,l),
(97,732,l),
(861,732,l)
);
},
{
closed = 1;
nodes = (
(715,601,l),
(101,601,l),
(101,572,l),
(715,572,l)
);
},
{
closed = 1;
nodes = (
(871,762,l),
(843,762,l),
(843,-9,ls),
(843,-28,o),
(838,-34,o),
(819,-35,cs),
(797,-36,o),
(725,-37,o),
(643,-35,c),
(649,-46,o),
(654,-60,o),
(657,-70,c),
(745,-70,o),
(807,-70,o),
(835,-64,cs),
(863,-58,o),
(871,-43,o),
(871,-8,cs)
);
},
{
closed = 1;
nodes = (
(202,430,l),
(173,430,l),
(173,41,l),
(202,41,l)
);
},
{
closed = 1;
nodes = (
(607,430,l),
(188,430,l),
(188,400,l),
(578,400,l),
(578,146,l),
(188,146,l),
(188,117,l),
(607,117,l)
);
}
);
vertWidth = 1000;
width = 1000;
},
{
layerId = "94DDBC6A-1627-4027-9125-871D02041BCD";
shapes = (
{
closed = 1;
nodes = (
(813,797,l),
(74,797,l),
(74,659,l),
(813,659,l)
);
},
{
closed = 1;
nodes = (
(671,607,l),
(85,607,l),
(85,481,l),
(671,481,l)
);
},
{
closed = 1;
nodes = (
(914,797,l),
(764,797,l),
(764,81,ls),
(764,64,o),
(757,58,o),
(739,58,cs),
(720,58,o),
(656,57,o),
(606,61,c),
(626,20,o),
(648,-52,o),
(652,-96,c),
(745,-96,o),
(808,-93,o),
(854,-67,cs),
(901,-42,o),
(914,0,o),
(914,78,cs)
);
},
{
closed = 1;
nodes = (
(282,421,l),
(140,421,l),
(140,-2,l),
(282,-2,l)
);
},
{
closed = 1;
nodes = (
(578,421,l),
(209,421,l),
(209,297,l),
(435,297,l),
(435,194,l),
(209,194,l),
(209,70,l),
(578,70,l)
);
}
);
vertWidth = 1000;
width = 1000;
}
);
note = cid11955;
unicode = 21496;
}
{
glyphname = uni5401;
layers = (
{
layerId = m01;
shapes = (
{
closed = 1;
nodes = (
(350,721,l),
(100,721,l),
(100,692,l),
(321,692,l),
(321,239,l),
(100,239,l),
(100,210,l),
(350,210,l)
);
},
{
closed = 1;
nodes = (
(112,721,l),
(83,721,l),
(83,113,l),
(112,113,l)
);
},
{
closed = 1;
nodes = (
(932,768,l),
(411,768,l),
(411,739,l),
(932,739,l)
);
},
{
closed = 1;
nodes = (
(950,430,l),
(378,430,l),
(378,401,l),
(950,401,l)
);
},
{
closed = 1;
nodes = (
(685,759,l),
(656,759,l),
(656,-15,ls),
(656,-32,o),
(649,-36,o),
(631,-37,cs),
(611,-38,o),
(545,-39,o),
(471,-37,c),
(477,-47,o),
(482,-62,o),
(484,-70,c),
(568,-70,o),
(622,-71,o),
(648,-65,cs),
(674,-59,o),
(685,-47,o),
(685,-14,cs)
);
}
);
vertWidth = 1000;
width = 1000;
},
{
layerId = "94DDBC6A-1627-4027-9125-871D02041BCD";
shapes = (
{
closed = 1;
nodes = (
(393,771,l),
(119,771,l),
(119,631,l),
(254,631,l),
(254,321,l),
(119,321,l),
(119,180,l),
(393,180,l)
);
},
{
closed = 1;
nodes = (
(196,771,l),
(60,771,l),
(60,78,l),
(196,78,l)
);
},
{
closed = 1;
nodes = (
(953,800,l),
(443,800,l),
(443,661,l),
(953,661,l)
);
},
{
closed = 1;
nodes = (
(975,471,l),
(415,471,l),
(415,331,l),
(975,331,l)
);
},
{
closed = 1;
nodes = (
(769,725,l),
(620,725,l),
(620,74,ls),
(620,58,o),
(612,51,o),
(594,51,cs),
(575,51,o),
(513,51,o),
(460,54,c),
(482,8,o),
(504,-57,o),
(510,-95,c),
(593,-95,o),
(661,-91,o),
(708,-68,cs),
(755,-45,o),
(769,-6,o),
(769,72,cs)
);
}
);
vertWidth = 1000;
width = 1000;
}
);
note = cid11965;
unicode = 21505;
}
{
glyphname = uni5403;
layers = (
{
layerId = m01;
shapes = (
{
closed = 1;
nodes = (
(332,705,l),
(99,705,l),
(99,676,l),
(303,676,l),
(303,228,l),
(99,228,l),
(99,198,l),
(332,198,l)
);
},
{
closed = 1;
nodes = (
(113,705,l),
(84,705,l),
(84,114,l),
(113,114,l)
);
},
{
closed = 1;
nodes = (
(950,664,l),
(480,664,l),
(480,634,l),
(950,634,l)
);
},
{
closed = 1;
nodes = (
(828,465,l),
(439,465,l),
(439,435,l),
(828,435,l)
);
},
{
closed = 1;
nodes = (
(539,831,l),
(498,694,o),
(432,565,o),
(350,478,c),
(358,474,o),
(371,465,o),
(376,460,c),
(456,549,o),
(525,681,o),
(568,824,c)
);
},
{
closed = 1;
nodes = (
(828,465,l),
(823,465,l),
(410,115,o),
(394,56,o),
(394,14,cs),
(394,-30,o),
(429,-54,o),
(510,-54,cs),
(858,-54,ls),
(926,-54,o),
(942,-34,o),
(949,124,c),
(940,126,o),
(926,131,o),
(919,135,c),
(915,-4,o),
(907,-25,o),
(858,-25,cs),
(506,-25,ls),
(458,-25,o),
(425,-13,o),
(425,16,cs),
(425,51,o),
(451,106,o),
(849,449,cs),
(852,451,o),
(855,453,o),
(857,456,c),
(836,467,l)
);
}
);
vertWidth = 1000;
width = 1000;
},
{
layerId = "94DDBC6A-1627-4027-9125-871D02041BCD";
shapes = (
{
closed = 1;
nodes = (
(374,761,l),
(134,761,l),
(134,621,l),
(243,621,l),
(243,321,l),
(134,321,l),
(134,180,l),
(374,180,l)
);
},
{
closed = 1;
nodes = (
(191,761,l),
(59,761,l),
(59,98,l),
(191,98,l)
);
},
{
closed = 1;
nodes = (
(952,722,l),
(488,722,l),
(488,587,l),
(952,587,l)
);
},
{
closed = 1;
nodes = (
(803,503,l),
(469,503,l),
(469,369,l),
(803,369,l)
);
},
{
closed = 1;
nodes = (
(515,855,l),
(479,737,o),
(412,621,o),
(333,551,c),
(365,529,o),
(424,481,o),
(449,456,c),
(532,541,o),
(611,679,o),
(658,820,c)
);
},
{
closed = 1;
nodes = (
(804,503,l),
(781,503,l),
(417,215,o),
(398,148,o),
(398,75,cs),
(399,-16,o),
(465,-77,o),
(614,-77,cs),
(791,-77,ls),
(916,-77,o),
(971,-37,o),
(985,152,c),
(943,160,o),
(897,176,o),
(857,198,c),
(852,78,o),
(836,64,o),
(800,64,cs),
(611,64,ls),
(571,64,o),
(548,72,o),
(548,96,cs),
(548,130,o),
(573,175,o),
(914,427,c),
(922,434,o),
(929,444,o),
(934,452,c),
(836,507,l)
);
}
);
vertWidth = 1000;
width = 1000;
}
);
note = cid11968;
unicode = 21507;
}
{
glyphname = uni5404;
layers = (
{
layerId = m01;
shapes = (
{
closed = 1;
nodes = (
(773,8,l),
(230,8,l),
(230,-21,l),
(773,-21,l)
);
},
{
closed = 1;
nodes = (
(385,836,l),
(312,712,o),
(191,598,o),
(68,524,c),
(76,520,o),
(88,509,o),
(93,504,c),
(213,581,o),
(334,696,o),
(414,826,c)
);
},
{
closed = 1;
nodes = (
(749,717,l),
(742,717,l),
(742,711,l),
(605,499,o),
(283,327,o),
(34,270,c),
(38,265,o),
(46,252,o),
(49,243,c),
(303,307,o),
(626,477,o),
(773,705,c),
(755,719,l)
);
},
{
closed = 1;
nodes = (
(258,670,l),
(401,477,o),
(676,311,o),
(936,245,c),
(940,253,o),
(948,264,o),
(955,270,c),
(693,331,o),
(420,497,o),
(281,682,c)
);
},
{
closed = 1;
nodes = (
(785,291,l),
(213,291,l),
(213,-77,l),
(242,-77,l),
(242,261,l),
(756,261,l),
(756,-74,l),
(785,-74,l)
);
},
{
closed = 1;
nodes = (
(752,717,l),
(311,717,l),
(293,687,l),
(752,687,l)
);
}
);
vertWidth = 1000;
width = 1000;
},
{
layerId = "94DDBC6A-1627-4027-9125-871D02041BCD";
shapes = (
{
closed = 1;
nodes = (
(759,64,l),
(268,64,l),
(268,-63,l),
(759,-63,l)
);
},
{
closed = 1;
nodes = (
(358,867,l),
(290,746,o),
(167,636,o),
(37,572,c),
(68,547,o),
(121,492,o),
(144,463,c),
(275,543,o),
(412,675,o),
(496,819,c)
);
},
{
closed = 1;
nodes = (
(731,764,l),
(701,764,l),
(701,742,l),
(591,557,o),
(314,410,o),
(21,360,c),
(47,328,o),
(78,268,o),
(92,230,c),
(415,298,o),
(709,457,o),
(860,704,c),
(755,771,l)
);
},
{
closed = 1;
nodes = (
(199,644,l),
(356,442,o),
(596,292,o),
(897,237,c),
(917,277,o),
(958,341,o),
(991,374,c),
(696,415,o),
(446,546,o),
(321,701,c)
);
},
{
closed = 1;
nodes = (
(820,290,l),
(194,290,l),
(194,-94,l),
(342,-94,l),
(342,159,l),
(663,159,l),
(663,-91,l),
(820,-91,l)
);
},
{
closed = 1;
nodes = (
(733,764,l),
(374,764,l),
(287,640,l),
(733,640,l)
);
}
);
vertWidth = 1000;
width = 1000;
}
);
note = cid11969;
unicode = 21508;
}
{
glyphname = uni540A;
layers = (
{
layerId = m01;
shapes = (
{
closed = 1;
nodes = (
(225,507,l),
(225,745,l),
(775,745,l),
(775,507,l)
);
},
{
closed = 1;
nodes = (
(805,774,l),
(195,774,l),
(195,478,l),
(805,478,l)
);
},
{
closed = 1;
nodes = (
(513,486,l),
(483,486,l),
(483,-71,l),
(513,-71,l)
);
},
{
closed = 1;
nodes = (
(856,338,l),
(138,338,l),
(138,-9,l),
(168,-9,l),
(168,309,l),
(856,309,l)
);
},
{
closed = 1;
nodes = (
(870,338,l),
(841,338,l),
(841,52,ls),
(841,39,o),
(837,35,o),
(821,34,cs),
(805,33,o),
(752,32,o),
(679,34,c),
(684,25,o),
(690,16,o),
(692,7,c),
(775,7,o),
(820,7,o),
(843,13,cs),
(865,19,o),
(870,29,o),
(870,52,cs)
);
}
);
vertWidth = 1000;
width = 1000;
},
{
layerId = "94DDBC6A-1627-4027-9125-871D02041BCD";
shapes = (
{
closed = 1;
nodes = (
(322,577,l),
(322,685,l),
(676,685,l),
(676,577,l)
);
},
{
closed = 1;
nodes = (
(838,821,l),
(170,821,l),
(170,441,l),
(838,441,l)
);
},
{
closed = 1;
nodes = (
(579,484,l),
(425,484,l),
(425,-95,l),
(579,-95,l)
);
},
{
closed = 1;
nodes = (
(803,357,l),
(105,357,l),
(105,-45,l),
(250,-45,l),
(250,219,l),
(803,219,l)
);
},
{
closed = 1;
nodes = (
(907,357,l),
(758,357,l),
(758,105,ls),
(758,93,o),
(752,90,o),
(737,90,cs),
(724,90,o),
(666,90,o),
(628,92,c),
(646,55,o),
(665,-1,o),
(671,-42,c),
(744,-42,o),
(802,-41,o),
(848,-21,cs),
(894,0,o),
(907,37,o),
(907,102,cs)
);
}
);
vertWidth = 1000;
width = 1000;
}
);
note = cid11976;
unicode = 21514;
}
{
glyphname = uni5410;
layers = (
{
layerId = m01;
shapes = (
{
closed = 1;
nodes = (
(661,816,l),
(631,816,l),
(631,-10,l),
(661,-10,l)
);
},
{
closed = 1;
nodes = (
(951,5,l),
(317,5,l),
(317,-24,l),
(951,-24,l)
);
},
{
closed = 1;
nodes = (
(920,498,l),
(385,498,l),
(385,469,l),
(920,469,l)
);
},
{
closed = 1;
nodes = (
(351,720,l),
(100,720,l),
(100,691,l),
(322,691,l),
(322,246,l),
(100,246,l),
(100,217,l),
(351,217,l)
);
},
{
closed = 1;
nodes = (
(112,720,l),
(83,720,l),
(83,116,l),
(112,116,l)
);
}
);
vertWidth = 1000;
width = 1000;
},
{
layerId = "94DDBC6A-1627-4027-9125-871D02041BCD";
shapes = (
{
closed = 1;
nodes = (
(749,838,l),
(597,838,l),
(597,10,l),
(749,10,l)
);
},
{
closed = 1;
nodes = (
(978,88,l),
(343,88,l),
(343,-56,l),
(978,-56,l)
);
},
{
closed = 1;
nodes = (
(950,565,l),
(414,565,l),
(414,423,l),
(950,423,l)
);
},
{
closed = 1;
nodes = (
(394,758,l),
(140,758,l),
(140,624,l),
(255,624,l),
(255,316,l),
(140,316,l),
(140,182,l),
(394,182,l)
);
},
{
closed = 1;
nodes = (
(195,758,l),
(59,758,l),
(59,96,l),
(195,96,l)
);
}
);
vertWidth = 1000;
width = 1000;
}
);
note = cid11984;
unicode = 21520;
}
{
glyphname = uni5426;
layers = (
{
layerId = m01;
shapes = (
{
closed = 1;
nodes = (
(805,19,l),
(204,19,l),
(204,-11,l),
(805,-11,l)
);
},
{
closed = 1;
nodes = (
(817,316,l),
(189,316,l),
(189,-71,l),
(219,-71,l),
(219,287,l),
(787,287,l),
(787,-67,l),
(817,-67,l)
);
},
{
closed = 1;
nodes = (
(929,767,l),
(73,767,l),
(73,737,l),
(929,737,l)
);
},
{
closed = 1;
nodes = (
(573,750,l),
(454,604,o),
(248,484,o),
(51,415,c),
(58,408,o),
(68,395,o),
(72,388,c),
(267,465,o),
(474,583,o),
(599,737,c)
);
},
{
closed = 1;
nodes = (
(578,593,l),
(702,544,o),
(849,459,o),
(924,399,c),
(944,423,l),
(869,480,o),
(721,565,o),
(599,614,c)
);
},
{
closed = 1;
nodes = (
(515,671,l),
(485,642,l),
(485,348,l),
(515,348,l),
(515,670,l)
);
}
);
vertWidth = 1000;
width = 1000;
},
{
layerId = "94DDBC6A-1627-4027-9125-871D02041BCD";
shapes = (
{
closed = 1;
nodes = (
(751,61,l),
(242,61,l),
(242,-64,l),
(751,-64,l)
);
},
{
closed = 1;
nodes = (
(853,312,l),
(157,312,l),
(157,-94,l),
(309,-94,l),
(309,187,l),
(694,187,l),
(694,-94,l),
(853,-94,l)
);
},
{
closed = 1;
nodes = (
(943,809,l),
(56,809,l),
(56,674,l),
(943,674,l)
);
},
{
closed = 1;
nodes = (
(505,753,l),
(408,630,o),
(219,516,o),
(14,458,c),
(45,426,o),
(89,369,o),
(110,334,c),
(325,409,o),
(531,548,o),
(644,693,c)
);
},
{
closed = 1;
nodes = (
(581,521,l),
(682,475,o),
(807,401,o),
(876,346,c),
(983,454,l),
(910,505,o),
(788,574,o),
(686,617,c)
);
},
{
closed = 1;
nodes = (
(570,703,l),
(423,556,l),
(423,335,l),
(572,335,l),
(572,701,l)
);
}
);
vertWidth = 1000;
width = 1000;
}
);
note = cid12015;
unicode = 21542;
}
{
glyphname = uni543B;
layers = (
{
layerId = m01;
shapes = (
{
closed = 1;
nodes = (
(906,636,l),
(454,636,l),
(454,607,l),
(906,607,l)
);
},
{
closed = 1;
nodes = (
(497,828,l),
(464,673,o),
(395,519,o),
(318,430,c),
(325,426,o),
(338,416,o),
(343,411,c),
(420,505,o),
(491,664,o),
(526,823,c)
);
},
{
closed = 1;
nodes = (
(590,628,l),
(539,409,o),
(441,221,o),
(308,101,c),
(315,95,o),
(328,84,o),
(332,79,c),
(465,206,o),
(566,393,o),
(620,622,c)
);
},
{
closed = 1;
nodes = (
(742,626,l),
(691,337,o),
(613,100,o),
(447,-48,c),
(455,-54,o),
(467,-65,o),
(472,-70,c),
(637,87,o),
(717,322,o),
(772,621,c)
);
},
{
closed = 1;
nodes = (
(894,636,l),
(894,627,ls),
(872,174,o),
(848,12,o),
(813,-27,cs),
(802,-40,o),
(792,-41,o),
(772,-41,cs),
(752,-41,o),
(698,-41,o),
(639,-36,c),
(644,-44,o),
(647,-57,o),
(648,-66,c),
(698,-69,o),
(749,-71,o),
(776,-70,cs),
(805,-69,o),
(822,-64,o),
(839,-44,cs),
(879,2,o),
(900,150,o),
(923,614,cs),
(923,620,o),
(923,636,o),
(923,636,c)
);
},
{
closed = 1;
nodes = (
(331,720,l),
(100,720,l),
(100,691,l),
(301,691,l),
(301,246,l),
(100,246,l),
(100,217,l),
(331,217,l)
);
},
{
closed = 1;
nodes = (
(113,720,l),
(84,720,l),
(84,125,l),
(113,125,l)
);
}
);
vertWidth = 1000;
width = 1000;
},
{
layerId = "94DDBC6A-1627-4027-9125-871D02041BCD";
shapes = (
{
closed = 1;
nodes = (
(869,680,l),
(477,680,l),
(477,551,l),
(869,551,l)
);
},
{
closed = 1;
nodes = (
(466,854,l),
(438,700,o),
(384,546,o),
(309,454,c),
(340,436,o),
(397,395,o),
(421,373,c),
(499,481,o),
(563,654,o),
(599,829,c)
);
},
{
closed = 1;
nodes = (
(545,611,l),
(518,432,o),
(421,253,o),
(292,146,c),
(322,126,o),
(366,84,o),
(388,55,c),
(527,185,o),
(636,392,o),
(672,593,c)
);
},
{
closed = 1;
nodes = (
(687,610,l),
(652,343,o),
(573,126,o),
(412,2,c),
(441,-20,o),
(491,-70,o),
(509,-95,c),
(679,52,o),
(770,294,o),
(816,593,c)
);
},
{
closed = 1;
nodes = (
(824,680,l),
(824,650,ls),
(809,239,o),
(787,83,o),
(762,50,cs),
(750,34,o),
(740,30,o),
(724,30,cs),
(705,30,o),
(673,30,o),
(636,34,c),
(656,-2,o),
(671,-58,o),
(673,-94,c),
(719,-95,o),
(763,-96,o),
(793,-89,cs),
(829,-82,o),
(854,-70,o),
(881,-31,cs),
(918,19,o),
(938,179,o),
(957,618,c),
(959,635,o),
(960,680,o),
(960,680,c)
);
},
{
closed = 1;
nodes = (
(352,757,l),
(131,757,l),
(131,626,l),
(230,626,l),
(230,310,l),
(131,310,l),
(131,178,l),
(352,178,l)
);
},
{
closed = 1;
nodes = (
(180,757,l),
(59,757,l),
(59,95,l),
(180,95,l)
);
}
);
vertWidth = 1000;
width = 1000;
}
);
note = cid12054;
unicode = 21563;
}
{
glyphname = uni543E;
layers = (
{
layerId = m01;
shapes = (
{
closed = 1;
nodes = (
(951,410,l),
(50,410,l),
(50,381,l),
(951,381,l)
);
},
{
closed = 1;
nodes = (
(878,794,l),
(133,794,l),
(133,765,l),
(878,765,l)
);
},
{
closed = 1;
nodes = (
(787,13,l),
(220,13,l),
(220,-16,l),
(787,-16,l)
);
},
{
closed = 1;
nodes = (
(802,271,l),
(201,271,l),
(201,-77,l),
(231,-77,l),
(231,242,l),
(772,242,l),
(772,-74,l),
(802,-74,l)
);
},
{
closed = 1;
nodes = (
(413,782,l),
(385,664,o),
(342,491,o),
(310,393,c),
(341,393,l),
(371,488,o),
(414,660,o),
(443,782,c)
);
},
{
closed = 1;
nodes = (
(749,615,l),
(176,615,l),
(176,586,l),
(720,586,l),
(720,395,l),
(749,395,l)
);
}
);
vertWidth = 1000;
width = 1000;
},
{
layerId = "94DDBC6A-1627-4027-9125-871D02041BCD";
shapes = (
{
closed = 1;
nodes = (
(961,453,l),
(42,453,l),
(42,329,l),
(961,329,l)
);
},
{
closed = 1;
nodes = (
(894,821,l),
(110,821,l),
(110,698,l),
(894,698,l)
);
},
{
closed = 1;
nodes = (
(752,62,l),
(254,62,l),
(254,-62,l),
(752,-62,l)
);
},
{
closed = 1;
nodes = (
(838,274,l),
(169,274,l),
(169,-94,l),
(312,-94,l),
(312,152,l),
(688,152,l),
(688,-94,l),
(838,-94,l)
);
},
{
closed = 1;
nodes = (
(349,773,l),
(331,652,o),
(299,504,o),
(271,405,c),
(426,405,l),
(450,500,o),
(478,648,o),
(500,773,c)
);
},
{
closed = 1;
nodes = (
(788,639,l),
(159,639,l),
(159,521,l),
(639,521,l),
(639,382,l),
(788,382,l)
);
}
);
vertWidth = 1000;
width = 1000;
}
);
note = cid12058;
unicode = 21566;
}
{
glyphname = uni5446;
layers = (
{
layerId = m01;
shapes = (
{
closed = 1;
nodes = (
(217,492,l),
(217,758,l),
(791,758,l),
(791,492,l)
);
},
{
closed = 1;
nodes = (
(820,787,l),
(187,787,l),
(187,463,l),
(820,463,l)
);
},
{
closed = 1;
nodes = (
(514,470,l),
(483,470,l),
(483,-70,l),
(514,-70,l)
);
},
{
closed = 1;
nodes = (
(930,328,l),
(70,328,l),
(70,299,l),
(930,299,l)
);
},
{
closed = 1;
nodes = (
(459,323,l),
(369,187,o),
(194,55,o),
(41,-2,c),
(49,-9,o),
(58,-18,o),
(63,-26,c),
(213,36,o),
(390,170,o),
(483,311,c)
);
},
{
closed = 1;
nodes = (
(513,309,l),
(605,172,o),
(781,43,o),
(935,-16,c),
(940,-9,o),
(949,2,o),
(957,9,c),
(801,63,o),
(627,188,o),
(539,322,c)
);
}
);
vertWidth = 1000;
width = 1000;
},
{
layerId = "94DDBC6A-1627-4027-9125-871D02041BCD";
shapes = (
{
closed = 1;
nodes = (
(304,565,l),
(304,683,l),
(695,683,l),
(695,565,l)
);
},
{
closed = 1;
nodes = (
(849,816,l),
(160,816,l),
(160,431,l),
(849,431,l)
);
},
{
closed = 1;
nodes = (
(572,482,l),
(422,482,l),
(422,-94,l),
(572,-94,l)
);
},
{
closed = 1;
nodes = (
(938,367,l),
(64,367,l),
(64,231,l),
(938,231,l)
);
},
{
closed = 1;
nodes = (
(396,299,l),
(322,193,o),
(179,100,o),
(22,55,c),
(54,24,o),
(99,-34,o),
(122,-71,c),
(286,-9,o),
(428,108,o),
(517,252,c)
);
},
{
closed = 1;
nodes = (
(482,249,l),
(572,106,o),
(709,-7,o),
(875,-65,c),
(898,-25,o),
(944,36,o),
(978,68,c),
(819,109,o),
(677,194,o),
(604,295,c)
);
}
);
vertWidth = 1000;
width = 1000;
}
);
note = cid12071;
unicode = 21574;
}
{
glyphname = uni544A;
layers = (
{
layerId = m01;
shapes = (
{
closed = 1;
nodes = (
(941,443,l),
(63,443,l),
(63,413,l),
(941,413,l)
);
},
{
closed = 1;
nodes = (
(513,831,l),
(483,831,l),
(483,427,l),
(513,427,l)
);
},
{
closed = 1;
nodes = (
(855,672,l),
(219,672,l),
(219,643,l),
(855,643,l)
);
},
{
closed = 1;
nodes = (
(794,9,l),
(216,9,l),
(216,-20,l),
(794,-20,l)
);
},
{
closed = 1;
nodes = (
(810,298,l),
(201,298,l),
(201,-70,l),
(231,-70,l),
(231,269,l),
(780,269,l),
(780,-70,l),
(810,-70,l)
);
},
{
closed = 1;
nodes = (
(275,816,l),
(233,698,o),
(169,581,o),
(93,503,c),
(102,499,o),
(115,490,o),
(121,486,c),
(192,567,o),
(259,685,o),
(304,809,c)
);
}
);
vertWidth = 1000;
width = 1000;
},
{
layerId = "94DDBC6A-1627-4027-9125-871D02041BCD";
shapes = (
{
closed = 1;
nodes = (
(960,493,l),
(41,493,l),
(41,359,l),
(960,359,l)
);
},
{
closed = 1;
nodes = (
(576,855,l),
(425,855,l),
(425,410,l),
(576,410,l)
);
},
{
closed = 1;
nodes = (
(874,733,l),
(207,733,l),
(207,602,l),
(874,602,l)
);
},
{
closed = 1;
nodes = (
(759,71,l),
(241,71,l),
(241,-63,l),
(759,-63,l)
);
},
{
closed = 1;
nodes = (
(847,306,l),
(166,306,l),
(166,-95,l),
(316,-95,l),
(316,173,l),
(689,173,l),
(689,-92,l),
(847,-92,l)
);
},
{
closed = 1;
nodes = (
(206,856,l),
(176,746,o),
(118,630,o),
(55,556,c),
(92,539,o),
(157,503,o),
(189,480,c),
(251,559,o),
(314,690,o),
(354,820,c)
);
}
);
vertWidth = 1000;
width = 1000;
}
);
note = cid12077;
unicode = 21578;
}
{
glyphname = uni5462;
layers = (
{
layerId = m01;
shapes = (
{
closed = 1;
nodes = (
(330,735,l),
(100,735,l),
(100,706,l),
(301,706,l),
(301,261,l),
(100,261,l),
(100,232,l),
(330,232,l)
);
},
{
closed = 1;
nodes = (
(112,735,l),
(83,735,l),
(83,127,l),
(112,127,l)
);
},
{
closed = 1;
nodes = (
(904,783,l),
(445,783,l),
(445,754,l),
(874,754,l),
(874,571,l),
(445,571,l),
(445,541,l),
(904,541,l)
);
},
{
closed = 1;
nodes = (
(459,783,l),
(430,783,l),
(430,436,ls),
(430,285,o),
(406,89,o),
(298,-52,c),
(306,-55,o),
(318,-62,o),
(324,-67,c),
(432,75,o),
(459,281,o),
(459,436,cs)
);
},
{
closed = 1;
nodes = (
(594,480,l),
(565,480,l),
(565,19,ls),
(565,-41,o),
(588,-53,o),
(663,-53,cs),
(680,-53,o),
(841,-53,o),
(859,-53,cs),
(932,-53,o),
(943,-19,o),
(949,106,c),
(939,108,o),
(927,113,o),
(920,120,c),
(915,-1,o),
(907,-23,o),
(860,-23,cs),
(823,-23,o),
(687,-23,o),
(660,-23,cs),
(605,-23,o),
(594,-15,o),
(594,18,cs)
);
},
{
closed = 1;
nodes = (
(881,400,l),
(813,340,o),
(684,273,o),
(571,222,c),
(576,215,o),
(581,205,o),
(584,199,c),
(699,250,o),
(828,315,o),
(908,378,c)
);
}
);
vertWidth = 1000;
width = 1000;
},
{
layerId = "94DDBC6A-1627-4027-9125-871D02041BCD";
shapes = (
{
closed = 1;
nodes = (
(359,758,l),
(129,758,l),
(129,624,l),
(229,624,l),
(229,297,l),
(129,297,l),
(129,163,l),
(359,163,l)
);
},
{
closed = 1;
nodes = (
(181,758,l),
(53,758,l),
(53,87,l),
(181,87,l)
);
},
{
closed = 1;
nodes = (
(942,820,l),
(477,820,l),
(477,694,l),
(802,694,l),
(802,612,l),
(477,612,l),
(477,486,l),
(942,486,l)
);
},
{
closed = 1;
nodes = (
(546,820,l),
(410,820,l),
(410,466,ls),
(410,319,o),
(393,113,o),
(298,-18,c),
(331,-32,o),
(390,-72,o),
(414,-95,c),
(519,49,o),
(546,300,o),
(546,466,cs)
);
},
{
closed = 1;
nodes = (
(709,458,l),
(573,458,l),
(573,88,ls),
(573,-40,o),
(601,-81,o),
(719,-81,cs),
(741,-81,o),
(807,-81,o),
(830,-81,cs),
(926,-81,o),
(961,-36,o),
(975,119,c),
(938,127,o),
(881,150,o),
(853,172,c),
(849,64,o),
(843,46,o),
(817,46,cs),
(803,46,o),
(752,46,o),
(740,46,cs),
(713,46,o),
(709,50,o),
(709,88,cs)
);
},
{
closed = 1;
nodes = (
(861,418,l),
(802,367,o),
(709,311,o),
(621,274,c),
(638,247,o),
(659,202,o),
(667,174,c),
(765,209,o),
(876,259,o),
(965,317,c)
);
}
);
vertWidth = 1000;
width = 1000;
}
);
note = cid12105;
unicode = 21602;
}
{
glyphname = uni5473;
layers = (
{
layerId = m01;
shapes = (
{
closed = 1;
nodes = (
(345,721,l),
(100,721,l),
(100,692,l),
(316,692,l),
(316,247,l),
(100,247,l),
(100,218,l),
(345,218,l)
);
},
{
closed = 1;
nodes = (
(114,721,l),
(84,721,l),
(84,113,l),
(114,113,l)
);
},
{
closed = 1;
nodes = (
(903,652,l),
(405,652,l),
(405,622,l),
(903,622,l)
);
},
{
closed = 1;
nodes = (
(941,408,l),
(373,408,l),
(373,378,l),
(941,378,l)
);
},
{
closed = 1;
nodes = (
(665,829,l),
(635,829,l),
(635,-70,l),
(665,-70,l)
);
},
{
closed = 1;
nodes = (
(615,400,l),
(546,241,o),
(420,94,o),
(289,19,c),
(297,13,o),
(306,3,o),
(312,-5,c),
(443,74,o),
(569,227,o),
(640,390,c)
);
},
{
closed = 1;
nodes = (
(661,388,l),
(718,242,o),
(832,82,o),
(936,0,c),
(942,8,o),
(952,19,o),
(960,24,c),
(855,99,o),
(742,253,o),
(686,398,c)
);
}
);
vertWidth = 1000;
width = 1000;
},
{
layerId = "94DDBC6A-1627-4027-9125-871D02041BCD";
shapes = (
{
closed = 1;
nodes = (
(380,760,l),
(144,760,l),
(144,626,l),
(243,626,l),
(243,299,l),
(144,299,l),
(144,165,l),
(380,165,l)
);
},
{
closed = 1;
nodes = (
(193,760,l),
(60,760,l),
(60,89,l),
(193,89,l)
);
},
{
closed = 1;
nodes = (
(937,703,l),
(429,703,l),
(429,565,l),
(937,565,l)
);
},
{
closed = 1;
nodes = (
(963,466,l),
(401,466,l),
(401,328,l),
(963,328,l)
);
},
{
closed = 1;
nodes = (
(748,851,l),
(601,851,l),
(601,-94,l),
(748,-94,l)
);
},
{
closed = 1;
nodes = (
(591,381,l),
(537,248,o),
(423,127,o),
(296,69,c),
(329,40,o),
(373,-12,o),
(397,-50,c),
(533,30,o),
(654,182,o),
(709,346,c)
);
},
{
closed = 1;
nodes = (
(658,349,l),
(704,199,o),
(792,50,o),
(887,-38,c),
(913,1,o),
(959,53,o),
(992,80,c),
(893,154,o),
(804,270,o),
(761,382,c)
);
}
);
vertWidth = 1000;
width = 1000;
}
);
note = cid12135;
unicode = 21619;
}
{
glyphname = uni5475;
layers = (
{
layerId = m01;
shapes = (
{
closed = 1;
nodes = (
(959,757,l),
(367,757,l),
(367,727,l),
(959,727,l)
);
},
{
closed = 1;
nodes = (
(852,741,l),
(822,741,l),
(822,-12,ls),
(822,-31,o),
(816,-37,o),
(796,-38,cs),
(775,-39,o),
(706,-40,o),
(622,-38,c),
(628,-48,o),
(633,-62,o),
(636,-69,c),
(730,-70,o),
(786,-70,o),
(813,-65,cs),
(840,-59,o),
(852,-46,o),
(852,-11,cs)
);
},
{
closed = 1;
nodes = (
(451,564,l),
(421,564,l),
(421,131,l),
(451,131,l)
);
},
{
closed = 1;
nodes = (
(690,564,l),
(436,564,l),
(436,534,l),
(660,534,l),
(660,232,l),
(436,232,l),
(436,203,l),
(690,203,l)
);
},
{
closed = 1;
nodes = (
(331,719,l),
(99,719,l),
(99,690,l),
(301,690,l),
(301,245,l),
(99,245,l),
(99,216,l),
(331,216,l)
);
},
{
closed = 1;
nodes = (
(111,719,l),
(82,719,l),
(82,111,l),
(111,111,l)
);
}
);
vertWidth = 1000;
width = 1000;
},
{
layerId = "94DDBC6A-1627-4027-9125-871D02041BCD";
shapes = (
{
closed = 1;
nodes = (
(975,792,l),
(391,792,l),
(391,650,l),
(975,650,l)
);
},
{
closed = 1;
nodes = (
(898,720,l),
(750,720,l),
(750,73,ls),
(750,56,o),
(743,51,o),
(724,51,cs),
(704,50,o),
(638,51,o),
(582,53,c),
(602,12,o),
(624,-53,o),
(630,-95,c),
(720,-96,o),
(788,-91,o),
(836,-68,cs),
(883,-46,o),
(898,-7,o),
(898,71,cs)
);
},
{
closed = 1;
nodes = (
(531,568,l),
(411,568,l),
(411,113,l),
(531,113,l)
);
},
{
closed = 1;
nodes = (
(704,568,l),
(478,568,l),
(478,442,l),
(584,442,l),
(584,296,l),
(478,296,l),
(478,170,l),
(704,170,l)
);
},
{
closed = 1;
nodes = (
(365,758,l),
(133,758,l),
(133,624,l),
(235,624,l),
(235,297,l),
(133,297,l),
(133,163,l),
(365,163,l)
);
},
{
closed = 1;
nodes = (
(186,758,l),
(59,758,l),
(59,83,l),
(186,83,l)
);
}
);
vertWidth = 1000;
width = 1000;
}
);
note = cid12137;
unicode = 21621;
}
{
glyphname = uni547C;
layers = (
{
layerId = m01;
shapes = (
{
closed = 1;
nodes = (
(953,337,l),
(343,337,l),
(343,308,l),
(953,308,l)
);
},
{
closed = 1;
nodes = (
(659,742,l),
(629,742,l),
(629,-19,ls),
(629,-35,o),
(623,-41,o),
(605,-41,cs),
(589,-42,o),
(532,-43,o),
(462,-41,c),
(468,-50,o),
(473,-63,o),
(475,-70,c),
(561,-70,o),
(604,-70,o),
(626,-65,cs),
(648,-59,o),
(659,-48,o),
(659,-18,cs)
);
},
{
closed = 1;
nodes = (
(876,804,l),
(765,770,o),
(543,742,o),
(366,726,c),
(370,719,o),
(374,709,o),
(376,702,c),
(556,717,o),
(775,744,o),
(901,780,c)
);
},
{
closed = 1;
nodes = (
(867,663,l),
(843,583,o),
(797,464,o),
(762,394,c),
(786,383,l),
(823,453,o),
(866,566,o),
(896,651,c)
);
},
{
closed = 1;
nodes = (
(402,637,l),
(439,559,o),
(473,455,o),
(484,387,c),
(513,395,l),
(502,463,o),
(466,566,o),
(427,645,c)
);
},
{
closed = 1;
nodes = (
(329,721,l),
(100,721,l),
(100,692,l),
(300,692,l),
(300,247,l),
(100,247,l),
(100,218,l),
(329,218,l)
);
},
{
closed = 1;
nodes = (
(114,721,l),
(84,721,l),
(84,113,l),
(114,113,l)
);
}
);
vertWidth = 1000;
width = 1000;
},
{
layerId = "94DDBC6A-1627-4027-9125-871D02041BCD";
shapes = (
{
closed = 1;
nodes = (
(975,376,l),
(375,376,l),
(375,239,l),
(975,239,l)
);
},
{
closed = 1;
nodes = (
(736,704,l),
(591,704,l),
(591,65,ls),
(591,48,o),
(585,43,o),
(567,43,cs),
(549,43,o),
(490,43,o),
(439,46,c),
(460,8,o),
(483,-55,o),
(489,-95,c),
(571,-95,o),
(633,-91,o),
(677,-68,cs),
(722,-46,o),
(736,-9,o),
(736,63,cs)
);
},
{
closed = 1;
nodes = (
(860,848,l),
(735,813,o),
(546,788,o),
(372,777,c),
(387,745,o),
(406,691,o),
(410,656,c),
(589,664,o),
(796,686,o),
(956,729,c)
);
},
{
closed = 1;
nodes = (
(825,662,l),
(809,588,o),
(777,490,o),
(748,428,c),
(863,385,l),
(894,442,o),
(932,531,o),
(967,616,c)
);
},
{
closed = 1;
nodes = (
(380,600,l),
(413,533,o),
(439,442,o),
(444,383,c),
(572,428,l),
(563,488,o),
(535,575,o),
(499,641,c)
);
},
{
closed = 1;
nodes = (
(360,760,l),
(132,760,l),
(132,626,l),
(232,626,l),
(232,299,l),
(132,299,l),
(132,165,l),
(360,165,l)
);
},
{
closed = 1;
nodes = (
(186,760,l),
(60,760,l),
(60,89,l),
(186,89,l)
);
}
);
vertWidth = 1000;
width = 1000;
}
);
note = cid12147;
unicode = 21628;
}
{
glyphname = uni548C;
layers = (
{
layerId = m01;
shapes = (
{
closed = 1;
nodes = (
(894,70,l),
(552,70,l),
(552,41,l),
(894,41,l)
);
},
{
closed = 1;
nodes = (
(904,723,l),
(540,723,l),
(540,-45,l),
(569,-45,l),
(569,694,l),
(875,694,l),
(875,-38,l),
(904,-38,l)
);
},
{
closed = 1;
nodes = (
(304,759,l),
(275,759,l),
(275,-70,l),
(304,-70,l)
);
},
{
closed = 1;
nodes = (
(493,537,l),
(57,537,l),
(57,508,l),
(493,508,l)
);
},
{
closed = 1;
nodes = (
(276,529,l),
(229,385,o),
(123,214,o),
(37,131,c),
(44,125,o),
(54,113,o),
(59,105,c),
(146,194,o),
(252,372,o),
(302,519,c)
);
},
{
closed = 1;
nodes = (
(447,821,l),
(365,782,o),
(197,749,o),
(60,727,c),
(65,720,o),
(69,711,o),
(71,704,c),
(211,724,o),
(378,758,o),
(475,800,c)
);
},
{
closed = 1;
nodes = (
(280,412,l),
(318,380,o),
(429,267,o),
(460,230,c),
(482,253,l),
(455,283,o),
(333,399,o),
(300,428,c)
);
}
);
vertWidth = 1000;
width = 1000;
},
{
layerId = "94DDBC6A-1627-4027-9125-871D02041BCD";
shapes = (
{
closed = 1;
nodes = (
(853,138,l),
(560,138,l),
(560,-1,l),
(853,-1,l)
);
},
{
closed = 1;
nodes = (
(925,751,l),
(508,751,l),
(508,-55,l),
(650,-55,l),
(650,612,l),
(776,612,l),
(776,-47,l),
(925,-47,l)
);
},
{
closed = 1;
nodes = (
(356,748,l),
(210,748,l),
(210,-94,l),
(356,-94,l)
);
},
{
closed = 1;
nodes = (
(486,556,l),
(40,556,l),
(40,422,l),
(486,422,l)
);
},
{
closed = 1;
nodes = (
(200,504,l),
(170,381,o),
(102,236,o),
(20,147,c),
(44,110,o),
(79,52,o),
(93,10,c),
(185,115,o),
(255,306,o),
(295,472,c)
);
},
{
closed = 1;
nodes = (
(396,854,l),
(303,817,o),
(163,781,o),
(35,760,c),
(51,730,o),
(71,681,o),
(77,649,c),
(212,667,o),
(368,697,o),
(491,742,c)
);
},
{
closed = 1;
nodes = (
(274,355,l),
(314,300,o),
(385,194,o),
(419,128,c),
(501,249,l),
(478,277,o),
(373,396,o),
(342,424,c)
);
}
);
vertWidth = 1000;
width = 1000;
}
);
note = cid12168;
unicode = 21644;
}
{
glyphname = uni5495;
layers = (
{
layerId = m01;
shapes = (
{
closed = 1;
nodes = (
(337,715,l),
(98,715,l),
(98,685,l),
(308,685,l),
(308,229,l),
(98,229,l),
(98,199,l),
(337,199,l)
);
},
{
closed = 1;
nodes = (
(112,715,l),
(83,715,l),
(83,106,l),
(112,106,l)
);
},
{
closed = 1;
nodes = (
(662,831,l),
(633,831,l),
(633,315,l),
(662,315,l)
);
},
{
closed = 1;
nodes = (
(950,598,l),
(361,598,l),
(361,569,l),
(950,569,l)
);
},
{
closed = 1;
nodes = (
(861,14,l),
(449,14,l),
(449,-16,l),
(861,-16,l)
);
},
{
closed = 1;
nodes = (
(875,327,l),
(434,327,l),
(434,-70,l),
(463,-70,l),
(463,298,l),
(845,298,l),
(845,-63,l),
(875,-63,l)
);
}
);
vertWidth = 1000;
width = 1000;
},
{
layerId = "94DDBC6A-1627-4027-9125-871D02041BCD";
shapes = (
{
closed = 1;
nodes = (
(372,758,l),
(152,758,l),
(152,624,l),
(239,624,l),
(239,297,l),
(152,297,l),
(152,163,l),
(372,163,l)
);
},
{
closed = 1;
nodes = (
(191,758,l),
(58,758,l),
(58,78,l),
(191,78,l)
);
},
{
closed = 1;
nodes = (
(747,855,l),
(601,855,l),
(601,298,l),
(747,298,l)
);
},
{
closed = 1;
nodes = (
(975,661,l),
(390,661,l),
(390,522,l),
(975,522,l)
);
},
{
closed = 1;
nodes = (
(857,87,l),
(508,87,l),
(508,-44,l),
(857,-44,l)
);
},
{
closed = 1;
nodes = (
(927,362,l),
(433,362,l),
(433,-95,l),
(577,-95,l),
(577,229,l),
(776,229,l),
(776,-86,l),
(927,-86,l)
);
}
);
vertWidth = 1000;
width = 1000;
}
);
note = cid12181;
unicode = 21653;
}
{
glyphname = uni5496;
layers = (
{
layerId = m01;
shapes = (
{
closed = 1;
nodes = (
(608,621,l),
(332,621,l),
(332,592,l),
(608,592,l)
);
},
{
closed = 1;
nodes = (
(902,84,l),
(694,84,l),
(694,55,l),
(902,55,l)
);
},
{
closed = 1;
nodes = (
(916,709,l),
(681,709,l),
(681,-35,l),
(711,-35,l),
(711,679,l),
(886,679,l),
(886,-27,l),
(916,-27,l)
);
},
{
closed = 1;
nodes = (
(599,621,l),
(599,613,l),
(585,173,o),
(571,23,o),
(545,-11,cs),
(537,-22,o),
(529,-24,o),
(516,-24,cs),
(501,-24,o),
(467,-23,o),
(427,-21,c),
(432,-29,o),
(435,-42,o),
(435,-51,c),
(467,-54,o),
(499,-54,o),
(520,-54,cs),
(542,-53,o),
(558,-47,o),
(571,-28,cs),
(602,13,o),
(614,144,o),
(628,599,c),
(628,605,o),
(628,621,o),
(628,621,c)
);
},
{
closed = 1;
nodes = (
(434,828,l),
(433,456,o),
(431,115,o),
(244,-54,c),
(253,-58,o),
(265,-66,o),
(271,-71,c),
(461,108,o),
(461,445,o),
(463,828,c)
);
},
{
closed = 1;
nodes = (
(299,720,l),
(98,720,l),
(98,691,l),
(270,691,l),
(270,246,l),
(98,246,l),
(98,217,l),
(299,217,l)
);
},
{
closed = 1;
nodes = (
(113,720,l),
(84,720,l),
(84,133,l),
(113,133,l)
);
}
);
vertWidth = 1000;
width = 1000;
},
{
layerId = "94DDBC6A-1627-4027-9125-871D02041BCD";
shapes = (
{
closed = 1;
nodes = (
(577,664,l),
(324,664,l),
(324,537,l),
(577,537,l)
);
},
{
closed = 1;
nodes = (
(876,146,l),
(717,146,l),
(717,19,l),
(876,19,l)
);
},
{
closed = 1;
nodes = (
(945,745,l),
(671,745,l),
(671,-56,l),
(785,-56,l),
(785,618,l),
(825,618,l),
(825,-48,l),
(945,-48,l)
);
},
{
closed = 1;
nodes = (
(535,664,l),
(535,635,l),
(527,226,o),
(518,89,o),
(499,59,cs),
(490,44,o),
(483,40,o),
(470,40,cs),
(455,40,o),
(436,40,o),
(412,43,c),
(431,7,o),
(443,-47,o),
(445,-84,c),
(482,-85,o),
(515,-84,o),
(540,-78,cs),
(569,-71,o),
(588,-59,o),
(609,-26,cs),
(638,19,o),
(647,177,o),
(657,607,c),
(658,623,o),
(658,664,o),
(658,664,c)
);
},
{
closed = 1;
nodes = (
(375,850,l),
(374,431,o),
(379,162,o),
(240,-7,c),
(271,-27,o),
(313,-72,o),
(332,-103,c),
(490,90,o),
(496,402,o),
(497,850,c)
);
},
{
closed = 1;
nodes = (
(312,757,l),
(133,757,l),
(133,628,l),
(203,628,l),
(203,301,l),
(133,301,l),
(133,173,l),
(312,173,l)
);
},
{
closed = 1;
nodes = (
(162,757,l),
(55,757,l),
(55,86,l),
(162,86,l)
);
}
);
vertWidth = 1000;
width = 1000;
}
);
note = cid12182;
unicode = 21654;
}
{
glyphname = uni54B1;
layers = (
{
layerId = m01;
shapes = (
{
closed = 1;
nodes = (
(892,460,l),
(441,460,l),
(441,430,l),
(892,430,l)
);
},
{
closed = 1;
nodes = (
(892,244,l),
(441,244,l),
(441,215,l),
(892,215,l)
);
},
{
closed = 1;
nodes = (
(891,21,l),
(440,21,l),
(440,-8,l),
(891,-8,l)
);
},
{
closed = 1;
nodes = (
(903,671,l),
(425,671,l),
(425,-69,l),
(454,-69,l),
(454,642,l),
(873,642,l),
(873,-69,l),
(903,-69,l)
);
},
{
closed = 1;
nodes = (
(653,833,l),
(637,784,o),
(608,707,o),
(583,661,c),
(609,653,l),
(633,699,o),
(660,767,o),
(682,825,c)
);
},
{
closed = 1;
nodes = (
(337,715,l),
(98,715,l),
(98,685,l),
(308,685,l),
(308,229,l),
(98,229,l),
(98,199,l),
(337,199,l)
);
},
{
closed = 1;
nodes = (
(112,715,l),
(83,715,l),
(83,106,l),
(112,106,l)
);
}
);
vertWidth = 1000;
width = 1000;
},
{
layerId = "94DDBC6A-1627-4027-9125-871D02041BCD";
shapes = (
{
closed = 1;
nodes = (
(888,504,l),
(473,504,l),
(473,370,l),
(888,370,l)
);
},
{
closed = 1;
nodes = (
(890,303,l),
(475,303,l),
(475,169,l),
(890,169,l)
);
},
{
closed = 1;
nodes = (
(908,97,l),
(475,97,l),
(475,-41,l),
(908,-41,l)
);
},
{
closed = 1;
nodes = (
(945,706,l),
(423,706,l),
(423,-94,l),
(559,-94,l),
(559,568,l),
(801,568,l),
(801,-94,l),
(945,-94,l)
);
},
{
closed = 1;
nodes = (
(605,855,l),
(595,798,o),
(574,724,o),
(554,672,c),
(687,646,l),
(709,691,o),
(737,759,o),
(764,831,c)
);
},
{
closed = 1;
nodes = (
(386,758,l),
(138,758,l),
(138,624,l),
(248,624,l),
(248,297,l),
(138,297,l),
(138,163,l),
(386,163,l)
);
},
{
closed = 1;
nodes = (
(194,758,l),
(59,758,l),
(59,83,l),
(194,83,l)
);
}
);
vertWidth = 1000;
width = 1000;
}
);
note = cid12223;
unicode = 21681;
}
{
glyphname = uni54C1;
layers = (
{
layerId = m01;
shapes = (
{
closed = 1;
nodes = (
(279,503,l),
(279,766,l),
(726,766,l),
(726,503,l)
);
},
{
closed = 1;
nodes = (
(756,795,l),
(249,795,l),
(249,473,l),
(756,473,l)
);
},
{
closed = 1;
nodes = (
(436,352,l),
(96,352,l),
(96,-70,l),
(126,-70,l),
(126,323,l),
(406,323,l),
(406,-59,l),
(436,-59,l)
);
},
{
closed = 1;
nodes = (
(912,352,l),
(560,352,l),
(560,-70,l),
(589,-70,l),
(589,323,l),
(882,323,l),
(882,-63,l),
(912,-63,l)
);
},
{
closed = 1;
nodes = (
(417,18,l),
(111,18,l),
(111,-12,l),
(417,-12,l)
);
},
{
closed = 1;
nodes = (
(892,18,l),
(578,18,l),
(578,-12,l),
(892,-12,l)
);
}
);
vertWidth = 1000;
width = 1000;
},
{
layerId = "94DDBC6A-1627-4027-9125-871D02041BCD";
shapes = (
{
closed = 1;
nodes = (
(336,572,l),
(336,683,l),
(661,683,l),
(661,572,l)
);
},
{
closed = 1;
nodes = (
(810,822,l),
(196,822,l),
(196,434,l),
(810,434,l)
);
},
{
closed = 1;
nodes = (
(459,366,l),
(63,366,l),
(63,-95,l),
(200,-95,l),
(200,227,l),
(315,227,l),
(315,-90,l),
(459,-90,l)
);
},
{
closed = 1;
nodes = (
(938,366,l),
(531,366,l),
(531,-95,l),
(670,-95,l),
(670,227,l),
(792,227,l),
(792,-91,l),
(938,-91,l)
);
},
{
closed = 1;
nodes = (
(376,92,l),
(123,92,l),
(123,-47,l),
(376,-47,l)
);
},
{
closed = 1;
nodes = (
(867,92,l),
(596,92,l),
(596,-47,l),
(867,-47,l)
);
}
);
vertWidth = 1000;
width = 1000;
}
);
note = cid12248;
unicode = 21697;
}
{
glyphname = uni54C4;
layers = (
{
layerId = m01;
shapes = (
{
closed = 1;
nodes = (
(934,598,l),
(374,598,l),
(374,569,l),
(934,569,l)
);
},
{
closed = 1;
nodes = (
(953,270,l),
(352,270,l),
(352,240,l),
(953,240,l)
);
},
{
closed = 1;
nodes = (
(527,817,l),
(498,817,l),
(498,256,l),
(527,256,l)
);
},
{
closed = 1;
nodes = (
(796,817,l),
(767,817,l),
(767,256,l),
(796,256,l)
);
},
{
closed = 1;
nodes = (
(512,167,l),
(468,82,o),
(394,2,o),
(319,-52,c),
(327,-56,o),
(339,-65,o),
(344,-70,c),
(417,-15,o),
(492,70,o),
(540,159,c)
);
},
{
closed = 1;
nodes = (
(749,150,l),
(816,83,o),
(889,-11,o),
(922,-72,c),
(948,-56,l),
(915,5,o),
(841,97,o),
(772,164,c)
);
},
{
closed = 1;
nodes = (
(319,723,l),
(100,723,l),
(100,694,l),
(289,694,l),
(289,230,l),
(100,230,l),
(100,201,l),
(319,201,l)
);
},
{
closed = 1;
nodes = (
(112,723,l),
(83,723,l),
(83,115,l),
(112,115,l)
);
}
);
vertWidth = 1000;
width = 1000;
},
{
layerId = "94DDBC6A-1627-4027-9125-871D02041BCD";
shapes = (
{
closed = 1;
nodes = (
(958,665,l),
(395,665,l),
(395,526,l),
(958,526,l)
);
},
{
closed = 1;
nodes = (
(975,338,l),
(389,338,l),
(389,196,l),
(975,196,l)
);
},
{
closed = 1;
nodes = (
(622,849,l),
(481,849,l),
(481,286,l),
(622,286,l)
);
},
{
closed = 1;
nodes = (
(858,849,l),
(716,849,l),
(716,282,l),
(858,282,l)
);
},
{
closed = 1;
nodes = (
(493,178,l),
(455,111,o),
(386,43,o),
(315,1,c),
(349,-21,o),
(407,-69,o),
(434,-96,c),
(508,-42,o),
(586,46,o),
(636,132,c)
);
},
{
closed = 1;
nodes = (
(694,128,l),
(757,59,o),
(823,-33,o),
(854,-95,c),
(984,-25,l),
(949,34,o),
(881,120,o),
(820,182,c)
);
},
{
closed = 1;
nodes = (
(365,760,l),
(133,760,l),
(133,628,l),
(235,628,l),
(235,305,l),
(133,305,l),
(133,173,l),
(365,173,l)
);
},
{
closed = 1;
nodes = (
(187,760,l),
(59,760,l),
(59,89,l),
(187,89,l)
);
}
);
vertWidth = 1000;
width = 1000;
}
);
note = cid12251;
unicode = 21700;
}
{
glyphname = uni54C7;
layers = (
{
layerId = m01;
shapes = (
{
closed = 1;
nodes = (
(904,676,l),
(405,676,l),
(405,647,l),
(904,647,l)
);
},
{
closed = 1;
nodes = (
(919,243,l),
(385,243,l),
(385,214,l),
(919,214,l)
);
},
{
closed = 1;
nodes = (
(940,451,l),
(364,451,l),
(364,421,l),
(940,421,l)
);
},
{
closed = 1;
nodes = (
(951,2,l),
(302,2,l),
(302,-27,l),
(951,-27,l)
);
},
{
closed = 1;
nodes = (
(661,825,l),
(631,825,l),
(631,436,l),
(661,436,l)
);
},
{
closed = 1;
nodes = (
(661,401,l),
(631,401,l),
(631,-20,l),
(661,-20,l)
);
},
{
closed = 1;
nodes = (
(345,721,l),
(100,721,l),
(100,692,l),
(316,692,l),
(316,247,l),
(100,247,l),
(100,218,l),
(345,218,l)
);
},
{
closed = 1;
nodes = (
(112,721,l),
(83,721,l),
(83,113,l),
(112,113,l)
);
}
);
vertWidth = 1000;
width = 1000;
},
{
layerId = "94DDBC6A-1627-4027-9125-871D02041BCD";
shapes = (
{
closed = 1;
nodes = (
(922,746,l),
(432,746,l),
(432,613,l),
(922,613,l)
);
},
{
closed = 1;
nodes = (
(938,297,l),
(416,297,l),
(416,163,l),
(938,163,l)
);
},
{
closed = 1;
nodes = (
(962,528,l),
(399,528,l),
(399,394,l),
(962,394,l)
);
},
{
closed = 1;
nodes = (
(975,69,l),
(353,69,l),
(353,-66,l),
(975,-66,l)
);
},
{
closed = 1;
nodes = (
(749,849,l),
(601,849,l),
(601,475,l),
(749,475,l)
);
},
{
closed = 1;
nodes = (
(749,384,l),
(601,384,l),
(601,-15,l),
(749,-15,l)
);
},
{
closed = 1;
nodes = (
(380,758,l),
(144,758,l),
(144,624,l),
(243,624,l),
(243,297,l),
(144,297,l),
(144,163,l),
(380,163,l)
);
},
{
closed = 1;
nodes = (
(192,758,l),
(59,758,l),
(59,87,l),
(192,87,l)
);
}
);
vertWidth = 1000;
width = 1000;
}
);
note = cid12255;
unicode = 21703;
}
{
glyphname = uni54CE;
layers = (
{
layerId = m01;
shapes = (
{
closed = 1;
nodes = (
(310,723,l),
(100,723,l),
(100,694,l),
(280,694,l),
(280,261,l),
(100,261,l),
(100,231,l),
(310,231,l)
);
},
{
closed = 1;
nodes = (
(112,723,l),
(83,723,l),
(83,132,l),
(112,132,l)
);
},
{
closed = 1;
nodes = (
(803,523,l),
(727,220,o),
(567,48,o),
(282,-45,c),
(288,-52,o),
(298,-65,o),
(301,-71,c),
(587,33,o),
(752,202,o),
(831,516,c)
);
},
{
closed = 1;
nodes = (
(436,513,l),
(512,216,o),
(673,11,o),
(945,-70,c),
(950,-62,o),
(958,-52,o),
(965,-46,c),
(693,29,o),
(533,232,o),
(462,520,c)
);
},
{
closed = 1;
nodes = (
(952,703,l),
(342,703,l),
(342,673,l),
(952,673,l)
);
},
{
closed = 1;
nodes = (
(536,830,l),
(507,830,l),
(507,548,l),
(536,548,l)
);
},
{
closed = 1;
nodes = (
(767,830,l),
(737,830,l),
(737,548,l),
(767,548,l)
);
}
);
vertWidth = 1000;
width = 1000;
},
{
layerId = "94DDBC6A-1627-4027-9125-871D02041BCD";
shapes = (
{
closed = 1;
nodes = (
(371,762,l),
(132,762,l),
(132,627,l),
(234,627,l),
(234,300,l),
(132,300,l),
(132,166,l),
(371,166,l)
);
},
{
closed = 1;
nodes = (
(189,762,l),
(54,762,l),
(54,91,l),
(189,91,l)
);
},
{
closed = 1;
nodes = (
(758,529,l),
(701,259,o),
(578,104,o),
(317,30,c),
(343,0,o),
(383,-63,o),
(397,-95,c),
(679,3,o),
(821,188,o),
(899,503,c)
);
},
{
closed = 1;
nodes = (
(442,501,l),
(520,207,o),
(644,3,o),
(898,-96,c),
(918,-58,o),
(960,-1,o),
(992,28,c),
(758,105,o),
(631,288,o),
(571,529,c)
);
},
{
closed = 1;
nodes = (
(975,755,l),
(385,755,l),
(385,621,l),
(975,621,l)
);
},
{
closed = 1;
nodes = (
(616,855,l),
(479,855,l),
(479,535,l),
(616,535,l)
);
},
{
closed = 1;
nodes = (
(852,855,l),
(714,855,l),
(714,535,l),
(852,535,l)
);
}
);
vertWidth = 1000;
width = 1000;
}
);
note = cid12263;
unicode = 21710;
}
{
glyphname = uni54E6;
layers = (
{
layerId = m01;
shapes = (
{
closed = 1;
nodes = (
(950,525,l),
(315,525,l),
(315,496,l),
(950,496,l)
);
},
{
closed = 1;
nodes = (
(316,206,l),
(408,230,o),
(535,266,o),
(658,300,c),
(655,327,l),
(525,292,o),
(393,257,o),
(306,235,c)
);
},
{
closed = 1;
nodes = (
(882,450,l),
(812,250,o),
(693,77,o),
(544,-32,c),
(552,-38,o),
(564,-49,o),
(569,-54,c),
(716,62,o),
(835,234,o),
(911,442,c)
);
},
{
closed = 1;
nodes = (
(616,814,l),
(553,771,o),
(425,732,o),
(315,706,c),
(320,699,o),
(325,689,o),
(327,682,c),
(439,709,o),
(569,747,o),
(645,793,c)
);
},
{
closed = 1;
nodes = (
(502,740,l),
(473,740,l),
(473,-18,ls),
(473,-34,o),
(468,-38,o),
(453,-39,cs),
(437,-40,o),
(385,-40,o),
(325,-39,c),
(329,-49,o),
(335,-63,o),
(337,-70,c),
(407,-70,o),
(450,-70,o),
(472,-65,cs),
(492,-59,o),
(502,-48,o),
(502,-17,cs)
);
},
{
closed = 1;
nodes = (
(687,831,l),
(692,297,o),
(737,-71,o),
(884,-72,cs),
(935,-72,o),
(949,-23,o),
(956,119,c),
(948,121,o),
(935,127,o),
(928,132,c),
(923,6,o),
(913,-41,o),
(886,-42,cs),
(773,-42,o),
(717,282,o),
(718,831,c)
);
},
{
closed = 1;
nodes = (
(780,793,l),
(831,746,o),
(893,680,o),
(922,639,c),
(947,657,l),
(917,697,o),
(855,761,o),
(804,807,c)
);
},
{
closed = 1;
nodes = (
(295,720,l),
(100,720,l),
(100,691,l),
(266,691,l),
(266,245,l),
(100,245,l),
(100,216,l),
(295,216,l)
);
},
{
closed = 1;
nodes = (
(115,720,l),
(85,720,l),
(85,133,l),
(115,133,l)
);
}
);
vertWidth = 1000;
width = 1000;
},
{
layerId = "94DDBC6A-1627-4027-9125-871D02041BCD";
shapes = (
{
closed = 1;
nodes = (
(975,571,l),
(335,571,l),
(335,441,l),
(975,441,l)
);
},
{
closed = 1;
nodes = (
(357,175,l),
(449,195,o),
(564,219,o),
(671,243,c),
(660,365,l),
(541,343,o),
(415,320,o),
(331,308,c)
);
},
{
closed = 1;
nodes = (
(837,417,l),
(790,247,o),
(696,104,o),
(569,20,c),
(593,-3,o),
(636,-58,o),
(652,-86,c),
(790,19,o),
(899,188,o),
(960,386,c)
);
},
{
closed = 1;
nodes = (
(583,841,l),
(518,807,o),
(417,771,o),
(326,748,c),
(341,721,o),
(359,675,o),
(365,646,c),
(465,667,o),
(586,699,o),
(681,739,c)
);
},
{
closed = 1;
nodes = (
(575,712,l),
(442,712,l),
(442,57,ls),
(442,43,o),
(437,38,o),
(424,38,cs),
(409,38,o),
(367,38,o),
(327,40,c),
(345,3,o),
(364,-58,o),
(369,-96,c),
(437,-96,o),
(490,-91,o),
(527,-69,cs),
(565,-46,o),
(575,-10,o),
(575,56,cs)
);
},
{
closed = 1;
nodes = (
(664,843,l),
(665,405,o),
(682,-96,o),
(853,-96,cs),
(931,-96,o),
(967,-60,o),
(985,72,c),
(956,88,o),
(917,124,o),
(895,155,c),
(891,71,o),
(880,38,o),
(871,38,cs),
(821,38,o),
(787,469,o),
(798,843,c)
);
},
{
closed = 1;
nodes = (
(800,777,l),
(827,718,o),
(852,642,o),
(861,593,c),
(980,641,l),
(970,691,o),
(941,765,o),
(910,819,c)
);
},
{
closed = 1;
nodes = (
(317,757,l),
(124,757,l),
(124,628,l),
(203,628,l),
(203,301,l),
(124,301,l),
(124,172,l),
(317,172,l)
);
},
{
closed = 1;
nodes = (
(166,757,l),
(53,757,l),
(53,86,l),
(166,86,l)
);
}
);
vertWidth = 1000;
width = 1000;
}
);
note = cid12292;
unicode = 21734;
}
{
glyphname = uni54E9;
layers = (
{
layerId = m01;
shapes = (
{
closed = 1;
nodes = (
(430,368,l),
(430,539,l),
(874,539,l),
(874,368,l)
);
},
{
closed = 1;
nodes = (
(430,569,l),
(430,738,l),
(874,738,l),
(874,569,l)
);
},
{
closed = 1;
nodes = (
(904,768,l),
(401,768,l),
(401,338,l),
(904,338,l)
);
},
{
closed = 1;
nodes = (
(918,202,l),
(383,202,l),
(383,173,l),
(918,173,l)
);
},
{
closed = 1;
nodes = (
(950,-7,l),
(323,-7,l),
(323,-36,l),
(950,-36,l)
);
},
{
closed = 1;
nodes = (
(665,752,l),
(635,752,l),
(635,-21,l),
(665,-21,l)
);
},
{
closed = 1;
nodes = (
(330,721,l),
(100,721,l),
(100,692,l),
(301,692,l),
(301,247,l),
(100,247,l),
(100,218,l),
(330,218,l)
);
},
{
closed = 1;
nodes = (
(112,721,l),
(83,721,l),
(83,113,l),
(112,113,l)
);
}
);
vertWidth = 1000;
width = 1000;
},
{
layerId = "94DDBC6A-1627-4027-9125-871D02041BCD";
shapes = (
{
closed = 1;
nodes = (
(536,453,l),
(536,514,l),
(799,514,l),
(799,453,l)
);
},
{
closed = 1;
nodes = (
(536,627,l),
(536,687,l),
(799,687,l),
(799,627,l)
);
},
{
closed = 1;
nodes = (
(937,809,l),
(405,809,l),
(405,331,l),
(937,331,l)
);
},
{
closed = 1;
nodes = (
(947,269,l),
(402,269,l),
(402,139,l),
(947,139,l)
);
},
{
closed = 1;
nodes = (
(980,67,l),
(336,67,l),
(336,-64,l),
(980,-64,l)
);
},
{
closed = 1;
nodes = (
(739,765,l),
(598,765,l),
(598,5,l),
(739,5,l)
);
},
{
closed = 1;
nodes = (
(365,758,l),
(135,758,l),
(135,624,l),
(235,624,l),
(235,297,l),
(135,297,l),
(135,163,l),
(365,163,l)
);
},
{
closed = 1;
nodes = (
(187,758,l),
(59,758,l),
(59,87,l),
(187,87,l)
);
}
);
vertWidth = 1000;
width = 1000;
}
);
note = cid12297;
unicode = 21737;
}
{
glyphname = uni54ED;
layers = (
{
layerId = m01;
shapes = (
{
closed = 1;
nodes = (
(152,534,l),
(152,747,l),
(408,747,l),
(408,534,l)
);
},
{
closed = 1;
nodes = (
(437,776,l),
(123,776,l),
(123,505,l),
(437,505,l)
);
},
{
closed = 1;
nodes = (
(586,534,l),
(586,747,l),
(850,747,l),
(850,534,l)
);
},
{
closed = 1;
nodes = (
(879,776,l),
(557,776,l),
(557,505,l),
(879,505,l)
);
},
{
closed = 1;
nodes = (
(944,323,l),
(58,323,l),
(58,293,l),
(944,293,l)
);
},
{
closed = 1;
nodes = (
(491,492,l),
(468,236,o),
(409,24,o),
(46,-46,c),
(52,-52,o),
(60,-65,o),
(63,-71,c),
(430,3,o),
(495,221,o),
(523,492,c)
);
},
{
closed = 1;
nodes = (
(495,306,l),
(553,103,o),
(699,-21,o),
(934,-70,c),
(939,-62,o),
(947,-50,o),
(954,-43,c),
(722,-1,o),
(579,118,o),
(524,315,c)
);
},
{
closed = 1;
nodes = (
(646,458,l),
(708,425,o),
(782,376,o),
(819,341,c),
(840,364,l),
(803,398,o),
(728,446,o),
(667,477,c)
);
}
);
vertWidth = 1000;
width = 1000;
},
{
layerId = "94DDBC6A-1627-4027-9125-871D02041BCD";
shapes = (
{
closed = 1;
nodes = (
(220,609,l),
(220,694,l),
(319,694,l),
(319,609,l)
);
},
{
closed = 1;
nodes = (
(459,816,l),
(89,816,l),
(89,486,l),
(459,486,l)
);
},
{
closed = 1;
nodes = (
(667,612,l),
(667,694,l),
(768,694,l),
(768,612,l)
);
},
{
closed = 1;
nodes = (
(910,816,l),
(534,816,l),
(534,489,l),
(910,489,l)
);
},
{
closed = 1;
nodes = (
(950,364,l),
(50,364,l),
(50,227,l),
(950,227,l)
);
},
{
closed = 1;
nodes = (
(411,475,l),
(398,251,o),
(389,106,o),
(25,38,c),
(56,4,o),
(93,-56,o),
(107,-97,c),
(515,-5,o),
(552,195,o),
(569,475,c)
);
},
{
closed = 1;
nodes = (
(436,306,l),
(511,77,o),
(623,-47,o),
(880,-95,c),
(900,-51,o),
(942,16,o),
(975,49,c),
(742,76,o),
(625,166,o),
(569,327,c)
);
},
{
closed = 1;
nodes = (
(611,425,l),
(670,392,o),
(737,346,o),
(773,314,c),
(882,401,l),
(842,435,o),
(773,478,o),
(717,504,c)
);
}
);
vertWidth = 1000;
width = 1000;
}
);
note = cid12302;
unicode = 21741;
}
{
glyphname = uni5531;
layers = (
{
layerId = m01;
name = ExtraLight;
shapes = (
{
closed = 1;
nodes = (
(898,180,l),
(403,180,l),
(403,151,l),
(898,151,l)
);
},
{
closed = 1;
nodes = (
(898,4,l),
(403,4,l),
(403,-25,l),
(898,-25,l)
);
},
{
closed = 1;
nodes = (
(915,349,l),
(390,349,l),
(390,-69,l),
(420,-69,l),
(420,320,l),
(885,320,l),
(885,-65,l),
(915,-65,l)
);
},
{
closed = 1;
nodes = (
(455,466,l),
(455,596,l),
(846,596,l),
(846,466,l)
);
},
{
closed = 1;
nodes = (
(455,625,l),
(455,754,l),
(846,754,l),
(846,625,l)
);
},
{
closed = 1;
nodes = (
(875,783,l),
(426,783,l),
(426,436,l),
(875,436,l)
);
},
{
closed = 1;
nodes = (
(330,721,l),
(100,721,l),
(100,692,l),
(301,692,l),
(301,247,l),
(100,247,l),
(100,218,l),
(330,218,l)
);
},
{
closed = 1;
nodes = (
(112,721,l),
(83,721,l),
(83,113,l),
(112,113,l)
);
}
);
vertWidth = 1000;
width = 1000;
},
{
layerId = "94DDBC6A-1627-4027-9125-871D02041BCD";
shapes = (
{
closed = 1;
nodes = (
(845,220,l),
(457,220,l),
(457,103,l),
(845,103,l)
);
},
{
closed = 1;
nodes = (
(845,60,l),
(457,60,l),
(457,-61,l),
(845,-61,l)
);
},
{
closed = 1;
nodes = (
(944,380,l),
(391,380,l),
(391,-94,l),
(534,-94,l),
(534,259,l),
(794,259,l),
(794,-89,l),
(944,-89,l)
);
},
{
closed = 1;
nodes = (
(563,533,l),
(563,574,l),
(766,574,l),
(766,533,l)
);
},
{
closed = 1;
nodes = (
(563,675,l),
(563,715,l),
(766,715,l),
(766,675,l)
);
},
{
closed = 1;
nodes = (
(914,824,l),
(423,824,l),
(423,424,l),
(914,424,l)
);
},
{
closed = 1;
nodes = (
(368,758,l),
(135,758,l),
(135,624,l),
(235,624,l),
(235,297,l),
(135,297,l),
(135,163,l),
(368,163,l)
);
},
{
closed = 1;
nodes = (
(189,758,l),
(59,758,l),
(59,83,l),
(189,83,l)
);
}
);
vertWidth = 1000;
width = 1000;
}
);
note = cid12403;
unicode = 21809;
}
{
glyphname = uni5549;
layers = (
{
layerId = m01;
shapes = (
{
closed = 1;
nodes = (
(608,602,l),
(321,602,l),
(321,572,l),
(608,572,l)
);
},
{
closed = 1;
nodes = (
(495,829,l),
(466,829,l),
(466,-70,l),
(495,-70,l)
);
},
{
closed = 1;
nodes = (
(461,596,l),
(427,402,o),
(356,199,o),
(273,108,c),
(280,103,o),
(291,93,o),
(297,85,c),
(381,186,o),
(451,388,o),
(486,589,c)
);
},
{
closed = 1;
nodes = (
(767,589,l),
(798,405,o),
(862,190,o),
(934,101,c),
(940,109,o),
(951,119,o),
(959,124,c),
(886,205,o),
(819,418,o),
(788,596,c)
);
},
{
closed = 1;
nodes = (
(473,438,l),
(500,413,o),
(580,325,o),
(603,293,c),
(624,319,l),
(605,342,o),
(516,432,o),
(491,454,c)
);
},
{
closed = 1;
nodes = (
(943,602,l),
(638,602,l),
(638,572,l),
(943,572,l)
);
},
{
closed = 1;
nodes = (
(785,829,l),
(756,829,l),
(756,-70,l),
(785,-70,l)
);
},
{
closed = 1;
nodes = (
(756,594,l),
(719,409,o),
(643,211,o),
(560,123,c),
(568,117,o),
(578,108,o),
(584,100,c),
(668,198,o),
(742,395,o),
(780,587,c)
);
},
{
closed = 1;
nodes = (
(287,720,l),
(98,720,l),
(98,691,l),
(258,691,l),
(258,246,l),
(98,246,l),
(98,217,l),
(287,217,l)
);
},
{
closed = 1;
nodes = (
(113,720,l),
(84,720,l),
(84,133,l),
(113,133,l)
);
}
);
vertWidth = 1000;
width = 1000;
},
{
layerId = "94DDBC6A-1627-4027-9125-871D02041BCD";
shapes = (
{
closed = 1;
nodes = (
(627,657,l),
(334,657,l),
(334,527,l),
(627,527,l)
);
},
{
closed = 1;
nodes = (
(555,846,l),
(427,846,l),
(427,-95,l),
(555,-95,l)
);
},
{
closed = 1;
nodes = (
(427,605,l),
(401,435,o),
(346,241,o),
(270,142,c),
(298,120,o),
(341,73,o),
(362,44,c),
(435,164,o),
(479,389,o),
(501,590,c)
);
},
{
closed = 1;
nodes = (
(786,590,l),
(805,393,o),
(842,172,o),
(902,47,c),
(924,80,o),
(967,123,o),
(996,144,c),
(933,249,o),
(884,437,o),
(861,606,c)
);
},
{
closed = 1;
nodes = (
(492,429,l),
(515,388,o),
(561,298,o),
(581,246,c),
(648,361,l),
(634,381,o),
(570,474,o),
(552,495,c)
);
},
{
closed = 1;
nodes = (
(969,657,l),
(644,657,l),
(644,527,l),
(969,527,l)
);
},
{
closed = 1;
nodes = (
(845,846,l),
(715,846,l),
(715,-95,l),
(845,-95,l)
);
},
{
closed = 1;
nodes = (
(714,607,l),
(685,436,o),
(628,249,o),
(553,144,c),
(582,123,o),
(625,77,o),
(646,47,c),
(718,171,o),
(763,391,o),
(788,591,c)
);
},
{
closed = 1;
nodes = (
(315,757,l),
(129,757,l),
(129,628,l),
(200,628,l),
(200,308,l),
(129,308,l),
(129,179,l),
(315,179,l)
);
},
{
closed = 1;
nodes = (
(167,757,l),
(55,757,l),
(55,100,l),
(167,100,l)
);
}
);
vertWidth = 1000;
width = 1000;
}
);
note = cid12453;
unicode = 21833;
}
{
glyphname = uni554A;
layers = (
{
layerId = m01;
shapes = (
{
closed = 1;
nodes = (
(526,791,l),
(351,791,l),
(351,-70,l),
(380,-70,l),
(380,762,l),
(526,762,l)
);
},
{
closed = 1;
nodes = (
(524,791,l),
(519,791,l),
(519,787,l),
(496,708,o),
(463,600,o),
(426,492,c),
(495,396,o),
(525,329,o),
(525,267,cs),
(525,233,o),
(519,194,o),
(503,181,c),
(495,177,o),
(484,174,o),
(473,174,cs),
(458,173,o),
(436,173,o),
(412,176,c),
(419,166,o),
(423,154,o),
(424,145,c),
(443,144,o),
(466,144,o),
(482,146,cs),
(497,147,o),
(513,152,o),
(523,160,cs),
(543,177,o),
(554,225,o),
(554,267,cs),
(554,332,o),
(524,402,o),
(456,495,c),
(490,595,o),
(524,697,o),
(549,780,c),
(529,793,l)
);
},
{
closed = 1;
nodes = (
(952,779,l),
(580,779,l),
(580,750,l),
(952,750,l)
);
},
{
closed = 1;
nodes = (
(766,590,l),
(598,590,l),
(598,126,l),
(627,126,l),
(627,561,l),
(766,561,l)
);
},
{
closed = 1;
nodes = (
(890,769,l),
(861,769,l),
(861,-17,ls),
(861,-32,o),
(856,-37,o),
(840,-37,cs),
(824,-38,o),
(771,-39,o),
(709,-37,c),
(714,-47,o),
(720,-61,o),
(721,-70,c),
(793,-70,o),
(838,-70,o),
(860,-64,cs),
(882,-58,o),
(890,-45,o),
(890,-16,cs)
);
},
{
closed = 1;
nodes = (
(776,590,l),
(747,590,l),
(747,231,l),
(606,231,l),
(606,202,l),
(776,202,l)
);
},
{
closed = 1;
nodes = (
(295,724,l),
(97,724,l),
(97,695,l),
(266,695,l),
(266,231,l),
(97,231,l),
(97,202,l),
(295,202,l)
);
},
{
closed = 1;
nodes = (
(113,724,l),
(84,724,l),
(84,120,l),
(113,120,l)
);
}
);
vertWidth = 1000;
width = 1000;
},
{
layerId = "94DDBC6A-1627-4027-9125-871D02041BCD";
shapes = (
{
closed = 1;
nodes = (
(505,818,l),
(332,818,l),
(332,-95,l),
(443,-95,l),
(443,694,l),
(505,694,l)
);
},
{
closed = 1;
nodes = (
(496,818,l),
(479,818,l),
(479,808,ls),
(474,717,o),
(463,599,o),
(447,473,c),
(479,379,o),
(489,328,o),
(489,278,cs),
(489,245,o),
(486,215,o),
(479,206,cs),
(475,201,o),
(469,200,o),
(461,200,cs),
(455,200,o),
(447,200,o),
(438,201,c),
(454,170,o),
(462,124,o),
(463,93,c),
(480,93,o),
(497,93,o),
(510,96,cs),
(529,99,o),
(544,106,o),
(557,118,cs),
(587,145,o),
(600,199,o),
(600,272,cs),
(600,329,o),
(584,393,o),
(548,488,c),
(567,595,o),
(583,697,o),
(596,782,c),
(511,822,l)
);
},
{
closed = 1;
nodes = (
(975,815,l),
(595,815,l),
(595,682,l),
(975,682,l)
);
},
{
closed = 1;
nodes = (
(739,587,l),
(609,587,l),
(609,114,l),
(694,114,l),
(694,473,l),
(739,473,l)
);
},
{
closed = 1;
nodes = (
(943,764,l),
(830,764,l),
(830,58,ls),
(830,44,o),
(826,39,o),
(812,39,cs),
(797,39,o),
(752,38,o),
(707,41,c),
(726,6,o),
(746,-58,o),
(750,-95,c),
(814,-94,o),
(862,-90,o),
(898,-68,cs),
(934,-46,o),
(943,-4,o),
(943,55,cs)
);
},
{
closed = 1;
nodes = (
(806,587,l),
(717,587,l),
(717,281,l),
(656,281,l),
(656,166,l),
(806,166,l)
);
},
{
closed = 1;
nodes = (
(306,777,l),
(130,777,l),
(130,648,l),
(194,648,l),
(194,306,l),
(130,306,l),
(130,177,l),
(306,177,l)
);
},
{
closed = 1;
nodes = (
(162,777,l),
(51,777,l),
(51,88,l),
(162,88,l)
);
}
);
vertWidth = 1000;
width = 1000;
}
);
note = cid12454;
unicode = 21834;
}
{
glyphname = uni5587;
layers = (
{
layerId = m01;
shapes = (
{
closed = 1;
nodes = (
(669,698,l),
(320,698,l),
(320,669,l),
(669,669,l)
);
},
{
closed = 1;
nodes = (
(509,831,l),
(479,831,l),
(479,544,l),
(509,544,l)
);
},
{
closed = 1;
nodes = (
(509,550,l),
(479,550,l),
(479,326,l),
(479,326,l),
(479,-70,l),
(509,-70,l),
(509,326,l),
(509,326,l)
);
},
{
closed = 1;
nodes = (
(373,330,l),
(373,531,l),
(621,531,l),
(621,330,l)
);
},
{
closed = 1;
nodes = (
(650,561,l),
(343,561,l),
(343,301,l),
(650,301,l)
);
},
{
closed = 1;
nodes = (
(475,311,l),
(430,194,o),
(340,69,o),
(259,8,c),
(266,2,o),
(275,-10,o),
(279,-17,c),
(363,48,o),
(453,180,o),
(500,301,c)
);
},
{
closed = 1;
nodes = (
(484,228,l),
(520,200,o),
(625,104,o),
(655,72,c),
(675,97,l),
(649,123,o),
(534,221,o),
(503,244,c)
);
},
{
closed = 1;
nodes = (
(745,716,l),
(716,716,l),
(716,178,l),
(745,178,l)
);
},
{
closed = 1;
nodes = (
(905,817,l),
(875,817,l),
(875,-19,ls),
(875,-33,o),
(870,-37,o),
(857,-38,cs),
(842,-39,o),
(793,-39,o),
(737,-38,c),
(742,-47,o),
(747,-62,o),
(750,-70,c),
(814,-70,o),
(855,-70,o),
(875,-65,cs),
(895,-59,o),
(905,-47,o),
(905,-18,cs)
);
},
{
closed = 1;
nodes = (
(287,720,l),
(98,720,l),
(98,691,l),
(258,691,l),
(258,228,l),
(98,228,l),
(98,198,l),
(287,198,l)
);
},
{
closed = 1;
nodes = (
(113,720,l),
(84,720,l),
(84,116,l),
(113,116,l)
);
}
);
vertWidth = 1000;
width = 1000;
},
{
layerId = "94DDBC6A-1627-4027-9125-871D02041BCD";
shapes = (
{
closed = 1;
nodes = (
(670,744,l),
(322,744,l),
(322,626,l),
(670,626,l)
);
},
{
closed = 1;
nodes = (
(557,849,l),
(431,849,l),
(431,501,l),
(557,501,l)
);
},
{
closed = 1;
nodes = (
(539,544,l),
(449,544,l),
(449,309,l),
(432,309,l),
(432,-95,l),
(556,-95,l),
(556,309,l),
(539,309,l)
);
},
{
closed = 1;
nodes = (
(421,358,l),
(421,482,l),
(569,482,l),
(569,358,l)
);
},
{
closed = 1;
nodes = (
(664,582,l),
(330,582,l),
(330,258,l),
(664,258,l)
);
},
{
closed = 1;
nodes = (
(448,319,l),
(413,230,o),
(331,125,o),
(255,66,c),
(275,31,o),
(303,-24,o),
(314,-62,c),
(403,14,o),
(487,157,o),
(533,281,c)
);
},
{
closed = 1;
nodes = (
(476,184,l),
(518,143,o),
(590,67,o),
(623,19,c),
(705,124,l),
(681,144,o),
(580,223,o),
(547,243,c)
);
},
{
closed = 1;
nodes = (
(796,758,l),
(687,758,l),
(687,195,l),
(796,195,l)
);
},
{
closed = 1;
nodes = (
(946,837,l),
(821,837,l),
(821,53,ls),
(821,38,o),
(816,33,o),
(801,33,cs),
(785,33,o),
(740,33,o),
(692,35,c),
(711,-1,o),
(733,-61,o),
(738,-97,c),
(808,-97,o),
(861,-91,o),
(898,-69,cs),
(934,-47,o),
(946,-11,o),
(946,53,cs)
);
},
{
closed = 1;
nodes = (
(305,757,l),
(127,757,l),
(127,628,l),
(197,628,l),
(197,308,l),
(127,308,l),
(127,179,l),
(305,179,l)
);
},
{
closed = 1;
nodes = (
(161,757,l),
(55,757,l),
(55,100,l),
(161,100,l)
);
}
);
vertWidth = 1000;
width = 1000;
}
);
note = cid12543;
unicode = (21895,63755);
}
{
glyphname = uni5589;
layers = (
{
layerId = m01;
shapes = (
{
closed = 1;
nodes = (
(299,720,l),
(98,720,l),
(98,691,l),
(270,691,l),
(270,246,l),
(98,246,l),
(98,217,l),
(299,217,l)
);
},
{
closed = 1;
nodes = (
(113,720,l),
(84,720,l),
(84,133,l),
(113,133,l)
);
},
{
closed = 1;
nodes = (
(477,829,l),
(442,694,o),
(373,529,o),
(280,419,c),
(288,415,o),
(299,407,o),
(305,402,c),
(398,515,o),
(468,683,o),
(509,821,c)
);
},
{
closed = 1;
nodes = (
(601,543,l),
(581,460,o),
(539,355,o),
(480,287,c),
(488,283,o),
(499,276,o),
(505,272,c),
(564,341,o),
(608,450,o),
(631,536,c)
);
},
{
closed = 1;
nodes = (
(834,776,l),
(565,776,l),
(565,747,l),
(834,747,l)
);
},
{
closed = 1;
nodes = (
(957,595,l),
(488,595,l),
(488,566,l),
(957,566,l)
);
},
{
closed = 1;
nodes = (
(922,433,l),
(574,433,l),
(574,404,l),
(922,404,l)
);
},
{
closed = 1;
nodes = (
(952,231,l),
(479,231,l),
(479,202,l),
(952,202,l)
);
},
{
closed = 1;
nodes = (
(719,221,l),
(749,79,o),
(823,-26,o),
(947,-71,c),
(952,-64,o),
(960,-54,o),
(966,-48,c),
(845,-9,o),
(772,92,o),
(744,226,c)
);
},
{
closed = 1;
nodes = (
(824,776,l),
(821,776,l),
(821,770,ls),
(819,725,o),
(810,637,o),
(801,578,c),
(830,575,l),
(839,636,o),
(847,715,o),
(851,775,c),
(830,779,l)
);
},
{
closed = 1;
nodes = (
(727,425,l),
(698,425,l),
(698,287,ls),
(698,188,o),
(683,46,o),
(461,-48,c),
(467,-54,o),
(476,-65,o),
(480,-71,c),
(709,33,o),
(727,180,o),
(727,287,cs)
);
},
{
closed = 1;
nodes = (
(427,634,l),
(402,610,l),
(402,-71,l),
(431,-71,l),
(431,632,l)
);
}
);
vertWidth = 1000;
width = 1000;
},
{
layerId = "94DDBC6A-1627-4027-9125-871D02041BCD";
shapes = (
{
closed = 1;
nodes = (
(312,757,l),
(133,757,l),
(133,628,l),
(203,628,l),
(203,301,l),
(133,301,l),
(133,173,l),
(312,173,l)
);
},
{
closed = 1;
nodes = (
(162,757,l),
(55,757,l),
(55,86,l),
(162,86,l)
);
},
{
closed = 1;
nodes = (
(448,850,l),
(414,707,o),
(345,570,o),
(269,494,c),
(295,467,o),
(334,412,o),
(352,381,c),
(444,475,o),
(534,643,o),
(585,817,c)
);
},
{
closed = 1;
nodes = (
(599,520,l),
(585,454,o),
(552,373,o),
(501,326,c),
(528,311,o),
(572,279,o),
(596,258,c),
(655,314,o),
(697,410,o),
(722,496,c)
);
},
{
closed = 1;
nodes = (
(824,808,l),
(594,808,l),
(594,690,l),
(824,690,l)
);
},
{
closed = 1;
nodes = (
(973,628,l),
(531,628,l),
(531,508,l),
(973,508,l)
);
},
{
closed = 1;
nodes = (
(954,440,l),
(620,440,l),
(620,326,l),
(954,326,l)
);
},
{
closed = 1;
nodes = (
(975,260,l),
(528,260,l),
(528,141,l),
(975,141,l)
);
},
{
closed = 1;
nodes = (
(714,169,l),
(749,52,o),
(808,-47,o),
(908,-96,c),
(926,-64,o),
(962,-18,o),
(990,6,c),
(904,39,o),
(845,110,o),
(816,192,c)
);
},
{
closed = 1;
nodes = (
(786,808,l),
(772,808,l),
(772,794,ls),
(769,741,o),
(760,647,o),
(749,572,c),
(879,561,l),
(889,632,o),
(899,718,o),
(904,805,c),
(807,813,l)
);
},
{
closed = 1;
nodes = (
(815,380,l),
(686,380,l),
(686,250,ls),
(686,176,o),
(668,64,o),
(504,-5,c),
(534,-28,o),
(574,-69,o),
(592,-97,c),
(777,-3,o),
(815,138,o),
(815,248,cs)
);
},
{
closed = 1;
nodes = (
(497,702,l),
(376,581,l),
(376,-94,l),
(508,-94,l),
(508,697,l)
);
}
);
vertWidth = 1000;
width = 1000;
}
);
note = cid12547;
unicode = 21897;
}
{
glyphname = uni558A;
layers = (
{
layerId = m01;
shapes = (
{
closed = 1;
nodes = (
(299,720,l),
(98,720,l),
(98,691,l),
(270,691,l),
(270,246,l),
(98,246,l),
(98,217,l),
(299,217,l)
);
},
{
closed = 1;
nodes = (
(113,720,l),
(84,720,l),
(84,133,l),
(113,133,l)
);
},
{
closed = 1;
nodes = (
(889,521,l),
(833,268,o),
(729,72,o),
(557,-48,c),
(564,-54,o),
(575,-65,o),
(579,-70,c),
(752,58,o),
(858,252,o),
(918,515,c)
);
},
{
closed = 1;
nodes = (
(950,661,l),
(384,661,l),
(384,631,l),
(950,631,l)
);
},
{
closed = 1;
nodes = (
(677,525,l),
(447,525,l),
(447,496,l),
(677,496,l)
);
},
{
closed = 1;
nodes = (
(396,661,l),
(367,661,l),
(367,416,ls),
(367,276,o),
(354,87,o),
(248,-51,c),
(256,-54,o),
(267,-64,o),
(272,-69,c),
(380,73,o),
(396,272,o),
(396,416,cs)
);
},
{
closed = 1;
nodes = (
(714,831,l),
(726,213,o),
(776,-72,o),
(892,-71,cs),
(935,-71,o),
(952,-45,o),
(961,89,c),
(952,91,o),
(938,99,o),
(932,106,c),
(926,-14,o),
(916,-40,o),
(894,-40,cs),
(811,-40,o),
(750,213,o),
(745,831,c)
);
},
{
closed = 1;
nodes = (
(485,386,l),
(456,386,l),
(456,60,l),
(485,60,l)
);
},
{
closed = 1;
nodes = (
(665,386,l),
(470,386,l),
(470,357,l),
(635,357,l),
(635,143,l),
(470,143,l),
(470,114,l),
(665,114,l)
);
},
{
closed = 1;
nodes = (
(786,807,l),
(835,777,o),
(890,733,o),
(920,701,c),
(941,721,l),
(909,754,o),
(854,796,o),
(807,824,c)
);
}
);
vertWidth = 1000;
width = 1000;
},
{
layerId = "94DDBC6A-1627-4027-9125-871D02041BCD";
shapes = (
{
closed = 1;
nodes = (
(312,757,l),
(133,757,l),
(133,628,l),
(203,628,l),
(203,301,l),
(133,301,l),
(133,173,l),
(312,173,l)
);
},
{
closed = 1;
nodes = (
(162,757,l),
(55,757,l),
(55,86,l),
(162,86,l)
);
},
{
closed = 1;
nodes = (
(839,504,l),
(796,259,o),
(696,92,o),
(538,2,c),
(561,-21,o),
(602,-73,o),
(616,-99,c),
(790,13,o),
(904,207,o),
(959,485,c)
);
},
{
closed = 1;
nodes = (
(969,703,l),
(397,703,l),
(397,577,l),
(969,577,l)
);
},
{
closed = 1;
nodes = (
(669,540,l),
(479,540,l),
(479,432,l),
(669,432,l)
);
},
{
closed = 1;
nodes = (
(456,703,l),
(338,703,l),
(338,427,ls),
(338,292,o),
(330,110,o),
(233,-14,c),
(258,-29,o),
(305,-72,o),
(324,-96,c),
(436,43,o),
(456,272,o),
(456,426,cs)
);
},
{
closed = 1;
nodes = (
(678,854,l),
(681,285,o),
(700,-95,o),
(851,-95,cs),
(941,-95,o),
(976,-68,o),
(991,114,c),
(960,125,o),
(917,156,o),
(889,183,c),
(886,74,o),
(877,31,o),
(865,31,cs),
(833,31,o),
(790,301,o),
(805,854,c)
);
},
{
closed = 1;
nodes = (
(562,395,l),
(475,395,l),
(475,26,l),
(562,26,l)
);
},
{
closed = 1;
nodes = (
(669,395,l),
(517,395,l),
(517,290,l),
(587,290,l),
(587,180,l),
(517,180,l),
(517,74,l),
(669,74,l)
);
},
{
closed = 1;
nodes = (
(792,788,l),
(823,764,o),
(864,722,o),
(884,695,c),
(976,767,l),
(955,792,o),
(915,828,o),
(880,851,c)
);
}
);
vertWidth = 1000;
width = 1000;
}
);
note = cid12549;
unicode = 21898;
}
{
glyphname = uni5598;
layers = (
{
layerId = m01;
shapes = (
{
closed = 1;
nodes = (
(573,299,l),
(543,299,l),
(543,-59,l),
(573,-59,l)
);
},
{
closed = 1;
nodes = (
(743,299,l),
(714,299,l),
(714,-59,l),
(743,-59,l)
);
},
{
closed = 1;
nodes = (
(653,830,l),
(623,830,l),
(623,583,l),
(653,583,l)
);
},
{
closed = 1;
nodes = (
(615,460,l),
(604,411,o),
(581,336,o),
(563,291,c),
(591,284,l),
(610,328,o),
(631,397,o),
(649,453,c)
);
},
{
closed = 1;
nodes = (
(952,465,l),
(338,465,l),
(338,435,l),
(952,435,l)
);
},
{
closed = 1;
nodes = (
(902,306,l),
(379,306,l),
(379,-71,l),
(409,-71,l),
(409,277,l),
(902,277,l)
);
},
{
closed = 1;
nodes = (
(916,306,l),
(886,306,l),
(886,-27,ls),
(886,-37,o),
(883,-40,o),
(873,-40,cs),
(862,-41,o),
(829,-41,o),
(784,-40,c),
(789,-49,o),
(795,-61,o),
(797,-68,c),
(847,-68,o),
(878,-68,o),
(895,-63,cs),
(912,-57,o),
(916,-47,o),
(916,-27,cs)
);
},
{
closed = 1;
nodes = (
(415,786,l),
(385,786,l),
(385,568,l),
(906,568,l),
(906,786,l),
(876,786,l),
(876,597,l),
(415,597,l)
);
},
{
closed = 1;
nodes = (
(314,720,l),
(98,720,l),
(98,691,l),
(284,691,l),
(284,246,l),
(98,246,l),
(98,217,l),
(314,217,l)
);
},
{
closed = 1;
nodes = (
(113,720,l),
(84,720,l),
(84,130,l),
(113,130,l)
);
}
);
vertWidth = 1000;
width = 1000;
},
{
layerId = "94DDBC6A-1627-4027-9125-871D02041BCD";
shapes = (
{
closed = 1;
nodes = (
(640,277,l),
(532,277,l),
(532,-83,l),
(640,-83,l)
);
},
{
closed = 1;
nodes = (
(784,277,l),
(677,277,l),
(677,-83,l),
(784,-83,l)
);
},
{
closed = 1;
nodes = (
(723,855,l),
(587,855,l),
(587,603,l),
(723,603,l)
);
},
{
closed = 1;
nodes = (
(588,470,l),
(587,423,o),
(581,359,o),
(573,311,c),
(694,295,l),
(711,337,o),
(735,399,o),
(753,463,c)
);
},
{
closed = 1;
nodes = (
(975,508,l),
(357,508,l),
(357,387,l),
(975,387,l)
);
},
{
closed = 1;
nodes = (
(869,337,l),
(377,337,l),
(377,-95,l),
(500,-95,l),
(500,229,l),
(869,229,l)
);
},
{
closed = 1;
nodes = (
(951,337,l),
(825,337,l),
(825,28,ls),
(825,20,o),
(823,18,o),
(816,18,cs),
(810,18,o),
(796,18,o),
(783,19,c),
(798,-12,o),
(814,-61,o),
(818,-96,c),
(857,-96,o),
(888,-94,o),
(916,-74,cs),
(945,-55,o),
(951,-23,o),
(951,26,cs)
);
},
{
closed = 1;
nodes = (
(511,803,l),
(382,803,l),
(382,544,l),
(942,544,l),
(942,803,l),
(806,803,l),
(806,652,l),
(511,652,l)
);
},
{
closed = 1;
nodes = (
(339,757,l),
(142,757,l),
(142,628,l),
(217,628,l),
(217,301,l),
(142,301,l),
(142,172,l),
(339,172,l)
);
},
{
closed = 1;
nodes = (
(178,757,l),
(60,757,l),
(60,95,l),
(178,95,l)
);
}
);
vertWidth = 1000;
width = 1000;
}
);
note = cid12574;
unicode = 21912;
}
{
glyphname = uni55C5;
layers = (
{
layerId = m01;
shapes = (
{
closed = 1;
nodes = (
(437,460,l),
(437,559,l),
(845,559,l),
(845,460,l)
);
},
{
closed = 1;
nodes = (
(437,330,l),
(437,431,l),
(845,431,l),
(845,330,l)
);
},
{
closed = 1;
nodes = (
(437,589,l),
(437,687,l),
(845,687,l),
(845,589,l)
);
},
{
closed = 1;
nodes = (
(874,716,l),
(408,716,l),
(408,301,l),
(874,301,l)
);
},
{
closed = 1;
nodes = (
(935,194,l),
(342,194,l),
(342,165,l),
(935,165,l)
);
},
{
closed = 1;
nodes = (
(638,832,l),
(623,791,o),
(599,740,o),
(580,708,c),
(604,698,l),
(621,725,o),
(647,775,o),
(667,819,c)
);
},
{
closed = 1;
nodes = (
(737,278,l),
(784,255,o),
(837,223,o),
(866,200,c),
(882,222,l),
(852,244,o),
(799,275,o),
(753,297,c)
);
},
{
closed = 1;
nodes = (
(620,325,l),
(606,111,o),
(554,5,o),
(306,-47,c),
(312,-53,o),
(321,-64,o),
(324,-71,c),
(577,-15,o),
(634,96,o),
(650,325,c)
);
},
{
closed = 1;
nodes = (
(629,183,l),
(663,47,o),
(777,-37,o),
(931,-70,c),
(934,-63,o),
(944,-49,o),
(950,-44,c),
(800,-18,o),
(688,61,o),
(656,188,c)
);
},
{
closed = 1;
nodes = (
(331,721,l),
(98,721,l),
(98,692,l),
(302,692,l),
(302,247,l),
(98,247,l),
(98,218,l),
(331,218,l)
);
},
{
closed = 1;
nodes = (
(113,721,l),
(84,721,l),
(84,126,l),
(113,126,l)
);
}
);
vertWidth = 1000;
width = 1000;
},
{
layerId = "94DDBC6A-1627-4027-9125-871D02041BCD";
shapes = (
{
closed = 1;
nodes = (
(546,517,l),
(546,544,l),
(768,544,l),
(768,517,l)
);
},
{
closed = 1;
nodes = (
(546,404,l),
(546,433,l),
(768,433,l),
(768,404,l)
);
},
{
closed = 1;
nodes = (
(546,629,l),
(546,657,l),
(768,657,l),
(768,629,l)
);
},
{
closed = 1;
nodes = (
(907,754,l),
(414,754,l),
(414,307,l),
(907,307,l)
);
},
{
closed = 1;
nodes = (
(950,246,l),
(368,246,l),
(368,124,l),
(950,124,l)
);
},
{
closed = 1;
nodes = (
(590,856,l),
(586,820,o),
(576,773,o),
(566,735,c),
(694,710,l),
(712,741,o),
(737,786,o),
(760,836,c)
);
},
{
closed = 1;
nodes = (
(739,284,l),
(773,259,o),
(810,225,o),
(829,201,c),
(916,267,l),
(893,292,o),
(853,324,o),
(820,344,c)
);
},
{
closed = 1;
nodes = (
(580,319,l),
(575,135,o),
(564,60,o),
(308,20,c),
(334,-8,o),
(367,-62,o),
(377,-96,c),
(678,-38,o),
(708,85,o),
(716,319,c)
);
},
{
closed = 1;
nodes = (
(608,141,l),
(655,9,o),
(751,-66,o),
(909,-95,c),
(925,-58,o),
(961,-4,o),
(989,24,c),
(855,36,o),
(758,78,o),
(722,156,c)
);
},
{
closed = 1;
nodes = (
(354,758,l),
(134,758,l),
(134,627,l),
(232,627,l),
(232,300,l),
(134,300,l),
(134,168,l),
(354,168,l)
);
},
{
closed = 1;
nodes = (
(180,758,l),
(59,758,l),
(59,87,l),
(180,87,l)
);
}
);
vertWidth = 1000;
width = 1000;
}
);
note = cid12657;
unicode = 21957;
}
